<svg width="128" height="129" viewBox="0 0 128 129" fill="none" xmlns="http://www.w3.org/2000/svg">
<path d="M6.66663 98.1473L45.792 54.1473C47.7794 51.9532 51.1379 51.7023 53.4293 53.5766L77.2373 73.4166C79.5276 75.2912 82.8873 75.0327 84.864 72.8299L121.333 31.4806" stroke="#C7913A" stroke-width="2" stroke-linecap="round" stroke-linejoin="round"/>
<g clip-path="url(#clip0_3_10489)">
<path d="M50.0834 77.1186H51.9167V78.9519H50.0834V77.1186ZM50.0834 69.7852H51.9167V75.2852H50.0834V69.7852ZM50.9909 65.2019C45.9309 65.2019 41.8334 69.3086 41.8334 74.3686C41.8334 79.4286 45.9309 83.5352 50.9909 83.5352C56.06 83.5352 60.1667 79.4286 60.1667 74.3686C60.1667 69.3086 56.06 65.2019 50.9909 65.2019ZM51 81.7019C46.9484 81.7019 43.6667 78.4202 43.6667 74.3686C43.6667 70.3169 46.9484 67.0352 51 67.0352C55.0517 67.0352 58.3334 70.3169 58.3334 74.3686C58.3334 78.4202 55.0517 81.7019 51 81.7019Z" fill="#C7913A"/>
</g>
<g clip-path="url(#clip1_3_10489)">
<path d="M80.0834 55.1186H81.9167V56.9519H80.0834V55.1186ZM80.0834 47.7852H81.9167V53.2852H80.0834V47.7852ZM80.9909 43.2019C75.9309 43.2019 71.8334 47.3086 71.8334 52.3686C71.8334 57.4286 75.9309 61.5352 80.9909 61.5352C86.06 61.5352 90.1667 57.4286 90.1667 52.3686C90.1667 47.3086 86.06 43.2019 80.9909 43.2019ZM81 59.7019C76.9484 59.7019 73.6667 56.4202 73.6667 52.3686C73.6667 48.3169 76.9484 45.0352 81 45.0352C85.0517 45.0352 88.3334 48.3169 88.3334 52.3686C88.3334 56.4202 85.0517 59.7019 81 59.7019Z" fill="#C7913A"/>
</g>
<path d="M84.3306 31.4806H121.333V63.3686" stroke="#C7913A" stroke-width="2" stroke-linecap="round" stroke-linejoin="round"/>
<defs>
<clipPath id="clip0_3_10489">
<rect width="22" height="22" fill="white" transform="translate(40 63.3685)"/>
</clipPath>
<clipPath id="clip1_3_10489">
<rect width="22" height="22" fill="white" transform="translate(70 41.3685)"/>
</clipPath>
</defs>
</svg>
