<svg width="128" height="129" viewBox="0 0 128 129" fill="none" xmlns="http://www.w3.org/2000/svg">
<path d="M103.112 25.3568C124.713 46.9577 124.713 81.9796 103.112 103.58C81.5112 125.181 46.4893 125.181 24.8884 103.58C3.28752 81.9796 3.28752 46.9577 24.8884 25.3568C46.4893 3.75591 81.5112 3.75591 103.112 25.3568Z" stroke="#C7913A" stroke-width="2" stroke-linecap="round" stroke-linejoin="round"/>
<path d="M93.7361 93.9686C85.5957 77.5405 65.679 70.8219 49.2509 78.9621C42.7415 82.1876 37.4699 87.4593 34.2444 93.9686" stroke="#C7913A" stroke-width="2" stroke-linecap="round" stroke-linejoin="round"/>
<path d="M37.5372 50.0344L56.4821 49.8422" stroke="#C7913A" stroke-width="2" stroke-linecap="round"/>
<path d="M39.7219 58.6599L56.4767 49.8162" stroke="#C7913A" stroke-width="2" stroke-linecap="round"/>
<path d="M39.1604 42.1298L56.4766 49.8163" stroke="#C7913A" stroke-width="2" stroke-linecap="round"/>
<path d="M90.1042 50.0341L71.1594 49.8419" stroke="#C7913A" stroke-width="2" stroke-linecap="round"/>
<path d="M87.9196 58.6596L71.1647 49.8159" stroke="#C7913A" stroke-width="2" stroke-linecap="round"/>
<path d="M88.4811 42.1295L71.1649 49.816" stroke="#C7913A" stroke-width="2" stroke-linecap="round"/>
</svg>
