<svg width="128" height="129" viewBox="0 0 128 129" fill="none" xmlns="http://www.w3.org/2000/svg">
<path d="M106.667 93.7699C106.667 102.606 99.5031 109.77 90.6666 109.77H37.3333C28.4967 109.77 21.3333 102.606 21.3333 93.7699V51.1033" stroke="#C7913A" stroke-width="2" stroke-linecap="round" stroke-linejoin="round"/>
<path d="M21.3333 35.1033C21.3333 26.2667 28.4967 19.1033 37.3333 19.1033H90.6666C99.5031 19.1033 106.667 26.2667 106.667 35.1033V77.7699" stroke="#C7913A" stroke-width="2" stroke-linecap="round" stroke-linejoin="round"/>
<path d="M5.35461 61.7699L21.3546 51.1033L37.3546 61.7699" stroke="#C7913A" stroke-width="2" stroke-linecap="round" stroke-linejoin="round"/>
<path d="M90.688 67.1033L106.688 77.7699L122.688 67.1033" stroke="#C7913A" stroke-width="2" stroke-linecap="round" stroke-linejoin="round"/>
<path d="M64 35.0819V72.3619" stroke="#C7913A" stroke-width="2" stroke-linecap="round" stroke-linejoin="round"/>
<path d="M63.9998 84.3353C64.7362 84.3353 65.3332 84.9322 65.3332 85.6686C65.3332 86.405 64.7362 87.0019 63.9998 87.0019C63.2635 87.0019 62.6665 86.405 62.6665 85.6686C62.6665 84.9322 63.2635 84.3353 63.9998 84.3353Z" stroke="#C7913A" stroke-width="2" stroke-linecap="round" stroke-linejoin="round"/>
</svg>
