<svg width="141" height="170" viewBox="0 0 141 170" fill="none" xmlns="http://www.w3.org/2000/svg">
<g clip-path="url(#clip0_3_10518)">
<path d="M35.015 93.9176C34.3678 94.6893 33.4226 95.9739 32.6818 97.75C32.6818 97.75 31.8813 99.6813 31.6088 102.138C31.2427 105.466 31.6897 112.097 33.2608 120.486C35.4918 123.913 37.7186 127.34 39.9496 130.767C42.5766 133.035 45.2078 135.307 47.8348 137.574L58.8153 143.928L70.3322 151.744L74.9518 159.37C74.4834 160.422 73.7979 162.353 73.9427 164.793C74.0151 166.022 74.2748 167.056 74.543 167.841C75.9821 165.315 77.6596 162.629 79.6096 159.861C82.2366 156.128 84.8891 152.904 87.3969 150.158L101.886 133.608L108.945 127.215L116.932 110.476L112.474 96.1808L110.384 86.4813L105.351 78.5105L79.5969 72.8589C71.4903 73.3115 56.6396 75.4497 43.2109 86.0545C39.9666 88.6195 37.2587 91.3138 35.015 93.9262V93.9176Z" fill="white"/>
<path opacity="0.6" d="M113.556 99.6246C113.556 99.2668 113.53 99.0814 113.39 98.7409C113.347 98.6374 113.309 98.4477 113.228 98.3615C113.16 98.2882 113.096 98.3012 113.058 98.215C113.071 98.1287 113.071 98.0468 113.049 97.9606C113.032 97.8011 112.981 97.6545 112.896 97.5209C112.828 97.4088 112.76 97.2967 112.692 97.176C112.555 96.9346 112.389 96.7018 112.236 96.469C111.338 95.1068 110.495 93.7014 109.63 92.3047C109.192 91.5934 108.902 90.8088 108.468 90.0889C108.293 89.7958 108.089 89.5156 107.902 89.231C107.902 89.231 107.689 88.9293 107.672 88.925C107.544 88.8948 107.514 89.0931 107.476 89.175C107.289 89.5414 106.91 89.8087 106.616 90.0803C106.446 90.2398 106.45 90.3303 106.377 90.5545C106.331 90.6881 106.284 90.7312 106.207 90.8606C106.126 91.0028 106.101 91.1796 106.045 91.3348C105.977 91.5115 105.871 91.9383 105.718 92.0374C105.786 92.253 106.105 92.3521 106.275 92.4642C106.693 92.7315 107.089 93.0807 107.429 93.4385C107.599 93.6195 107.565 93.779 107.616 94.0118C107.651 94.1584 107.74 94.2575 107.774 94.3955C107.829 94.6067 107.846 94.8309 107.855 95.0551C107.863 95.3008 107.936 95.5293 107.983 95.7707C108.11 96.4302 108.017 97.1588 108.021 97.827C108.021 98.5641 107.893 99.2237 107.676 99.9307C107.425 100.737 107.161 101.543 106.871 102.336C106.544 103.233 106.118 104.099 105.586 104.888C105.275 105.345 104.943 105.785 104.568 106.19C104.432 106.337 104.061 106.694 104.057 106.906C104.453 106.759 104.674 106.268 105.007 106.018C105.262 105.824 105.564 105.651 105.794 105.427C105.858 105.634 105.713 105.923 105.641 106.121C105.513 106.483 105.339 106.776 105.164 107.113C104.875 107.677 104.568 108.229 104.236 108.772C103.878 109.367 103.465 109.923 103.15 110.544C102.903 111.031 102.584 111.449 102.29 111.902C101.996 112.355 101.813 112.889 101.549 113.368C101.196 114.014 100.783 114.614 100.378 115.226C100.255 115.415 100.136 115.618 99.9825 115.786C99.9186 115.859 99.8292 115.911 99.7994 116.006C100.225 115.95 100.659 115.454 100.979 115.2C101.268 114.971 101.545 114.734 101.822 114.497C102.145 114.217 102.516 114.032 102.856 113.773C103.027 113.644 103.559 113.256 103.584 112.988C103.461 113.782 103.325 114.57 103.167 115.359C103.018 116.109 102.793 116.808 102.597 117.541C102.499 117.907 102.397 118.235 102.205 118.567C101.805 119.261 101.571 120.058 101.239 120.791C100.774 121.83 100.229 122.826 99.8207 123.895C99.4418 124.895 99.2289 125.947 98.7861 126.921C98.3561 127.861 97.8196 128.671 97.2065 129.499C96.7041 130.18 96.1634 130.814 95.6823 131.512C95.5162 131.754 95.3289 131.943 95.133 132.155C95.0564 132.241 95.001 132.357 94.9031 132.387C94.72 132.12 97.3555 131.232 97.7217 130.965C97.5173 132.12 96.5593 132.931 95.8994 133.827C95.6141 134.22 95.414 134.672 95.1415 135.077C94.8691 135.483 94.6391 135.892 94.3922 136.306C93.9792 137.009 93.5194 137.668 92.919 138.22C92.6508 138.466 92.4422 138.772 92.076 138.867C91.7099 138.962 91.4459 138.845 91.1819 138.578C91.2628 138.875 91.101 139.315 90.9818 139.565C90.522 140.518 90.0749 141.47 89.6023 142.415C89.0318 143.553 88.5592 144.695 88.1249 145.893C87.6992 147.07 87.218 148.221 86.788 149.398C86.3623 150.571 85.9578 151.687 85.4 152.795C84.9359 153.713 84.391 154.67 83.7566 155.49C83.3478 156.011 82.888 156.546 82.4069 156.998C81.9982 157.382 81.5511 157.692 81.1296 158.059C80.7081 158.425 80.2908 158.74 79.8693 159.08C79.5032 159.378 79.0604 159.736 78.7921 160.132C78.426 160.106 79.0732 159.365 79.0391 159.399C79.9375 158.369 81.1168 157.602 82.062 156.61C82.6922 155.951 83.2627 155.248 83.829 154.528C84.3441 153.869 84.8678 153.291 85.4724 152.718C85.9748 152.239 86.507 151.808 87.035 151.36C87.5629 150.911 88.0738 150.342 88.5933 149.842C89.0659 149.385 89.4405 148.842 89.9174 148.385C90.407 147.92 90.8754 147.458 91.3054 146.928C91.9866 146.083 92.6466 145.35 93.4853 144.669C94.2474 144.048 95.2224 143.764 96.0527 143.247C96.9383 142.699 97.6748 142.014 98.4497 141.324C98.8202 140.992 99.1608 140.634 99.4631 140.238C99.7654 139.841 100.012 139.384 100.349 139.009C100.685 138.634 101.081 138.371 101.379 137.957C101.677 137.543 102.082 137.198 102.482 136.862C103.508 135.987 104.436 135.017 105.428 134.099C106.616 132.995 107.531 131.672 108.54 130.413C109.379 129.365 110.278 128.365 111.172 127.365C111.64 126.844 112.027 126.313 112.402 125.718C112.623 125.378 112.836 125.029 113.041 124.675C113.232 124.253 113.394 123.817 113.526 123.369C113.96 122.097 114.369 120.903 114.62 119.58C114.744 118.929 114.795 118.261 114.927 117.61C115.004 117.23 115.114 116.916 115.14 116.532C115.157 116.256 115.221 116.015 115.221 115.734C115.221 115.239 115.221 114.747 115.221 114.251C115.221 113.872 115.306 113.402 115.306 113.014C115.306 112.389 115.306 111.764 115.306 111.139C115.306 109.505 115.421 107.824 115.229 106.199C115.106 105.155 115.067 104.108 114.961 103.065C114.906 102.517 114.82 101.948 114.688 101.418C114.612 101.125 114.646 100.745 114.467 100.474C114.378 100.34 114.284 100.25 114.199 100.103C114.046 99.8358 113.897 99.5901 113.577 99.6203L113.556 99.6246Z" fill="#DDDDDD"/>
<path opacity="0.6" d="M33.4694 95.9085C33.8313 95.8223 34.5934 96.7147 36.3774 101.426C36.42 101.564 36.4583 101.702 36.4838 101.845C36.5179 102.008 36.6073 102.133 36.7435 102.22C36.8926 102.461 36.9309 102.681 37.0458 102.94C37.2672 103.435 37.5695 103.922 37.8888 104.345C38.14 104.673 38.1954 105.104 38.5062 105.349C38.7872 105.574 39.0852 105.949 39.4003 106.22C39.8601 106.617 40.1071 107.143 40.5839 107.509C40.7628 107.647 41.146 107.979 41.1885 108.208C41.0267 108.268 40.8139 108.134 40.6691 108.039C40.4945 107.923 40.4434 107.901 40.2476 107.854C39.9921 107.794 39.775 107.746 39.5195 107.725C39.379 107.712 39.1321 107.544 39.0427 107.643C39.0725 107.82 39.2045 107.906 39.3066 108.035C39.477 108.264 39.5834 108.531 39.7111 108.781C39.9921 109.328 40.3072 109.837 40.6223 110.363C40.9586 110.932 41.461 111.32 41.7889 111.889C41.9805 112.221 42.2317 112.544 42.4743 112.837C42.6234 113.023 42.7681 113.169 42.9171 113.346C43.1598 113.639 43.5302 113.838 43.79 114.131C43.658 114.45 43.4834 114.484 43.2407 114.674C43.096 114.79 42.9895 114.941 42.8448 115.053C42.7 115.17 42.5041 115.234 42.3679 115.364C42.2402 115.489 42.2019 115.657 41.9932 115.627C41.7846 116.01 42.4573 116.713 42.6489 116.997C43.13 117.709 43.5388 118.467 43.9432 119.222C44.2157 119.726 44.4286 120.256 44.7905 120.709C45.0715 121.058 45.3142 121.287 45.4973 121.696C45.6761 122.089 45.9401 122.433 46.1572 122.804C46.3744 123.171 46.6766 123.378 46.9193 123.701C47.0045 123.817 47.0513 123.964 47.1194 124.093C47.2387 124.309 47.4303 124.455 47.558 124.649C47.6304 124.761 47.6559 124.891 47.7198 125.007C47.8688 125.287 48.1115 125.499 48.2648 125.774C48.0689 125.736 47.8645 125.589 47.6729 125.52C47.2855 125.382 46.8853 125.326 46.4808 125.253C46.8768 125.309 47.4728 125.421 47.8092 125.645C47.9837 125.761 48.1413 125.994 48.286 126.171C48.7884 126.787 49.1291 127.486 49.5931 128.12C49.8443 128.464 50.0743 128.887 50.2659 129.271C50.483 129.71 50.7427 130.111 50.9471 130.559C51.0918 130.874 51.2877 131.141 51.4537 131.443C51.6198 131.741 51.6879 132.051 51.8327 132.353C52.0115 132.728 52.4075 133.043 52.3691 133.508C52.1861 133.586 52.0243 133.435 51.854 133.387C51.6326 133.318 51.4154 133.34 51.1983 133.288C50.9726 133.232 50.5043 132.84 50.3042 133.116C50.4489 133.711 50.7427 134.34 50.9854 134.905C51.1727 135.34 51.3388 135.789 51.5687 136.202C51.9519 136.892 52.2712 137.616 52.5394 138.354C52.697 138.789 52.8119 139.22 53.0248 139.634C53.1994 139.974 53.408 140.298 53.4932 140.681C53.0418 140.694 52.5394 140.44 52.1179 140.289C51.6879 140.13 51.2579 139.97 50.8236 139.819C50.2318 139.617 49.6059 139.306 49.078 138.957C48.0136 138.25 47.0173 137.461 46.0082 136.672C45.5867 136.34 45.195 135.991 44.7564 135.681C44.3179 135.37 43.9262 134.965 43.4579 134.702C42.5978 134.215 41.6867 133.724 40.9075 133.103C40.4392 132.728 40.0688 132.215 39.6089 131.823C39.1959 131.469 38.8426 130.991 38.5701 130.525C38.2295 129.939 37.9442 129.391 37.5355 128.848C37.0288 128.18 36.8117 127.313 36.3987 126.585C35.9133 125.727 35.5344 124.895 35.198 123.964C34.9894 123.386 34.7041 122.843 34.4912 122.265C34.3124 121.778 34.1677 121.304 33.9292 120.838C33.6184 120.235 33.4226 119.584 33.1756 118.95C32.9585 118.398 32.6903 117.911 32.5583 117.329C32.3198 116.299 32.1495 115.217 32.009 114.174C31.9366 113.626 31.7791 113.126 31.6642 112.592C31.4811 111.768 31.3406 110.949 31.1277 110.13C30.9361 109.384 30.9106 108.617 30.7615 107.863C30.5785 106.927 30.7104 105.819 30.8382 104.884C30.8935 104.483 31.0511 104.121 31.0766 103.711C31.1021 103.289 31.2299 102.978 31.3874 102.59C31.5535 102.194 31.7067 101.922 31.7834 101.797C32.1666 101.133 32.3156 100.426 32.5242 99.4736C33.0351 97.1199 33.2948 95.943 33.4694 95.8999V95.9085Z" fill="#DDDDDD"/>
<path d="M129.782 81.0042C129.816 80.953 129.842 80.9018 129.863 80.8506C129.85 80.8634 129.838 80.8762 129.825 80.8933C129.808 80.9317 129.795 80.9658 129.782 81.0085V81.0042Z" fill="#51332E"/>
<path d="M112.084 9.36229C112.032 9.32388 111.985 9.27694 111.934 9.23853C111.977 9.2812 112.019 9.32388 112.062 9.36656C112.066 9.36656 112.075 9.36656 112.084 9.36656V9.36229Z" fill="#51332E"/>
<path d="M111.602 8.94482C111.708 9.04397 111.823 9.13881 111.934 9.23365C111.836 9.13881 111.725 9.04397 111.602 8.94482Z" fill="#51332E"/>
<path d="M140.592 43.5188C139.553 41.1047 138.514 38.6863 137.476 36.2722C136.777 34.647 136.066 33.0045 135.01 31.5905C133.661 29.7886 131.706 29.0859 129.71 28.2755C129.761 28.1418 129.816 28.0125 129.867 27.8789C129.412 27.8358 128.952 27.7926 128.496 27.7495C128.764 26.6804 129.033 25.6113 129.301 24.5422C128.828 24.5422 127.777 23.7749 127.351 23.5637C126.321 23.0507 125.29 22.542 124.26 22.029C122.561 20.0977 120.862 18.1707 119.163 16.2395C116.903 14.9462 114.931 13.1442 113.424 11.006L113.169 12.3252C112.5 10.9241 111.695 9.39806 110.248 8.88507C109.596 8.65228 108.885 8.6609 108.204 8.54019C107.306 8.38069 106.467 7.99271 105.641 7.60904C103.93 6.81584 102.218 6.02694 100.502 5.23374C100.417 4.89749 100.332 4.56124 100.247 4.22499C98.105 3.35419 95.7293 2.66875 93.6771 1.65138C93.2683 1.44877 92.7489 1.58241 92.3487 1.37549C91.5738 0.974573 92.2124 0.728852 91.1054 0.608147C89.1597 0.396913 86.835 0.970262 84.8765 1.13408C80.7253 1.48326 76.5741 1.83244 72.4271 2.18162C72.6485 1.92297 72.8742 1.66432 73.0956 1.40566C71.0136 1.92728 68.9358 2.4489 66.8539 2.97052C66.9816 2.78946 67.1093 2.6084 67.2413 2.42734C64.7165 2.58254 62.1875 2.73773 59.6627 2.89292C53.0378 3.73786 46.4128 4.57848 39.7879 5.42342C40.0732 5.38893 40.3883 5.44066 40.6735 5.45359C38.7235 6.31577 36.6756 7.02707 34.683 7.80734C35.4026 8.25567 36.3435 8.30741 37.1056 7.94529C35.2961 9.16096 33.4909 10.3766 31.6814 11.5923C32.1242 11.588 32.5712 11.5794 33.014 11.5751C32.4861 12.4976 31.3535 12.8942 30.3061 12.9114C29.2588 12.9287 28.2241 12.6485 27.1768 12.5579C22.7999 12.1743 21.0841 17.0715 19.381 20.2443C19.7557 20.3736 20.1303 20.5072 20.505 20.6366C17.5672 22.4859 15.1659 25.1716 13.6715 28.3315C13.9951 28.5083 14.3144 28.685 14.638 28.8617C14.3186 29.323 13.9993 29.7886 13.6843 30.2499C13.9057 30.2412 14.1228 30.2326 14.3442 30.224C13.5182 30.9267 12.7731 31.7026 11.9642 32.4139C11.1552 33.1252 10.227 33.8624 9.42234 34.647C7.7874 36.2506 6.36535 38.1517 5.1136 40.0701C4.57287 42.8808 3.81075 45.6484 2.84001 48.3384C2.35463 49.6834 1.81391 51.0068 1.22636 52.3087C0.945351 52.9338 0.591966 53.5459 0.387598 54.1969C0.217292 54.7401 0.281157 55.5677 0.00866699 56.0592C0.0853048 55.9212 0.183231 55.7617 0.268384 55.6281C0.247096 56.4687 0.285415 57.2274 0.396114 58.0422C0.591966 59.551 0.834652 59.1156 1.63083 60.0769C4.12156 63.0989 5.62026 66.9313 7.22113 70.4877C9.0945 74.6521 10.9721 78.8121 12.8455 82.9764L12.1302 79.1225C17.3288 85.4379 23.562 90.8826 30.4935 95.1633C26.0996 107.143 29.7101 120.925 36.7863 131.504C43.8668 142.083 54.0213 150.084 64.0055 157.904C60.0033 152.916 56.0053 147.929 52.0032 142.937C62.4642 146.64 70.971 155.593 74.2238 166.323C75.2542 160.667 76.2803 155.011 77.3106 149.351C75.9482 151.071 74.5857 152.791 73.2233 154.511C73.07 143.066 65.9895 132 55.7371 127.176C63.8479 131.655 69.3105 140.682 69.566 150.032C62.5366 145.553 55.5115 141.079 48.4821 136.6C35.8241 128.534 29.4972 111.519 33.7634 97.0041C36.8374 99.569 39.0045 103.229 39.7922 107.186C39.2259 104.634 38.6597 102.087 38.0891 99.5346C38.7959 100.354 39.4729 101.328 40.2903 102.013C40.7715 101.552 41.1376 100.918 41.5251 100.358C41.4697 100.552 41.4144 100.75 41.3633 100.944C41.5165 100.392 42.7129 99.5432 43.0408 98.9267C43.5176 98.0257 43.7944 97.0127 43.8285 95.991C43.8923 93.9563 43.2324 91.8698 43.1217 89.8264C43.0621 88.7444 42.73 85.8604 44.0967 85.2827C46.1191 84.4292 50.7557 91.1499 53.5231 95.4952C53.5146 95.547 53.5018 95.6203 53.4933 95.7108C52.9356 101.888 62.0512 107.919 68.9742 110.148C74.573 111.95 79.4352 111.502 82.1218 111.023C87.9803 109.98 92.0762 107.286 94.0858 105.755C95.2865 105.048 95.2226 104.16 96.7085 102.061C96.815 101.91 96.9129 101.781 97.0066 101.656C98.1348 100.548 98.6458 99.6337 98.6458 99.6337C99.4845 98.2413 99.6463 96.6549 99.7315 95.6763C99.6335 95.4177 98.5862 92.5121 100.315 90.0463C101.324 88.6108 102.742 88.0848 103.287 87.9167C103.772 88.7487 104.773 90.7058 104.773 93.3915C104.773 95.991 103.844 97.9007 103.367 98.7414C104.002 98.0775 104.913 96.961 105.599 95.3573C106.352 93.5898 106.493 92.0077 106.505 91.0507C106.833 91.6025 107.225 92.4043 107.442 93.426C108.128 96.6764 106.454 99.5087 106.714 99.6208C106.884 99.6941 107.655 98.4698 108.243 97.0299C108.988 95.1935 109.209 93.5467 109.273 92.4302L110.205 95.4952C111.751 99.8148 112.198 104.548 112.177 109.122C112.177 112.61 111.589 116.088 110.482 119.386C110.286 119.968 110.078 120.546 109.848 121.115C109.132 122.869 108.315 124.65 106.969 126.012C108.647 120.671 109.95 115.015 109.652 109.394C109.584 108.079 109.422 106.768 109.162 105.462C108.702 106.41 108.604 107.462 108.566 108.531C108.532 109.527 108.553 110.54 108.387 111.502C108.362 111.864 108.328 112.23 108.289 112.588C107.821 115.118 107.412 117.817 106.723 120.615C106.39 121.831 106.037 123.038 105.662 124.236C104.951 126.301 104.015 128.405 102.733 130.526C102.146 131.496 101.486 132.47 100.736 133.444C99.9273 134.431 99.0971 135.401 98.2455 136.354C97.3557 137.289 96.7468 137.962 96.3594 138.419C91.8846 143.204 87.1032 147.709 82.9946 152.834C79.482 157.361 76.0206 162.172 74.5602 167.828C74.4793 168.293 74.2324 169.03 74.3133 169.556C81.4533 156.779 87.4396 152.778 92.8043 147.286C92.8553 147.23 92.9064 147.183 92.9533 147.135C94.9161 145.092 96.9001 143.07 98.8842 141.061C101.243 138.695 103.41 136.134 105.845 133.845C104.479 138.083 101.928 141.777 99.889 145.691C99.2589 146.967 98.3988 148.205 98.0752 149.601C101.52 145.14 107.617 136.88 111.776 129.219C112.177 128.482 112.56 127.754 112.917 127.034C113.1 126.603 113.279 126.172 113.454 125.736C115.059 121.749 116.328 117.627 116.856 113.334C117.218 110.407 117.06 107.385 116.579 104.483C116.072 101.414 114.591 98.6077 114.016 95.6418C114.11 96.116 117.771 96.4393 118.261 96.4523C119.734 96.4824 121.139 96.1074 122.425 95.3961C121.79 94.4822 121.156 93.5683 120.526 92.6544C121.914 90.3998 123.306 88.1409 124.694 85.8863L124.217 86.6062C128.441 82.7221 131.391 77.5878 133.456 72.2035C135.521 66.8192 136.752 61.1503 137.974 55.5074L138.872 56.7403C138.991 54.6754 139.115 52.6062 139.234 50.5412C139.145 50.067 140.03 49.8817 140.132 50.3516C139.626 48.1832 139.839 45.8467 140.72 43.8076C140.677 43.7128 140.639 43.6179 140.596 43.5231L140.592 43.5188ZM122.097 88.3305C122.059 88.4426 122.025 88.5633 121.986 88.6797H121.893C121.969 88.5676 122.037 88.4512 122.097 88.3305Z" fill="#51332E"/>
<path d="M53.0972 95.4131C53.0972 95.4131 53.8083 102.293 51.3388 108.018C51.3388 108.018 48.2009 114.946 53.8551 119.515C53.8551 119.515 59.3177 125.434 65.1166 120.959C65.1166 120.959 68.5866 116.968 66.7813 113.648C66.7813 113.648 69.0166 113.265 71.5329 108.837L53.0972 95.4131Z" fill="#3A2420"/>
<path d="M50.4788 87.9937C51.2238 95.9904 50.5511 101.633 49.755 105.379C49.4995 106.595 49.078 108.345 49.2228 110.738C49.5378 116.036 52.2627 119.726 53.4847 121.192C53.689 121.377 57.9467 125.089 62.7067 123.429C64.8611 122.679 66.1554 121.166 66.743 120.364C67.2837 119.588 67.9649 118.407 68.4163 116.855C69.0507 114.669 68.9187 112.786 68.7569 111.704C69.2763 111.389 69.8553 110.958 70.4088 110.367C72.3035 108.337 72.559 105.819 72.6058 104.841C71.3285 103.582 69.4764 101.767 67.2411 99.5727C61.1101 93.5676 59.5135 92.0459 56.8695 90.5543C54.349 89.1317 52.0456 88.3946 50.4788 87.9937Z" fill="#51332E"/>
<path d="M129.062 81.7766C129.097 81.7253 129.122 81.6741 129.144 81.6187C129.131 81.6315 129.118 81.6443 129.105 81.6613C129.088 81.6997 129.075 81.7381 129.062 81.7766Z" fill="#3A2420"/>
<path d="M111.219 10.0103C111.261 10.0529 111.304 10.0956 111.343 10.1383C111.351 10.1383 111.356 10.1383 111.364 10.1383C111.313 10.0999 111.266 10.0529 111.219 10.0145V10.0103Z" fill="#3A2420"/>
<path d="M111.218 10.0103C111.116 9.91543 111.01 9.82059 110.882 9.72144C110.989 9.82059 111.103 9.91543 111.218 10.0103Z" fill="#3A2420"/>
<path d="M88.5677 101.982C89.2021 102.077 89.0957 103.534 89.8706 103.953C90.4964 104.293 91.3693 103.776 91.6716 103.599C92.7913 102.939 92.7317 102.112 94.124 100.15C95.1628 98.6846 95.4822 98.745 95.5673 98.1027C95.7759 96.5809 94.0133 96.1326 94.1367 94.4643C94.2049 93.5762 94.9202 91.7139 94.967 91.3949C95.0053 91.1276 95.0308 90.8431 94.9968 90.5758C94.9712 90.3775 94.8137 90.2741 94.6604 90.1749C94.2347 89.8947 93.7323 89.705 93.2639 89.5154C92.9957 89.4076 92.7147 89.3041 92.4379 89.2222C92.1782 89.1446 91.9185 89.1058 91.646 89.0713C91.2671 89.0239 90.8882 88.9636 90.5092 88.9248C89.994 88.8774 89.4831 88.8946 88.968 88.886C88.4443 88.8774 87.9248 88.8386 87.3969 88.8687C87.1159 88.886 86.8349 88.9291 86.5496 88.9549C86.2303 88.9808 85.9109 88.9894 85.5959 89.0239C85.2382 89.0584 84.821 89.0972 84.5017 89.2826C84.3058 89.3947 84.1653 89.6663 84.0716 89.8559C83.8758 90.2525 83.7864 90.6922 83.6885 91.119C83.5778 91.5803 83.5522 92.0329 83.5437 92.5071C83.5352 92.9555 83.5181 93.4038 83.5139 93.8521C83.5139 94.0978 83.5054 94.3479 83.5267 94.5979C83.548 94.8652 83.5948 95.1368 83.6374 95.3997C83.7949 96.3999 84.11 97.3569 84.4463 98.3053C84.6422 98.8571 84.8636 99.3959 85.1914 99.8874C85.2936 100.043 85.3958 100.206 85.515 100.349C85.6512 100.512 85.8215 100.62 85.9706 100.767C86.0302 100.827 86.0855 100.888 86.1494 100.944C86.2516 101.038 86.375 101.103 86.4815 101.189C86.5922 101.275 86.6901 101.388 86.8008 101.478C86.8732 101.538 86.9626 101.59 87.035 101.655C87.1031 101.715 87.167 101.801 87.2266 101.87C87.2266 101.87 87.3543 102.008 87.5757 102.116C87.9248 102.289 88.2484 101.944 88.5762 101.995L88.5677 101.982Z" fill="#3A2725"/>
<path d="M72.3206 99.7669C73.1211 98.5814 74.0492 97.0424 74.7049 95.4388C74.7901 95.2275 74.9561 94.8051 75.1434 94.2878C75.2882 93.8912 75.6203 92.9428 76.0205 91.4684C76.3015 90.4338 76.6464 89.0198 76.9742 87.2739C77.4468 87.4593 78.1706 87.7007 79.086 87.8602C79.465 87.9249 79.6821 87.9421 79.8737 87.968C81.036 88.1361 82.6327 89.1104 82.8626 89.2526C84.5145 90.2743 84.4422 90.4554 86.0217 91.4469C87.5502 92.4082 87.8014 92.3478 88.2187 92.8565C88.7381 93.4859 89.215 94.6197 88.8361 96.8053L86.5454 101.319L82.3985 103.168L75.2158 103.578L71.1583 102.698L70.4771 100.599C71.0902 100.319 71.7033 100.038 72.3206 99.7583V99.7669Z" fill="#1C0E11"/>
<path d="M69.5487 104.043C69.5104 103.905 69.421 103.53 69.5828 103.125C69.851 102.44 70.5791 102.284 70.6685 102.267C71.4136 102.116 71.9586 102.599 72.0182 102.655C72.1204 102.509 72.5248 101.957 73.2529 101.815C73.9043 101.69 74.7303 101.909 75.1092 102.547C75.2881 102.853 75.3136 103.164 75.3093 103.345C75.3264 103.229 75.4286 102.504 76.0672 102.078C76.625 101.702 77.3956 101.677 77.9704 102.078C78.5579 102.487 78.6644 103.147 78.6814 103.267C78.6899 103.082 78.7368 102.573 79.1157 102.168C79.6564 101.59 80.6059 101.517 81.253 101.931C81.7299 102.237 81.9087 102.72 81.9641 102.901C81.947 102.746 81.9428 102.478 82.0662 102.194C82.3813 101.474 83.2243 101.353 83.3435 101.332C83.4244 101.314 84.1312 101.198 84.6038 101.681C84.7741 101.853 84.855 102.047 84.8976 102.185C84.8806 101.983 84.8891 101.681 85.0125 101.353C85.2552 100.724 85.8683 100.194 86.5794 100.142C86.9072 100.116 87.1754 100.202 87.3372 100.267C87.5288 100.401 87.8354 100.651 88.0823 101.064C88.44 101.668 88.4485 102.259 88.44 102.504C86.4857 103.211 84.0801 103.892 81.2956 104.289C76.5228 104.97 72.4482 104.569 69.5573 104.03L69.5487 104.043Z" fill="#F9F4F2"/>
<path d="M36.454 17.851C36.3902 18.0148 33.529 17.1484 33.2523 17.1182C31.9963 16.9716 30.6849 17.4329 29.6758 18.17C28.2155 19.2391 27.2277 20.8256 26.2782 22.3775L25.3075 24.4812L26.3463 24.77C23.6087 26.4858 21.3819 29.0206 20.0195 31.9735L21.0583 32.396L19.9812 33.7712L20.8455 33.8401C17.8183 35.4352 15.4766 38.1467 13.7565 41.1299C12.0364 44.113 10.8911 47.3979 9.75852 50.6569C8.97511 52.9072 8.17893 55.2092 8.18745 57.5975C8.20022 60.8005 9.68614 63.4948 11.9682 65.6028L11.8788 64.7579C13.7522 70.9138 18.806 80.2728 18.4654 79.1951C18.4058 79.3115 18.5463 79.471 18.6655 79.4235C18.7848 79.3761 18.7805 79.1606 18.657 79.1175C19.9854 79.5744 20.7135 81.8463 22.1142 82.4756C22.6166 82.6998 23.1744 82.7128 23.6768 82.9843C24.3836 83.3637 24.886 84.0922 25.6864 84.2948C26.0228 83.6267 25.8056 82.6783 26.2016 82.0747C26.4996 81.6178 27.0148 81.579 27.4108 81.2384C27.9813 80.7427 29.6205 78.7252 29.4204 78.2467C29.7269 78.0915 28.1431 74.2677 28.2836 73.1727C28.6072 70.5862 29.9057 73.2719 30.7019 71.1682C32.1453 73.509 33.0692 68.8144 33.0394 68.2325C32.9031 65.4131 31.447 62.999 30.6679 60.2444C27.662 49.6741 26.0611 36.9785 31.5364 26.8393C32.4603 25.1278 33.5929 23.5975 34.3507 21.7998C34.8446 20.6273 35.8452 19.4719 36.4583 17.8467L36.454 17.851Z" fill="#BD8636"/>
<path d="M50.283 76.074C50.1765 76.074 50.0701 76.2378 49.9934 76.3025C49.623 76.6129 49.2228 76.8802 48.8567 77.1905C48.4905 77.5009 48.2308 77.7941 47.9668 78.1648C47.6815 78.5614 47.4005 78.9278 47.1834 79.3632C46.8428 80.0357 46.698 80.7039 46.6895 81.454C46.681 82.0446 46.698 82.6007 46.8598 83.1741C47.0557 83.8638 47.358 84.5191 47.639 85.1743C47.92 85.8296 48.1925 86.4978 48.5842 87.0668C49.0482 87.7393 49.6699 88.1704 50.3979 88.5109C50.7258 88.6618 51.0068 88.7437 51.3644 88.7351C51.4964 88.7351 51.6071 88.7179 51.7348 88.7006C52.1691 88.636 52.548 88.8515 52.8376 89.1791C53.0419 89.4119 53.1526 89.7094 53.34 89.9465C53.5273 90.1836 53.7657 90.287 54.0595 90.3345C54.3533 90.3819 54.7024 90.4207 55.0175 90.4121C55.1622 90.4121 55.2559 90.3646 55.3879 90.3301C55.605 90.2698 55.8946 90.3129 56.0861 90.4207C56.2692 90.5241 56.4182 90.6707 56.6184 90.7397C56.8738 90.8302 57.1463 90.8475 57.4018 90.7569C57.6913 90.5629 57.9255 90.3129 58.1043 90.0111C58.3768 89.5973 58.6578 89.1878 58.9516 88.7868C59.4071 88.1876 59.8499 87.5927 60.2544 86.9547C60.5993 86.4115 60.9186 85.8727 61.1442 85.2648C61.3529 84.7044 61.4763 84.1311 61.5274 83.5362C61.5658 83.0922 61.6381 82.6136 61.4976 82.1826C61.3401 81.8334 61.1272 81.523 60.8547 81.26C60.5184 80.8419 60.1352 80.4711 59.7052 80.1478C59.0921 79.6995 58.4577 79.2899 57.7935 78.9192C57.2868 78.6174 56.7674 78.3329 56.2437 78.0613C55.0856 77.4492 53.8764 76.9793 52.6715 76.4749C51.6284 76.0395 50.5938 75.5438 49.5294 75.1687C49.7678 75.2506 48.7758 74.9575 48.7587 74.9058C48.6225 75.1472 48.5969 75.367 48.5969 75.6386C48.5969 75.811 48.5969 75.9878 48.5969 76.1602V76.3628C48.6055 76.4232 48.614 76.4275 48.6608 76.4706C48.8269 76.6258 49.0951 76.5741 49.2994 76.5741" fill="#150E0C"/>
<path d="M103.491 85.1443C103.64 85.1443 103.704 85.1142 103.819 85.2262C103.993 85.3944 104.1 85.8082 104.117 86.0453C104.091 86.0626 104.07 86.0539 104.057 86.0194C104.189 86.11 104.24 86.2738 104.33 86.3988C104.432 86.5368 104.534 86.6618 104.628 86.804C104.751 86.9937 104.883 87.1575 105.053 87.317C105.202 87.455 105.36 87.5671 105.488 87.7266C105.671 87.9594 105.824 88.2094 106.05 88.3948C106.344 88.6362 106.688 88.8215 106.948 89.106C106.757 88.9897 106.352 88.6534 106.292 88.4292C106.642 88.5844 106.952 88.8603 107.238 89.1104C107.45 89.2957 107.77 89.4811 107.915 89.7354C107.706 89.619 107.595 89.3949 107.412 89.2483C107.544 89.4639 107.761 89.6578 107.923 89.8475C108.042 89.9855 108.136 90.145 108.268 90.2614C108.481 90.451 108.677 90.645 108.856 90.8735C109 91.0546 109.085 91.3434 109.256 91.4857C109.277 91.2486 109.068 90.9468 109.009 90.714C109.107 90.7356 109.294 90.9037 109.192 91.0071C109.669 91.4684 110.324 92.0806 110.835 92.503C110.835 92.572 110.835 92.641 110.835 92.71C110.925 92.5936 110.976 92.4125 110.946 92.3134C110.899 92.4341 110.874 92.5591 110.861 92.6884C112.607 91.8736 114.352 91.0632 116.102 90.2614L115.872 90.7485C116.856 89.7354 117.835 88.7267 118.818 87.7136C118.708 87.4076 118.133 87.58 118.205 87.899C118.278 88.218 118.865 88.1232 118.84 87.7998C118.644 88.343 118.448 88.8862 118.256 89.4294C119.576 88.3689 120.594 86.9247 121.156 85.3168C121.062 85.5539 120.973 85.791 120.879 86.0281C121.215 85.1573 122.139 84.6529 122.706 83.9675C123.566 82.9328 124.272 81.7129 125.043 80.6093C126.848 78.0227 128.432 75.4534 129.501 72.4531C130.05 70.9098 130.472 69.3233 130.757 67.7111C131.4 64.0985 132.515 60.5809 133.58 57.0761L134.189 58.2142C134.295 56.5114 134.397 54.8043 134.504 53.1015C134.529 52.6962 134.725 52.1444 135.121 52.235C135.019 52.2091 135.411 46.855 135.283 46.1523C134.312 40.8714 132.575 35.8493 127.84 32.8532C127.031 32.3402 126.154 31.8919 125.546 31.1504C124.847 30.2968 124.588 29.1717 124.145 28.1586C123.447 26.5722 122.288 26.348 120.956 25.5333C119.359 24.5547 118.022 23.1968 116.809 21.7742C116.072 20.9077 115.485 19.9852 114.557 19.3213C113.518 18.5755 112.598 18.1617 111.866 17.0494C111.729 16.8425 111.602 16.614 111.444 16.4244C111.372 16.3338 111.006 15.8424 110.908 15.8467C110.827 16.2476 110.92 16.6528 110.84 17.0365C110.801 17.2089 110.716 17.4073 110.669 17.584C110.571 17.9375 110.388 18.2479 110.256 18.5884C109.877 19.5627 110.295 20.6447 110.005 21.6319C109.937 21.8647 109.98 21.994 109.954 22.2225C109.924 22.4682 109.779 22.714 109.669 22.9252C109.579 22.9855 109.55 23.0631 109.579 23.1623C109.686 23.2356 109.75 23.3347 109.771 23.4641C109.822 23.727 109.771 24.0848 109.741 24.3435C109.673 24.9082 109.673 25.46 109.677 26.029C109.677 26.3955 109.601 26.7446 109.588 27.1154C109.575 27.4861 109.601 27.8008 109.554 28.1543C109.46 28.8829 109.239 29.6028 109.013 30.2968C108.787 30.9909 108.443 31.5513 108.187 32.2066C107.978 32.7411 107.74 33.2153 107.634 33.7886C107.519 34.3922 107.165 34.9052 107.05 35.5001C106.957 35.9786 106.863 36.5045 106.705 36.9658C106.548 37.427 106.493 37.8495 106.454 38.3237C106.407 38.9703 106.224 39.604 106.203 40.2593C106.186 40.7421 106.271 41.2249 106.258 41.6991C106.25 42.0225 106.114 42.238 105.96 42.501C106.037 42.9622 106.075 44.152 106.126 44.7297C106.156 45.053 106.156 45.3332 106.207 45.6609C106.275 46.1178 106.369 46.5791 106.378 47.0446C106.39 47.7042 106.48 48.3508 106.463 49.0147C106.446 49.6786 106.237 50.3468 106.169 51.0236C106.135 51.3814 106.097 51.7177 106.024 52.0668C105.96 52.3815 105.867 52.6919 105.816 53.0066C105.764 53.3213 105.833 53.636 105.79 53.9464C105.752 54.2309 105.709 54.5284 105.658 54.8129C105.607 55.0974 105.483 55.3517 105.386 55.6233C105.245 56.0027 105.177 56.382 105.015 56.7571C104.794 57.2701 104.513 57.7831 104.411 58.3392C104.291 59.0117 104.415 59.8092 104.534 60.4731C104.679 61.2577 104.594 62.0423 104.755 62.8225C104.887 63.4692 104.973 64.0899 104.973 64.7452C104.973 65.2151 104.943 65.672 104.875 66.1376C104.811 66.5514 104.738 66.9653 104.687 67.3834C104.623 67.8663 104.496 68.293 104.355 68.7586C104.172 69.3708 103.998 69.9484 103.776 70.5433C103.644 70.8968 103.542 71.2676 103.393 71.6124C103.189 72.0909 102.908 72.5263 102.737 73.0178C102.614 73.3799 102.593 73.7765 102.478 74.1429C102.32 74.6689 102.141 75.1474 102.056 75.6905C102.001 76.0656 101.984 76.4363 101.992 76.8157C102.005 77.3416 102.137 77.8503 102.162 78.3762C102.197 79.053 102.252 79.6867 102.448 80.3334C102.593 80.8205 102.848 81.243 103.023 81.7129C103.095 81.9069 103.133 82.1051 103.235 82.2819C103.316 82.4198 103.406 82.5362 103.465 82.6914C103.542 82.8811 103.585 83.088 103.665 83.2777C103.746 83.4674 103.823 83.5321 103.814 83.7476C103.806 83.9933 103.691 84.1571 103.64 84.3813C103.606 84.5322 103.533 84.6486 103.495 84.7995C103.474 84.8771 103.461 85.0667 103.478 85.1357L103.491 85.1443Z" fill="#BD8636"/>
<path d="M68.0714 8.5093C69.949 7.61263 73.0102 7.31087 74.2535 7.03066C74.0448 7.2031 73.832 7.37553 73.6233 7.55228C76.7527 7.47468 79.8778 7.28069 82.9944 6.97462C85.5235 6.72459 89.2149 5.44856 91.6545 6.22452C91.5098 6.18141 91.4544 6.47455 91.4544 6.55215C91.4629 6.81511 91.7439 6.78925 91.9227 6.88409C93.7237 7.85404 95.8653 8.30668 97.7302 9.2637C98.4412 9.63013 99.1395 10.0138 99.842 10.3975C101.792 11.4666 106.139 15.1955 108.234 13.3806C108.2 13.234 108.115 13.1306 107.974 13.0659C108.383 14.2471 109.69 15.0834 110.409 16.0749C111.478 17.5492 112.159 19.3167 112.317 21.1402C112.457 22.7654 112.206 24.3993 111.955 26.0115C111.244 30.5725 110.537 35.1377 109.826 39.6986C109.098 44.3759 108.37 49.0533 107.642 53.7306C107.284 56.0283 106.812 58.3432 106.565 60.6582C106.492 61.3393 106.68 61.9859 106.705 62.6584C106.731 63.2921 106.556 63.9129 106.403 64.5337C106.054 65.9778 105.603 67.3918 105.058 68.7713C103.968 71.5303 102.499 74.134 100.702 76.4835C100.476 76.7766 100.204 77.0913 99.8377 77.1129C99.4035 77.1431 99.0628 76.7508 98.8031 76.3973C96.7254 73.6038 94.6519 70.806 92.5742 68.0126C90.6753 65.4605 88.7593 62.8697 87.5501 59.9167C87.0605 58.7183 86.6901 57.4638 86.1238 56.2999C85.2808 54.5583 83.9567 53.6832 82.5431 52.4761C80.789 50.9802 79.0561 49.4585 77.3871 47.8678C75.1348 45.7209 72.9804 43.4275 71.3923 40.7419C70.1278 38.5993 69.2337 36.1895 69.0421 33.6892C68.9484 32.4994 68.8122 31.6157 68.4971 30.469C68.1352 29.1499 67.6882 27.8609 67.1475 26.6064C66.6621 25.4813 66.1001 24.3432 66.0617 23.1146C66.0149 21.5885 66.6961 20.084 66.9133 18.5882C67.19 16.7086 67.1432 14.7773 66.7728 12.9107C66.5769 11.9192 66.2917 10.8889 66.5684 9.91896C66.7387 9.32406 67.305 8.86279 68.0671 8.50067L68.0714 8.5093Z" fill="#BD8636"/>
<path d="M118.38 44.6953C118.695 45.135 118.725 45.967 118.806 46.4541C119.112 48.3251 119.385 50.2046 119.764 52.0626C120.628 51.8384 121.497 51.6143 122.361 51.3901C121.824 51.8471 121.565 52.6144 121.722 53.3085C121.539 52.4894 115.706 53.4723 116.579 56.3692C117.413 56.1924 118.244 56.0114 119.082 55.8433C117.073 56.796 117.111 59.2015 117.895 61.1327C118.495 62.62 119.687 63.84 121.139 64.4823C120.385 64.1848 119.627 63.8874 118.874 63.5899C119.355 64.6461 119.836 65.7066 120.317 66.7628C119.696 66.392 119.078 66.0213 118.457 65.6549C118.887 65.8833 118.405 67.5042 118.09 67.668C117.737 67.8534 116.851 67.4956 116.447 67.4784C115.719 67.4525 115.987 67.0947 115.182 67.6465C114.182 68.3276 113.411 69.6597 112.709 70.6339C111.695 72.035 110.878 73.5826 110.29 75.2164C111.589 74.5267 112.888 73.8412 114.186 73.1515L115.689 70.9314L115.446 72.7635C116.455 72.2031 117.46 71.6384 118.469 71.078C116.954 73.0351 115.438 74.9879 113.926 76.9451L115.357 76.1088C114.305 77.221 113.254 78.3289 112.206 79.4411L115.378 78.2772L114.19 79.6178L120.807 77.1175C119.704 78.3375 118.601 79.5575 117.499 80.7818L118.491 80.7257C114.961 82.9415 110.844 84.1917 106.693 84.2995C105.535 84.3297 104.215 84.1917 103.521 83.2562C102.857 82.3596 103.044 81.1094 103.15 79.9929C103.257 78.8764 103.121 77.5271 102.15 76.9839C101.984 77.1391 101.818 77.2943 101.652 77.4538C102.571 74.1215 104.002 70.9314 105.879 68.0345L106.135 69.345C106.799 67.0645 107.468 64.7884 108.132 62.5079C108.792 60.2576 109.447 58.003 110.316 55.826C111.534 52.7696 113.164 49.8813 115.14 47.2646C115.578 46.6869 116.937 44.4927 117.75 44.4065C118.044 44.3763 118.244 44.497 118.388 44.6953H118.38Z" fill="#946930"/>
<path d="M36.5775 18.0364C37.0075 17.2691 37.2715 16.8164 37.8462 16.2603C37.5738 16.3422 36.7946 16.9888 36.5562 16.6009C36.3178 16.2129 37.3353 15.6611 37.5269 15.5361C38.8638 14.6653 40.2305 13.8419 41.5845 12.997L40.0602 13.4625L40.4349 13.1349C39.9793 13.0358 39.5195 12.9409 39.0639 12.8418C40.9756 12.1305 42.8873 11.4192 44.799 10.7079C44.4541 10.6993 44.105 10.6906 43.7601 10.682C46.302 10.2897 48.8565 9.97933 51.4111 9.67326C52.6927 9.51807 53.9742 9.36288 55.2558 9.20768C57.5209 8.93179 59.786 8.6602 62.051 8.3843C61.885 8.39292 61.7189 8.40155 61.5529 8.41448C62.8855 8.33688 64.2182 8.25929 65.5508 8.17738C66.2022 8.13858 66.9175 8.18169 67.5562 8.06099C68.016 7.97477 68.429 7.66869 68.8973 7.65576C69.0464 7.83251 68.5397 8.4619 68.4503 8.6214C68.2161 9.03956 68.0075 9.46634 67.7691 9.88018C67.8116 9.97502 67.9436 9.94054 68.016 10.0138C68.1267 10.1302 68.016 10.3889 67.9692 10.5268C67.901 10.7294 67.5775 11.1131 67.8457 11.2683C67.9223 11.3114 68.0756 11.3157 68.1352 11.3847C68.2076 11.4666 68.165 11.5701 68.1437 11.6692C68.0756 11.9882 67.9096 12.2555 67.8542 12.5788C67.7903 12.9582 67.8159 13.3375 67.7818 13.7169C67.7435 14.1609 67.7307 14.5403 67.7903 14.9886C67.9181 15.9068 68.0586 16.8509 68.0969 17.7821C68.148 19.0365 68.1054 20.2953 68.1054 21.5498C68.1054 21.9895 68.4332 22.6491 68.5737 23.0629C68.6546 23.1534 68.6674 23.244 68.6078 23.3345C68.5993 23.494 68.6078 23.6449 68.6248 23.8044C68.6802 24.257 68.8292 24.645 68.8462 25.1063C68.8675 25.6667 68.9825 26.2012 69.0293 26.7573C69.0549 27.0462 69.0932 27.3264 69.1528 27.6109C69.2124 27.904 69.3316 28.1799 69.3912 28.4731C69.4508 28.7576 69.4593 29.0464 69.5317 29.3266C69.5998 29.5982 69.702 29.8612 69.7659 30.1328C69.8553 30.5035 69.8383 30.8958 69.8936 31.2708C69.949 31.6286 70.0341 31.9692 70.1448 32.3184C70.3364 32.909 70.4641 33.5211 70.643 34.116C70.7664 34.5385 70.8473 34.9782 70.9495 35.405C71.0432 35.8016 71.1581 36.1896 71.1965 36.5991C71.2603 37.2975 71.5456 38.0648 71.7287 38.7416C71.882 39.2977 72.0437 39.8581 72.2566 40.3927C72.478 40.9531 72.8101 41.4661 72.9889 42.0481C73.0741 42.3326 73.1039 42.6171 73.1209 42.9103C73.138 43.2206 73.1805 43.5397 73.1635 43.85C73.138 44.2251 73.1635 44.5484 73.287 44.9062C73.3125 44.9795 73.3338 45.07 73.3892 45.1304C73.4403 45.1864 73.5467 45.1993 73.6063 45.2554C73.832 45.4796 73.5211 45.8848 73.3849 46.0701C73.2401 46.2684 73.0911 46.4581 72.9378 46.6478C72.8527 46.7556 72.6696 46.872 72.6356 47.0099C72.7037 47.0315 72.759 47.066 72.8101 47.1177C72.742 47.2599 72.7377 47.4281 72.6824 47.5746C72.6228 47.7298 72.5291 47.8764 72.4354 48.0144C72.0906 48.523 71.6904 49.0145 71.2944 49.4801C70.4684 50.45 69.5956 51.3725 68.8462 52.4115C68.429 52.9891 67.9479 53.5151 67.5434 54.1013C67.3305 54.4074 67.156 54.735 66.9601 55.0497C66.777 55.3429 66.5641 55.6102 66.3725 55.899C65.802 56.7525 65.3422 57.688 64.7206 58.5114C64.4353 58.8864 64.15 59.2572 63.8605 59.6322C63.6689 59.8823 63.5114 60.115 63.2091 60.2357C62.894 60.641 62.5066 61.0419 62.1702 61.4299C62.0979 61.4816 62.0255 61.529 61.9531 61.5807C61.8254 61.6842 61.7615 61.7747 61.7785 61.9429C61.7913 62.0808 61.8594 62.1886 61.8424 62.3265C61.7743 62.8826 61.0462 63.3784 60.6417 63.6672C60.1478 64.0164 59.6199 64.3526 59.0749 64.6199C58.8748 64.7148 58.8833 64.6846 58.8067 64.8613C58.6364 65.245 58.3383 65.5425 58.0446 65.8399C57.4102 66.4865 56.6821 67.0254 56.0264 67.6462C55.4261 68.2109 54.8258 68.7886 54.234 69.3619C53.821 69.7628 53.4846 70.1767 53.2036 70.681C52.8587 71.3018 52.6459 71.9614 52.1945 72.5261C51.9178 72.8753 51.5942 73.1771 51.3515 73.5564C51.1387 73.8927 50.9939 74.2505 50.8193 74.6083C50.7384 74.7764 50.6618 74.8842 50.6362 75.0609C50.6107 75.2549 50.5809 75.4532 50.5468 75.6472C50.5085 75.8541 50.4276 75.9921 50.351 76.1861C50.2147 76.5266 50.0955 76.8758 49.9678 77.2207C49.8316 77.5957 49.6272 78.0139 49.6485 78.4191C49.6612 78.6174 49.6612 78.7898 49.6485 78.9881C49.6272 79.2942 49.6783 79.596 49.6996 79.902C49.7251 80.2943 49.6996 80.6866 49.7081 81.0789C49.7123 81.4712 49.7847 81.8463 49.8358 82.2342C49.9082 82.7602 49.9508 83.2689 50.0828 83.7819C50.2105 84.2949 50.3808 84.7949 50.5128 85.3036C50.6533 85.8382 50.8619 86.3727 51.0705 86.8857C51.177 87.1444 51.2579 87.3987 51.3813 87.6487C51.4793 87.8427 51.607 88.054 51.6411 88.2738C51.4537 88.3643 50.9428 87.4935 50.8917 87.4073C50.7129 87.0883 50.517 86.8555 50.2531 86.6141C49.7677 86.1658 49.4313 85.6398 49.0226 85.1225C48.7544 84.7863 48.4861 84.4328 48.1583 84.1526C47.8432 83.881 47.5282 83.6224 47.2599 83.299C46.9278 82.8981 46.6979 82.3981 46.3828 81.9799C46.1444 81.6609 45.9145 81.3505 45.7187 81.0013C45.5271 80.6565 45.3738 80.2857 45.1779 79.9452C44.9778 79.6003 44.7564 79.2727 44.5648 78.9235C44.2753 78.4062 44.0241 77.8673 43.7601 77.3371C43.4876 76.781 43.1854 76.2335 42.9171 75.6774C42.2444 74.2677 41.6909 72.7977 41.0182 71.3837C40.5328 70.362 40.0134 69.3748 39.4684 68.3833C39.2002 67.8962 38.949 67.3961 38.6254 66.9392C37.6845 65.6157 37.0884 63.8655 36.62 62.3007C36.4497 61.7273 36.156 61.21 35.9601 60.6453C35.7855 60.1409 35.6876 59.615 35.5386 59.102C35.364 58.4941 35.1341 57.9036 35.0405 57.2742C34.9681 56.7827 34.917 56.2956 34.8233 55.8085C34.5934 54.5971 34.4231 53.3599 34.2613 52.1356C34.0995 50.9113 34.1463 49.6784 34.1378 48.4454C34.1378 47.7385 34.1378 47.0358 34.2102 46.3331C34.2911 45.5528 34.4529 44.7812 34.5551 44.0009C34.6445 43.3026 34.7254 42.6042 34.7765 41.9015C34.8276 41.2161 34.9383 40.5651 35.0532 39.8926C35.1299 39.4529 35.1214 39.0175 35.1469 38.5778C35.1724 38.0777 35.2619 37.5863 35.2874 37.0906C35.3044 36.7457 35.2789 36.4137 35.2533 36.0689C35.2278 35.6852 35.3257 35.3145 35.3768 34.9351C35.4875 34.0772 35.5599 33.1633 35.8068 32.3356C35.909 31.9908 36.0538 31.6588 36.1262 31.3096C36.1943 30.9863 36.173 30.6587 36.2198 30.3354C36.3178 29.6413 36.586 29.0249 36.8542 28.3825C36.884 28.3093 37.1608 27.779 37.0245 27.6281C36.8627 27.4514 36.3007 27.6712 36.1474 27.7144C35.7685 27.8178 35.3768 27.904 34.9894 27.9816C34.7807 28.0247 34.3763 28.0937 34.2102 27.8782C34.0953 27.7273 34.2017 27.46 34.2272 27.2876C34.3252 26.628 34.4486 25.99 34.653 25.3563C34.8361 24.7873 34.9936 24.27 35.0788 23.675C35.1086 23.4466 35.3087 22.9853 35.1384 22.8086C34.6232 22.8775 34.3975 23.2052 34.0953 23.6061C33.8739 23.8949 33.6695 24.2743 33.282 24.2743C33.1841 24.0889 33.1628 23.9941 33.2267 23.7828C33.3118 23.494 33.4523 23.2569 33.512 22.9594C33.5503 22.7741 33.563 22.5887 33.6056 22.4033C33.6525 22.2137 33.7461 22.0455 33.7887 21.8558C33.8398 21.636 33.8483 21.4161 33.9292 21.2006C34.0271 20.9419 34.1889 20.6617 34.3337 20.4246C34.8957 19.4978 36.058 18.9589 36.569 18.0407L36.5775 18.0364Z" fill="#BD8636"/>
<path d="M88.5038 22.585C89.5852 23.085 89.7555 24.1843 90.6113 24.8999C91.531 25.6802 93.1191 25.4905 94.2303 25.6026C96.6316 25.844 98.8967 27.2321 100.225 29.2712C100.728 30.0385 100.872 30.8619 101.571 31.5516C102.141 32.1207 103.044 32.7759 103.823 32.9354C104.04 32.3534 103.968 30.4049 104.551 30.1075C107.936 34.5606 107.467 40.6261 104.789 45.368C103.64 47.3985 102.064 49.1918 101.183 51.3559C101.852 50.9205 102.524 50.4894 103.193 50.054C102.341 52.5026 101.485 54.9512 100.634 57.3997L100.153 56.6022C100.021 56.6022 99.5737 58.1886 99.5439 58.4085C99.595 58.374 99.6205 58.3266 99.6759 58.2964C98.9606 60.0423 103.555 61.3399 103.946 62.8918C102.384 63.0686 99.6418 61.4649 98.6711 60.2837C97.8451 59.2793 97.6194 58.0291 96.3634 57.3997C95.5161 56.973 94.4858 56.9299 93.6045 57.2877C94.1792 57.0506 93.9876 53.5975 94.1281 52.9638C94.4645 51.4335 95.1457 49.9936 95.9972 48.6917C97.6407 46.1742 100.165 44.342 101.051 41.3373C101.426 40.0656 101.404 38.6172 100.71 37.492C100.068 36.4488 98.9393 35.8108 97.811 35.3538C95.4097 34.3796 92.7742 34.0218 90.2026 34.2977C88.2781 34.5046 87.0519 35.065 86.2472 36.8238C85.5192 38.4146 86.7879 40.0182 87.3627 41.3848C87.8481 42.5401 88.4399 44.036 88.474 45.312C88.5166 45.2603 88.5293 45.2128 88.5634 45.1439C88.5251 45.4025 88.5676 45.6784 88.5719 45.9371C88.6741 45.8897 88.9423 45.8336 89.0275 45.7819C87.9162 46.5966 87.7757 47.6571 87.4436 48.9331C87.1711 47.489 85.9662 46.4414 84.855 45.4931C82.3217 43.3376 79.865 41.0485 77.8894 38.3585C75.9139 35.6685 74.4237 32.5474 74.015 29.2237C73.7723 27.2364 73.9383 25.1844 74.5642 23.2833C75.2114 21.3089 76.3737 19.9898 77.6638 18.3818C77.3061 19.1707 76.9528 19.9596 76.5951 20.7485C79.3668 19.6061 82.4664 19.2914 85.4042 19.8605C84.9997 20.214 84.5952 20.5675 84.195 20.921C85.3148 20.921 86.5069 20.4468 87.6224 20.3002C88.8231 20.145 90.0493 20.1536 91.2585 20.1019C90.5091 21.0934 89.466 21.8004 88.5123 22.5806L88.5038 22.585Z" fill="#C7913A"/>
<path d="M50.1808 68.5471C48.8226 67.9781 47.4218 67.6289 45.9742 67.5039C45.8507 67.935 45.557 68.2411 45.3015 68.5946C44.9737 69.0472 44.8587 69.2886 44.7948 69.8577C44.731 70.4267 44.5394 70.8578 44.6458 71.4182C44.7523 71.9786 44.8161 72.5951 44.9737 73.1641C45.2674 74.2203 45.6804 75.229 45.9444 76.2938C46.2084 77.3586 46.7917 78.251 47.1962 79.2554C47.5197 80.0659 47.8348 80.8504 48.3244 81.579C48.5586 81.9282 48.8183 82.2601 49.0653 82.6007C49.3548 83.0016 49.6954 83.2645 50.0062 83.6353C50.3 83.9845 50.4405 84.4026 50.7769 84.7259C51.1132 85.0492 51.5432 85.351 51.9051 85.6657C52.267 85.9804 52.4927 86.2822 52.8205 86.6055C52.9525 86.7348 53.6508 87.3599 53.77 87.3814C53.4336 86.8814 53.1739 86.308 52.7907 85.8425C52.5438 85.545 52.3607 85.4027 52.1776 85.0536C51.7731 84.2992 51.5858 83.4844 51.3005 82.6869C51.0153 81.8894 50.7258 81.2212 50.5129 80.428C50.3128 79.6951 49.9636 78.945 49.6358 78.2639C49.4825 77.9492 49.3037 77.7293 49.2058 77.3845C49.061 76.8801 49.0951 76.3844 49.0227 75.8714C48.9035 75.0006 49.21 74.1211 49.0312 73.2374C48.8524 72.3537 48.8268 71.4829 49.1036 70.6422C49.2015 70.3448 49.4144 70.0258 49.6656 69.8447C50.2148 69.4567 50.4277 69.4783 50.185 68.5342L50.1808 68.5471Z" fill="#28140C"/>
<path d="M55.6092 17.1835L54.5065 18.5802C54.4128 18.8173 54.2595 18.9897 54.0594 19.0975C53.8551 19.2484 53.6933 19.3648 53.5059 19.5588C53.1483 19.9252 52.9056 20.339 52.6033 20.7443C52.8077 20.9124 53.3612 20.2873 53.4804 20.4554C53.3143 20.7443 53.1568 20.9512 52.8928 21.1495C53.0461 21.1711 53.9317 20.7572 54.0168 21.0159C53.5911 21.5461 52.9567 21.9211 52.4245 22.3393C51.7305 22.8868 51.0705 23.5119 50.4276 24.124C49.8316 24.6887 49.359 25.344 48.814 25.9561C48.6011 26.1932 48.3797 26.4347 48.1541 26.6631C47.9965 26.8226 47.6857 27.1804 47.4515 27.2149C47.6006 27.1158 47.6942 26.9606 47.8177 26.8269C47.9795 26.6545 48.1541 26.495 48.3158 26.3226C48.1541 26.4605 48.0604 26.6631 47.9029 26.8097C47.7922 26.9132 47.69 27.0252 47.5835 27.133C47.3919 27.327 47.1492 27.4693 46.9406 27.6503C46.5958 27.9478 46.2977 28.297 45.9528 28.5901C45.195 29.2367 44.6287 30.0429 43.9432 30.7585C43.5856 31.1292 43.2322 31.487 42.8959 31.8793C42.8022 31.9914 42.5893 32.1466 42.568 32.2975C42.7681 32.0949 42.9044 31.8103 43.113 31.612C42.9129 31.9612 42.551 32.2414 42.3211 32.5389C42.2955 32.5691 42.2955 32.6467 42.2742 32.6811C42.2189 32.7803 42.0699 32.8665 41.9975 32.97C41.857 33.1683 41.7335 33.3709 41.5632 33.5476C41.4695 33.6468 41.2907 33.7502 41.2269 33.8839C41.2907 33.7546 41.4653 33.6597 41.4781 33.5175C41.2183 33.8106 41.0225 34.2288 40.7798 34.5478C40.354 35.1039 39.9453 35.7419 39.4429 36.2247C39.5323 36.0523 39.9197 35.4315 40.1752 35.4875C40.1497 35.6988 39.9751 35.966 39.8899 36.1471C39.6771 36.5997 39.4982 37.0653 39.2811 37.518C39.1023 37.8973 38.9107 38.2724 38.6723 38.6172C38.6254 38.6862 38.4253 38.8974 38.4381 38.975C38.8553 38.4189 39.3024 37.9447 39.8303 37.4964C40.4136 37.0007 40.8479 36.3885 41.4993 35.9574C41.8655 35.716 42.1848 35.4746 42.5169 35.1858C42.8703 34.8797 43.2663 34.6598 43.6622 34.4227C44.0582 34.1856 44.4584 33.9485 44.8544 33.6856C44.7692 33.858 44.5095 34.0865 44.3392 34.1555C44.484 34.0692 44.633 33.996 44.7777 33.9097C44.8671 33.8537 45.0076 33.7373 45.1183 33.7546C45.1269 33.8666 45.0119 33.9313 44.9566 34.0175C44.9012 34.1037 44.8884 34.2244 44.7948 34.2805C45.1694 34.2158 45.4802 33.9572 45.8634 33.9054C46.1955 33.8623 46.5021 33.7114 46.8214 33.6166C47.2003 33.5045 47.5963 33.4528 47.9837 33.3881C48.3542 33.3321 48.7246 33.2847 49.0907 33.22C49.3547 33.1769 49.6187 33.0777 49.8869 33.0691C50.185 33.0605 50.4617 33.0303 50.7555 32.9958C50.93 32.9743 51.2025 32.9398 51.3686 32.9958C51.2834 33.2286 51.0876 33.3709 50.9088 33.5261C50.8364 33.5907 50.6874 33.6726 50.7427 33.7847C50.8747 33.733 51.1812 33.5994 51.3047 33.6597C51.3473 34.0218 50.747 34.2762 50.6831 34.565C51.0578 34.5779 51.3473 34.2632 51.6922 34.1727C52.1903 34.0391 52.697 33.8623 53.1994 33.7546C53.7912 33.6295 54.3745 33.4614 54.962 33.2933C55.2941 33.1984 55.6305 33.1467 55.9669 33.0691C56.3671 32.9786 56.746 32.8191 57.1505 32.7501C57.4868 32.6898 57.8147 32.5863 58.1595 32.5604C58.5044 32.5346 58.8535 32.5001 59.1942 32.457C59.7306 32.3923 60.2543 32.3923 60.7993 32.3923C61.0377 32.3923 63.1665 32.5044 63.1921 32.3276C63.0644 32.3061 62.9196 32.319 62.877 32.1681C63.1665 31.9224 63.3326 31.6422 63.6775 31.4439C63.818 31.362 64.0521 31.3146 64.1714 31.2068C64.2735 31.1163 64.3629 30.9051 64.4609 30.8059C64.8398 30.4222 65.3763 30.2369 65.6743 29.7799C65.9127 29.4049 66.313 29.1678 66.5769 28.81C66.6663 28.6892 66.6749 28.5556 66.7643 28.4349C66.8537 28.3142 67.1134 28.1892 67.1517 28.0383C67.2369 27.715 66.76 27.896 66.5982 27.8572C66.1682 27.7495 66.462 27.2322 66.5897 26.9864C66.7685 26.6373 67.0112 26.245 67.0751 25.8527C67.1049 25.6716 67.0538 25.4906 67.0879 25.3138C67.156 24.9517 67.2496 24.6543 67.2454 24.2792C67.2454 23.8567 67.2496 23.4558 67.1815 23.0463C67.1219 22.6799 67.1347 22.3134 67.058 21.9427C66.9771 21.5461 66.909 21.1624 66.8111 20.7701C66.6365 20.0588 66.3853 19.3777 66.1128 18.7009C65.9638 18.3259 65.7765 17.9681 65.6743 17.5758C65.5806 17.2093 65.5721 16.8343 65.6147 16.4592C65.4061 16.2609 64.8654 16.9679 64.7461 17.0541C64.4481 17.2568 64.1245 17.412 63.7796 17.5197C63.6562 17.662 63.5455 17.6792 63.4518 17.5801C63.5625 17.3171 63.669 17.2007 63.8989 17.0369C63.6221 17.024 63.0431 17.4378 62.8344 17.5197C62.4385 17.6792 62.034 17.7913 61.621 17.8861C61.076 18.0155 60.5353 18.1189 59.9733 18.106C59.8498 17.9336 59.9052 17.7827 60.1394 17.662C60.2969 17.5025 60.4715 17.3645 60.6545 17.2395C61.0079 16.9938 61.3996 16.8257 61.6934 16.5067C61.3826 16.4248 60.9739 16.6791 60.6801 16.7955C60.4672 16.8774 60.2543 16.9378 60.0414 17.0153C59.5263 17.2093 59.0494 17.2697 58.4959 17.2697C57.9424 17.2697 57.3463 17.3645 56.8056 17.2697C56.2308 17.1705 55.8817 17.1533 55.6007 17.1835H55.6092Z" fill="#CC953D"/>
<path d="M57.1335 88.0677C54.8854 90.4689 54.0807 92.6545 53.7614 94.215C53.1866 97.0171 54.0083 98.6897 53.9956 103.022C53.9956 103.203 53.9956 103.38 53.9913 103.557C53.9445 105.971 53.4974 108.355 52.7438 110.648C52.2584 112.118 51.8838 114.308 52.9397 116.218C52.9993 116.321 53.0589 116.429 53.1142 116.533C53.4889 117.248 55.5326 120.757 59.7391 121.305C61.2549 121.503 62.7238 120.688 63.3794 119.292C63.5583 118.908 63.7626 118.188 64.1671 116.744C64.2012 116.627 64.3161 116.205 64.4864 115.632C64.5801 115.321 64.6525 115.071 64.7036 114.912C64.9462 114.502 65.2996 113.933 65.7595 113.278C67.1347 111.299 67.9564 110.7 68.2076 109.355C68.3098 108.807 68.165 107.7 68.3779 107.187C69.6467 104.156 69.14 103.583 69.8681 102.673C70.4855 101.897 70.0214 101.643 71.2305 100.793C71.8947 100.328 72.8229 99.4872 73.9853 97.0947C75.8118 93.3313 76.6676 88.9169 76.9571 87.2529C76.493 87.4555 75.7905 87.7789 74.9773 88.2574C73.6361 89.042 73.0869 89.5851 72.3162 90.0766C70.9708 90.9258 69.7148 91.1112 68.2289 91.331C66.8963 91.5293 63.9627 91.9216 60.7354 90.4947C59.1431 89.792 57.9594 88.8566 57.142 88.072L57.1335 88.0677Z" fill="#935763"/>
<path d="M61.3444 97.2838C60.4503 100.974 60.2714 103.871 60.2289 104.681C60.0969 107.19 60.165 110.833 61.157 115.152C61.0208 113.782 60.8718 111.842 60.8462 109.51C60.8249 107.66 60.859 103.444 61.7275 98.09C61.983 96.5122 62.3832 94.4128 63.0134 91.9556C62.4769 93.3394 61.8638 95.137 61.3401 97.2838H61.3444Z" fill="#61323A"/>
<path d="M61.5869 28.245C59.1813 27.9475 56.78 27.6544 54.3744 27.3569L56.1286 26.2663C53.4335 25.1497 49.6441 24.9514 47.9751 25.348C49.2822 25.7102 50.6064 25.9214 51.2323 27.0724C49.0481 26.8612 46.8596 26.6499 44.6755 26.4387L47.2769 27.8225C45.9528 28.0812 44.6286 28.3441 43.3002 28.6028L47.6388 29.8702C45.94 29.521 44.0922 29.9866 42.7553 31.1074C43.0576 30.8962 43.3854 30.6806 43.7558 30.672C44.1262 30.6634 44.5222 30.9651 44.4711 31.3359C44.4328 31.6118 44.1773 31.7971 43.9474 31.948L39.9878 34.5173C40.3284 34.5173 41.0011 33.9698 41.3077 33.8017C41.7292 33.5732 42.1422 33.3318 42.5807 33.1594C43.4705 32.8059 44.4072 32.586 45.3056 32.2498C43.6409 33.2327 42.3252 34.3578 41.3204 36.0908C40.2347 37.9617 39.298 39.6688 38.6509 41.7467C40.8393 38.4704 43.8878 35.7933 47.4004 34.0561L46.1742 38.0091C47.5792 37.2289 49.2737 37.009 50.8235 37.4013C52.3733 37.7936 53.7698 38.7937 54.6469 40.1473C54.6341 39.5956 54.9832 39.0912 55.4218 38.7679C55.8603 38.4445 56.3925 38.2807 56.912 38.1169C58.6746 37.5608 60.4373 37.009 62.2042 36.4529C61.076 36.2244 59.9477 36.0003 58.8237 35.7718C59.2622 35.3364 59.8881 35.1683 60.4884 35.0346C61.0887 34.901 61.7146 34.7717 62.1957 34.388C62.6768 34.0043 62.9536 33.2715 62.6257 32.7412C63.026 33.7284 63.4262 34.7113 63.8264 35.6985C64.6439 33.7241 66.5556 32.2541 68.6588 31.9954L67.6072 32.0687C67.4454 29.5382 67.7009 26.9819 68.3651 24.5376C66.1085 25.7748 63.8562 27.0077 61.5869 28.245Z" fill="#9D5E26"/>
<path d="M111.087 34.2325C111.397 35.2585 111.695 36.2543 111.921 37.2975C111.981 37.5734 112.074 37.8493 112.121 38.1295C112.138 38.2244 112.13 38.6339 112.219 38.6296C112.232 38.4787 112.168 37.2932 112.27 37.2674C112.411 37.5519 112.457 37.776 112.504 38.0821C112.526 38.2071 112.551 38.3709 112.624 38.4744C112.756 38.6641 112.819 38.7244 112.858 38.9659C112.888 39.1642 112.888 39.3107 112.998 39.4745C113.147 39.6944 113.143 39.8194 113.143 40.0781C113.147 40.4617 113.232 40.8325 113.228 41.2161C113.22 41.7464 113.326 42.2594 113.305 42.7939C113.424 42.6517 113.471 42.3758 113.518 42.1947C113.569 41.9964 113.594 41.4317 113.799 41.3498C113.833 41.7938 113.743 42.1688 113.607 42.587C113.535 42.8069 113.467 43.0267 113.398 43.2509C113.347 43.4061 113.224 43.6044 113.241 43.7682C113.492 43.7897 113.662 43.1603 113.696 42.9793C113.62 43.2983 113.535 43.6259 113.437 43.9363C113.356 44.1863 113.258 44.445 113.147 44.6864C113.096 44.7899 113.024 44.889 113.002 44.9968C113.083 44.9106 113.049 44.8632 113.088 44.7511C113.122 44.6476 113.198 44.5571 113.245 44.4579C113.245 44.6174 113.126 44.7812 113.075 44.9278C112.943 45.2942 112.751 45.5745 112.589 45.9236C112.47 46.1823 112.27 46.5573 112.343 46.8505C112.47 46.8807 112.555 46.691 112.649 46.6306C112.738 46.9108 112.551 47.2428 112.453 47.4971C112.313 47.8678 112.168 48.2774 112.096 48.6697C112.07 48.8162 112.104 48.9671 112.066 49.1094C111.993 49.381 111.772 49.6267 111.666 49.8853C111.299 50.7734 111.108 51.7132 110.754 52.6055C110.682 52.7909 110.716 52.9461 110.652 53.1315C110.554 53.416 110.316 53.6746 110.192 53.9505C110.12 54.1143 110.018 54.2954 109.975 54.4678C109.937 54.6144 109.975 54.5756 110.001 54.7092C110.026 54.8429 110.014 54.9506 109.984 55.0843C109.899 55.4981 109.703 55.8904 109.579 56.2956C109.528 56.4681 109.498 56.6578 109.409 56.813C109.111 57.3259 108.706 57.77 108.443 58.3088C108.03 59.1624 107.565 59.9685 107.293 60.8824C107.221 61.1195 107.169 61.3696 107.08 61.6024C107.029 61.7403 106.931 61.8696 106.888 62.0119C106.846 62.1541 106.769 62.374 106.791 62.512C106.791 62.2059 106.782 61.9084 106.744 61.6024C106.705 61.2963 106.573 60.9557 106.629 60.6626C106.527 60.848 106.612 61.154 106.48 61.2963C106.429 61.1842 106.501 61.0463 106.446 60.9471C106.433 61.0118 106.407 61.0635 106.361 61.1066L106.297 60.9816C106.037 60.4686 105.747 60.0418 105.628 59.4383C105.535 58.9641 105.483 58.5201 105.471 58.0416C105.458 57.563 105.394 57.1363 105.39 56.6793C105.39 56.7095 105.39 56.7397 105.39 56.7698C105.368 56.3776 105.445 55.9723 105.483 55.5843C105.518 55.2481 105.581 54.9075 105.641 54.5756C105.709 54.1876 105.935 53.8772 105.969 53.4634C105.999 53.1013 105.837 52.7176 105.884 52.3641C105.913 52.1529 106.041 51.9201 106.092 51.7045C106.258 50.9889 106.39 50.2388 106.331 49.5017C106.275 48.8378 106.216 48.1998 106.22 47.5273C106.224 46.4409 106.135 45.3675 106.139 44.2855C106.139 43.8027 106.05 43.3328 106.05 42.85C106.054 42.1775 106.037 41.5136 106.114 40.8454C106.241 39.7418 106.237 38.6339 106.339 37.526C106.39 36.9915 106.471 36.4612 106.531 35.931C106.548 35.7715 106.548 35.2412 106.684 35.1766C106.799 35.349 106.914 35.5128 106.969 35.7154C106.995 35.8146 106.982 35.9439 107.063 35.987C107.08 35.8663 107.055 35.4137 107.238 35.4007C107.399 35.5775 107.489 35.7327 107.604 35.9396C108.306 35.8017 108.715 35.03 109.226 34.5989C109.681 34.2109 110.495 33.8704 111.087 34.2325Z" fill="#9D5E26"/>
<path d="M110.759 28.1332C111.474 30.7154 112.266 33.5304 111.759 36.1989C111.551 37.2982 111.325 38.5699 111.683 39.6648C112.044 40.7727 112.683 42.6264 113.513 43.4369C112.93 42.7945 112.3 42.4195 111.597 41.9324C111.142 41.6134 110.218 40.5787 109.75 40.5572C109.707 41.2512 109.366 41.8418 109.443 42.5488C108.958 41.3633 108.528 39.7166 107.621 38.7596C107.45 39.3674 107.591 39.9968 107.374 40.5874C106.837 42.0531 107.527 43.3119 107.536 44.7646C107.544 46.0062 107.357 47.2563 107.374 48.528C107.391 49.8644 107.621 50.8904 107.208 52.2009C106.867 53.2916 106.488 54.3736 106.216 55.4643C105.671 57.6413 105.164 59.3829 105.517 61.6504C105.769 63.2541 105.684 64.931 105.641 66.5002C105.611 67.6986 105.266 69.0048 104.99 70.1644C104.802 70.9447 104.845 71.7551 104.547 72.5139C103.853 74.2813 101.903 74.9883 102.516 77.0317C102.759 77.8421 103.269 78.8207 103.768 79.4889C104.142 79.9976 104.832 80.4071 104.9 81.1055C104.998 82.0582 104.402 82.3772 105.036 83.3213C105.466 83.9636 106.16 84.2395 105.556 84.9723C104.687 86.0242 102.426 86.3691 101.222 86.2613C99.9399 86.1492 98.4327 85.8992 97.1427 86.2742C97.0618 84.7439 97.2363 83.0066 97.7515 81.5322C98.3348 79.8596 98.7989 77.9801 98.7819 76.191C98.7648 74.4926 98.7265 72.7122 98.884 70.9835C98.9649 70.0782 99.3864 67.0908 100.519 66.914C101.09 66.8235 100.889 67.2115 101.315 67.4529C101.69 67.6598 101.873 67.5305 102.256 67.5003C102.737 67.4615 102.55 67.1727 103.04 67.5003C103.24 67.6339 103.38 68.0348 103.491 68.2418C104.27 67.9874 104.244 65.0776 104.24 64.3232C104.232 62.6979 103.308 61.3314 103.67 59.6329C104.066 57.7965 104.832 56.0807 105.062 54.2055C105.317 52.1707 105.224 50.3688 104.981 48.3384C104.772 46.614 104.798 44.8681 104.836 43.1351C104.866 41.9108 104.564 40.1175 104.879 38.9492C104.806 39.2122 104.76 39.3717 104.806 39.6476C104.147 39.5959 103.989 36.5653 103.908 35.9575C103.691 34.3926 102.98 33.3709 102.346 31.9699C101.792 30.7499 101.622 29.1506 100.881 28.0427C100.383 27.2969 98.5775 25.8743 97.7345 26.6761C97.8154 25.8139 97.7685 24.8181 97.6408 23.943C97.5514 23.3309 97.0064 22.1195 97.3598 21.5893C98.156 22.3954 98.8798 20.5934 99.0927 20.0675C98.4157 19.8563 98.4583 18.5673 98.1006 17.925C97.611 17.0499 97.0405 16.6921 96.2273 16.1618C96.636 15.8299 97.0235 16.2481 97.5003 16.2696C96.5466 15.692 95.6397 15.2221 94.7456 14.528C95.5844 14.3901 96.6105 13.9245 97.4662 13.6227C98.9096 13.114 99.5057 12.4415 100.115 10.9888C100.31 12.1829 100.919 12.933 101.145 14.0495C101.439 13.4632 102.388 13.7736 102.763 14.1616C103.159 14.5754 102.98 14.8987 103.086 15.5109C103.214 16.2739 103.41 17.1232 103.555 17.8388C103.768 17.0973 104.585 16.9766 104.994 17.5586C105.403 18.1405 105.224 19.3303 105.296 19.9942C105.437 21.3047 105.679 22.7273 106.229 23.9171C107.063 25.7277 107.433 27.6418 108.183 29.4696C108.626 29.0816 108.694 28.2453 108.932 27.728C108.945 28.1246 108.924 28.5298 109.004 28.9178C109.537 27.978 109.992 26.5683 109.958 25.4648C110.069 26.3787 110.107 27.4952 110.324 28.3444C110.414 28.3531 110.673 28.1116 110.763 28.1203L110.759 28.1332Z" fill="#332315"/>
<path d="M67.2242 98.4088C67.6329 100.892 69.3871 102.315 69.8597 102.677C69.8597 102.677 71.0901 103.556 72.1503 101.737C72.6101 100.948 72.3121 99.922 71.5031 99.5081C71.2817 99.396 71.0561 99.271 70.8261 99.1288C68.9953 97.9993 67.9394 96.5077 67.3902 95.5723C67.2156 96.193 67.0241 97.2061 67.2199 98.4088H67.2242Z" fill="#F9F4F2"/>
<path d="M90.5135 96.6676C90.1516 99.155 88.423 100.616 87.9589 100.983C87.9589 100.983 86.7412 101.884 85.6512 100.086C85.1786 99.3059 85.4554 98.2756 86.2558 97.8488C86.4729 97.7324 86.6986 97.6031 86.9243 97.4565C88.7338 96.2926 89.7599 94.7795 90.2921 93.8311C90.4794 94.4475 90.688 95.4563 90.5135 96.6676Z" fill="#F9F4F2"/>
<path d="M69.438 103.678C71.3455 104.372 75.4243 105.182 80.4909 104.406C85.3361 103.665 88.6912 101.871 90.3218 100.673C90.556 100.845 90.854 101.117 91.1095 101.509C91.6673 102.358 91.68 103.234 91.6673 103.596C89.9897 104.936 86.1451 107.639 80.4952 108.51C74.7005 109.407 70.3577 107.98 68.3651 107.182C68.5524 106.777 68.5993 106.419 68.8122 105.971C69.2294 105.079 69.3784 104.255 69.4295 103.673L69.438 103.678Z" fill="#121212"/>
<path d="M37.4462 48.2776C38.0508 48.6052 38.5872 49.019 39.0556 49.5148C39.0215 49.5881 39.0343 49.6571 39.0896 49.7174C39.162 49.9114 39.3579 50.0494 39.4686 50.2175C39.6644 50.5192 39.8858 50.7951 40.0859 51.0969C40.1838 51.2478 40.286 51.4849 40.4138 51.6099C40.5841 51.7737 40.5074 51.7392 40.7331 51.5711C41.0524 51.3297 41.2993 51.5625 41.393 51.8729C41.4526 52.0668 41.5548 52.2479 41.5804 52.4548C41.6868 52.4721 41.7847 52.4505 41.8784 52.3859C42.053 52.4591 42.1466 52.5928 42.1679 52.7954C42.3042 53.1101 42.483 53.3946 42.649 53.6964C42.9173 54.1749 43.0109 54.7051 43.2664 55.1793C43.4324 55.4854 43.5559 55.8303 43.6922 56.1493C43.7858 56.3648 43.8625 56.5933 43.9604 56.8088C44.0285 56.9554 44.2967 57.1537 44.1818 57.3261C43.888 57.3563 43.722 57.2744 43.4622 57.1365C43.3217 57.0589 43.0876 56.8735 42.9556 57.033C43.1642 57.3348 43.5006 57.6107 43.773 57.865C43.9135 57.9986 44.1222 58.115 44.2244 58.2832C44.2925 58.3996 44.3308 58.5763 44.3776 58.7013C44.4287 58.8393 44.4756 58.9901 44.5394 59.1195C44.599 59.2402 44.7821 59.3221 44.6714 59.4773C44.599 59.5764 44.318 59.6325 44.2116 59.6842C44.0498 59.7575 43.773 59.8178 43.7007 59.9946C43.9817 60.2274 44.2627 60.2403 44.5863 60.3567C45.012 60.5076 44.748 60.7576 44.6288 61.0594C44.5905 61.1585 44.5735 61.2361 44.5011 61.3223C44.416 61.4258 44.3095 61.4344 44.2116 61.5034C44.1094 61.5767 43.9306 61.7017 43.888 61.8008C44.0157 61.8483 44.1648 61.8267 44.2967 61.8008C44.5139 61.7534 44.7012 61.7448 44.9184 61.7405C45.3824 61.7233 45.8252 61.6025 46.2936 61.6629C46.4767 61.6845 46.647 61.7276 46.83 61.7405C46.9791 61.7491 47.2345 61.6974 47.3239 61.8612C47.4602 62.1112 47.0216 62.1845 47.077 62.4001C47.2728 62.3699 47.4942 62.2319 47.6773 62.1587C47.9881 62.0336 48.2734 61.9733 48.597 61.8828C48.9546 61.7879 49.325 61.7707 49.6869 61.7233C49.9254 61.6931 50.1127 61.5982 50.3298 61.5077C50.547 61.4172 50.7854 61.3827 51.0068 61.2749C51.4666 61.0594 51.9265 60.7749 52.3437 60.4903C52.761 60.2058 53.2506 59.9515 53.6678 59.6368C53.8807 59.4773 54.3831 59.1841 54.3916 58.9039C54.3959 58.6884 54.2724 58.5203 54.0595 58.5203C53.8594 58.5677 53.6678 58.641 53.489 58.7444C53.4209 58.8436 53.34 58.8737 53.2463 58.8263C53.1825 58.5116 53.2846 58.2142 53.3017 57.8995C53.3187 57.5848 53.4507 57.2873 53.455 56.9813C53.4677 56.1967 52.6673 55.9122 52.0627 55.7096C51.6965 55.5888 51.5177 55.3905 51.4028 55.0241C51.275 54.6232 51.143 54.2309 50.9302 53.8645C50.7045 53.4722 50.4022 53.1446 50.2447 52.7221C50.0999 52.3427 49.8956 51.9979 49.7593 51.6056C49.4783 51.5668 49.3378 52.2738 49.2569 52.4893C49.0611 52.4548 49.2314 52.0194 49.1718 51.8815C49.0823 51.6832 48.8609 51.653 48.6779 51.5539C48.3671 51.3857 48.2393 51.1271 48.0307 50.8598C47.8434 50.627 47.5666 50.4848 47.341 50.2951C47.1536 50.1399 46.9705 49.9933 46.7704 49.8597C46.2553 49.5062 45.7869 49.1139 45.3058 48.713C44.9907 48.45 44.7097 48.1914 44.45 47.8723C44.2542 47.6309 44.0796 47.355 43.8412 47.1567C43.3345 46.7257 42.7427 46.3851 42.2147 45.9885C41.9295 45.7773 41.6314 45.5488 41.4186 45.2599C41.3206 45.1263 41.0396 44.54 40.8864 44.5142C41.0311 44.8418 41.2781 45.1522 41.3888 45.4884C41.227 45.6048 41.0737 45.4195 40.9289 45.3419C40.7203 45.2298 40.6394 45.1953 40.3797 45.191C39.9667 45.1823 39.3962 45.0789 39.0343 45.2858C39.0428 45.5143 39.1279 45.6479 39.294 45.8117C39.4004 45.9195 39.5793 45.9842 39.6133 46.1351C39.3919 46.3377 39.0896 46.4282 38.8767 46.6351C38.7618 46.7472 38.6894 46.9153 38.5787 47.036C38.4595 47.1697 38.3232 47.2904 38.1998 47.4197C37.9826 47.6439 37.7485 47.743 37.4973 47.9155C37.2035 48.1138 37.1652 48.3077 37.4589 48.2948L37.4462 48.2776Z" fill="#946930"/>
<path d="M128.654 36.9793C128.628 38.639 128.973 40.2125 129.292 41.8549C129.786 44.4156 130.28 49.455 133.597 49.7482C129.986 50.6276 130.71 54.2099 130.612 57.0853C130.514 60.021 129.377 62.8792 128.628 65.7028C127.742 69.0308 126.916 72.3847 125.958 75.6911C125.75 73.2555 123.689 70.2508 122.693 68.0177C122.493 68.2979 122.301 68.5868 122.084 68.8497C122.152 68.2548 122.42 64.9699 122.842 64.7587C122.484 64.9096 122.127 65.0648 121.773 65.2157C124.426 59.6374 125.486 53.296 124.788 47.1444C123.885 46.7047 123.429 45.5062 123.808 44.5665C123.195 45.0191 122.582 45.4718 121.965 45.9244C118.239 40.9238 116.259 34.6212 116.443 28.3618C117.281 30.1207 118.601 31.789 119.078 33.7159C118.886 33.2331 120.168 31.1682 120.347 30.5517C120.841 31.0346 121.33 31.5217 121.833 31.9916C121.765 31.8062 121.79 31.4829 121.748 31.3148C123.085 31.983 124.383 32.7201 125.686 33.4573C126.218 33.7591 130.331 35.4187 128.671 36.4965C128.662 36.6603 128.654 36.8241 128.654 36.9836V36.9793Z" fill="#CC953D"/>
<path d="M93.7706 91.9559C93.7195 92.5033 93.6088 92.9215 93.5236 93.1888C93.1915 94.2191 92.6082 95.0037 91.9015 95.9391C91.5609 96.3875 91.5268 96.3099 91.4885 96.478C91.3395 97.1117 91.1436 98.4222 91.646 99.612C92.0377 100.539 93.2086 100.832 93.9664 100.177C93.9792 100.168 93.9877 100.159 94.0005 100.147C95.3374 98.9481 95.9292 97.879 95.9292 97.879C96.7382 96.534 96.8744 94.9907 96.9511 94.0854C97.1086 92.2361 96.8233 90.6281 96.4572 89.4038C96.2102 89.7573 95.9037 90.141 95.529 90.5333C94.9116 91.1713 94.29 91.6325 93.7748 91.9559H93.7706Z" fill="#121212"/>
<path d="M62.8131 9.99257C63.3496 10.3504 64.0862 10.9108 64.8142 11.7471C66.347 13.5059 66.8707 15.3596 67.1687 16.4546C67.603 18.0583 67.6669 19.4464 67.7009 20.3172C67.735 21.1147 67.7052 21.6061 67.7009 22.1148C67.6754 24.8565 68.3225 26.8223 68.9399 29.1372C70.7792 36.039 69.4977 35.3492 71.09 40.2852C71.7159 42.2337 72.3843 43.79 71.6222 44.7168C70.8218 45.6997 69.1826 45.0444 67.5476 46.2601C67.2624 46.4714 67.0197 46.7128 66.8111 46.9585C66.0021 47.9284 64.9803 48.6915 63.835 49.2088C62.3022 49.8985 60.4374 51.3685 60.2713 54.4422C60.2075 55.6665 60.0499 56.8822 59.7263 58.059C59.671 58.2617 59.6114 58.4643 59.5433 58.6755C58.9813 60.4688 57.6784 64.603 54.251 66.642C52.9396 67.4223 52.4543 67.2154 51.1259 68.2241C51.1259 68.2241 51.1088 68.2371 51.0918 68.25C50.8151 68.4612 48.1413 70.9055 47.3919 73.2506C46.3445 76.5269 48.9162 80.0575 50.5511 82.2992C51.607 83.752 53.6464 86.1316 57.1334 88.0672C57.1334 88.0672 60.8844 92.5203 68.0799 91.2874C68.4545 91.2227 68.8292 91.1667 69.2039 91.115C70.0001 91.0072 71.5073 90.727 72.3035 90.076C72.3035 90.076 72.4823 89.9295 72.7718 89.7053C76.0928 87.1533 80.7634 87.2524 83.88 90.0545C84.0546 90.214 84.2462 90.3476 84.4548 90.4554C85.8513 91.171 91.3437 93.7101 94.835 91.2615C94.835 91.2615 99.2927 88.1879 99.2927 80.1006C99.2927 80.1006 99.4375 75.6992 96.8659 70.6684C96.2102 69.3881 95.6993 68.0388 95.3587 66.6377C94.7711 64.2409 93.4001 60.2964 90.3772 57.4857C89.0701 56.27 88.1377 54.7009 87.5969 52.9894C87.3585 52.2393 87.0307 51.4591 86.5794 50.6702C84.2419 46.6007 80.0609 45.0444 77.4126 44.4452C75.8671 44.0961 74.6026 42.9882 74.0491 41.488C73.6957 40.5266 73.3253 39.4317 72.9634 38.2117C71.8819 34.5517 71.4221 30.4866 70.5919 22.5071C70.0128 16.9547 70.0682 15.5493 70.4982 13.6353C71.0432 11.1996 71.9884 9.31576 72.7292 8.07422C72.1204 8.47513 71.3838 9.04417 70.6557 9.84169C69.5615 11.0358 68.9356 12.2472 68.5823 13.1007C67.8159 12.2903 66.513 11.1565 64.6184 10.4581C63.967 10.2167 63.3496 10.0702 62.8004 9.97963L62.8131 9.99257Z" fill="white"/>
<path d="M37.6334 44.6481C37.842 44.7429 38.9022 45.1869 40.1327 44.7213C40.2817 44.6653 40.4179 44.6006 40.5414 44.5317C41.3461 44.0876 41.874 43.247 41.9549 42.3245C42.0103 41.7166 42.1551 40.9622 42.5042 40.169C43.4622 37.9791 45.7187 36.009 48.4394 35.9357C48.8609 35.9228 49.6059 35.953 50.5128 36.2547C51.1685 36.4746 51.7561 35.7762 51.4197 35.1684C51.1557 34.6899 50.7044 34.1941 49.938 33.8062C49.938 33.8062 52.2755 34.5088 53.0291 36.647C53.259 37.3023 53.6933 37.8627 54.2851 38.2119C55.5965 38.9835 57.7594 40.4967 58.4193 42.3805C58.6364 43.0099 59.3517 43.3031 59.9563 43.0487L59.9733 43.0401C61.5316 42.3762 62.1192 40.8286 62.2427 40.4708C62.1788 41.1778 62.017 42.1736 61.5827 43.2901C60.2969 46.5966 57.6614 48.2606 56.8354 48.765C54.0765 50.4505 48.946 52.0111 45.195 49.3081C44.1391 48.5494 43.4238 47.6183 42.9427 46.7906C42.5553 46.1267 41.857 45.7258 41.0992 45.7258C41.0864 45.7258 41.0736 45.7258 41.0608 45.7258C39.4727 45.7172 38.2678 45.0576 37.6462 44.6481H37.6334Z" fill="#0D0909"/>
<path d="M62.8139 78.3032C62.8053 78.1437 62.7839 77.9842 62.7453 77.8247C62.664 77.9885 62.6682 78.1911 62.8139 78.3032Z" fill="#DDDDDD"/>
<path d="M89.943 88.2217C90.2368 88.4286 90.5433 88.6097 90.8584 88.7519C90.7307 88.5709 90.3092 88.3036 89.943 88.2217Z" fill="#DDDDDD"/>
<path d="M86.8646 84.0236C86.2217 82.2562 86.2302 80.0748 87.499 78.6954L87.2734 78.4108C87.4479 78.635 88.589 76.8115 88.6486 76.7167C89.134 76.0054 89.6704 75.3372 90.258 74.7121C90.0664 74.7293 89.879 74.7509 89.6874 74.7681C89.879 74.7466 90.5092 73.3197 90.6284 73.1041C90.9094 72.6127 91.233 72.1687 91.4161 71.6298C91.3564 71.8065 91.1436 71.0694 91.1648 71.1168C91.0712 70.9185 91.0584 70.8021 90.8753 70.6383C90.5645 70.3667 90.0579 70.2676 89.6662 70.2029C88.4825 70.0046 87.8141 71.3539 87.1839 72.1342C86.3324 73.186 85.4511 74.2163 84.5399 75.2208C84.1269 75.6777 83.7054 76.1261 83.2797 76.5744C83.1009 76.4063 82.8837 76.2813 82.6666 76.1649C82.4154 76.0312 82.2238 75.889 82.0024 75.7165C81.7299 75.5053 81.3935 75.4579 81.0912 75.307C80.8698 75.1992 80.6953 75.0268 80.4611 74.9406C80.1844 74.8371 79.8821 74.7724 79.6011 74.6948C79.0518 74.544 78.4643 74.4621 77.9491 74.1991C77.4765 73.9577 77.1316 73.712 76.5994 73.6344C75.6585 73.4964 74.7303 73.5783 73.7936 73.4835C72.8144 73.3843 71.8777 73.0912 70.9495 72.7679C69.7659 72.3583 68.7696 71.5651 67.5561 71.2332C66.8792 71.0478 66.198 70.8969 65.5338 70.6642C65.0782 70.5047 64.6397 70.3064 64.1798 70.1598C63.9116 70.0736 63.5156 69.9744 63.2219 69.9572C62.9877 69.8796 62.7705 69.9485 62.5662 70.1512C62.447 69.483 62.3277 68.8148 62.2085 68.1466C62.0638 67.3318 61.8253 67.0085 61.4038 66.3403V66.4222C61.0377 68.5992 60.5055 70.7547 59.9733 72.9188C60.3437 72.7334 60.7184 72.5523 61.0888 72.367C61.1101 72.4273 61.1356 72.4834 61.1611 72.5437C61.4932 74.1603 61.5656 75.8372 61.3655 77.4754C61.5699 77.1305 61.7743 76.7856 61.9786 76.4451C62.3618 76.8158 62.6343 77.3029 62.7535 77.8289C62.8089 77.7125 62.9068 77.6133 63.0345 77.5831C63.3368 77.5099 63.6476 77.734 63.7796 78.0185C63.9116 78.3031 63.9073 78.6307 63.8988 78.9454C63.8137 81.4457 63.4134 83.9331 62.7109 86.3299C62.9068 86.3299 63.6178 85.1789 63.7626 84.9979C64.1074 84.5582 64.4438 84.0021 64.8611 83.6443C64.9419 83.9978 64.9036 84.4073 64.9121 84.778C64.9888 84.6487 65.0612 84.5237 65.1378 84.3944L65.2826 84.7823C65.3975 84.5927 65.7168 84.6789 65.8148 84.8772C65.9127 85.0755 65.8659 85.3126 65.8148 85.5281C65.7126 85.9678 65.6104 86.4119 65.5082 86.8516C66.1 86.0885 66.9388 85.5324 67.8627 85.2867C67.6626 85.5454 67.4625 85.804 67.2624 86.067C67.9904 85.8428 68.7227 85.6187 69.4508 85.3945C69.2805 85.9592 69.1102 86.5196 68.9399 87.0844C69.5189 86.705 70.1022 86.3213 70.6813 85.942C70.6515 86.0713 70.6217 86.2006 70.5919 86.3299C70.9495 86.3299 71.6946 85.7609 72.0182 85.5885L73.8319 84.6271C73.7894 84.8168 73.7425 85.0108 73.7 85.2005C73.7596 84.9332 74.1853 84.8599 74.3258 85.0927C75.0837 84.7565 76.1055 84.7866 76.9272 84.7091C78.0555 84.6056 79.2008 84.6487 80.3206 84.8384C81.7086 85.0755 83.0498 85.5411 84.3356 86.1144C85.4979 86.6317 86.7028 87.6146 87.9163 87.9207C88.44 88.0543 88.9679 88.1707 89.5001 88.2785C89.6108 88.1923 89.7769 88.1923 89.9557 88.2311C88.5464 87.2352 87.4351 85.5669 86.8774 84.0322L86.8646 84.0236Z" fill="#DDDDDD"/>
<path d="M64.5121 62.6714C65.3509 61.654 65.5254 60.8047 65.8022 60.2314C66.7303 58.313 69.617 57.8733 72.5037 57.4379C74.1855 57.1836 77.8769 56.6663 82.1899 58.1837C84.323 58.9338 85.8642 59.477 86.9712 61.0289C87.9249 62.361 88.3763 64.1888 88.8659 66.1546C89.1213 67.1805 89.1852 67.7108 89.2065 67.9005C89.3427 69.1291 89.5897 71.3362 88.4018 72.4571C87.8185 73.0046 87.563 72.664 86.7967 73.2761C85.745 74.1168 85.8727 75.035 85.0382 76.0696C84.3953 76.8671 83.629 77.1732 82.5262 77.6172C80.3335 78.4966 78.243 78.3889 75.8119 78.2639C74.326 78.1863 74.1003 78.0526 73.1126 78.1475C72.1674 78.238 71.5628 78.4406 70.7581 78.1604C70.2174 77.9707 69.9193 77.6819 69.5191 77.337C67.8842 75.9273 67.5861 76.1429 65.7426 74.7419C64.9421 74.134 64.2183 73.5822 63.5541 72.6209C62.5919 71.2242 62.3747 69.8404 62.2385 68.9092C62.0086 67.3616 61.7489 65.5898 62.7281 64.2836C63.2774 63.5508 63.6904 63.6629 64.5121 62.6714Z" fill="#1F1C24"/>
<path d="M82.458 68.9188C82.1727 68.6989 82.2025 68.2635 82.509 68.0824C82.509 68.0824 82.5133 68.0824 82.5176 68.0781C83.2371 67.6557 83.7054 67.3798 83.9566 66.8754C84.2291 66.3279 84.2419 65.5045 83.7906 64.9053C83.1094 64.0043 81.8363 64.2371 81.7001 64.2673C80.5122 64.5044 79.7203 65.6813 79.6053 66.7719C79.5074 67.6945 79.9161 68.4058 80.0524 68.6342C80.9848 70.212 83.0583 70.6819 84.5527 70.5397C85.6853 70.4319 86.5623 69.962 87.1243 69.574C86.6986 69.7421 85.8087 70.031 84.6932 69.8715C83.7012 69.7292 82.9518 69.2938 82.4622 68.9144L82.458 68.9188Z" fill="#0E0C0E"/>
<path d="M35.462 24.9989C35.3854 23.447 35.3768 21.7442 35.2108 20.2483C33.1118 22.7788 32.1325 25.7274 30.5785 28.5726C29.3863 30.7583 27.96 33.3663 27.6577 35.9098C27.0148 41.3113 26.5039 46.4413 27.9387 51.7437C28.522 53.8948 29.5609 55.8261 30.2591 57.8996C31.0383 60.206 31.5577 62.5813 32.3369 64.8876C33.6568 68.8105 34.9 72.7938 36.3561 76.6865C37.4588 79.6266 38.9064 82.42 40.4775 85.1273C41.2737 86.5024 42.402 87.7957 43.0236 89.2614C43.0619 87.7957 42.7724 86.3041 42.7681 84.8126C42.7681 83.1744 42.9086 81.5794 42.683 79.9499C42.4233 78.1005 41.6228 76.4106 41.031 74.6604C40.5073 73.1085 40.3157 71.4962 39.9411 69.9314C40.0134 70.0521 40.0901 70.1771 40.1539 70.3107C39.2726 67.5474 38.0464 64.9178 37.1906 62.1243C36.3348 59.3309 35.7856 56.0761 35.1853 53.0671C34.7382 50.8255 34.636 48.683 35.1044 46.4542C35.6323 43.9539 35.4705 41.3286 35.8196 38.7851C36.3178 35.1597 37.6589 31.905 38.5701 28.5295C38.1528 28.9003 37.8378 29.396 37.3609 29.5383C37.3183 29.3012 37.3481 29.0684 37.4503 28.8485C35.9729 29.6892 36.1773 27.3397 35.9601 26.3999C35.743 25.4602 35.4152 24.5204 35.462 25.0118V24.9989Z" fill="#9D5E26"/>
<path d="M116.289 34.9876C116.289 37.1948 116.345 39.4537 115.957 41.6134C115.57 43.7516 114.825 45.226 113.598 46.9848C112.977 47.8815 112.53 48.8299 112.002 49.7869C111.691 50.3473 111.287 50.8474 111.001 51.4293C109.83 53.8003 109.085 56.3438 108.498 58.9432C108.183 60.3357 107.655 61.5255 107.233 62.8661C106.748 64.4138 106.629 64.9699 106.011 67.0046C105.394 69.0393 105.087 70.061 104.879 70.5525C103.678 73.3675 102.026 74.8203 102.124 74.9108C102.243 75.0186 104.981 72.9752 106.918 69.4316C107.889 67.6599 108.042 66.0519 109.094 63.3317C109.839 61.4004 109.822 59.3657 110.516 57.4172C111.206 55.4859 111.597 53.5288 112.581 51.7096C113.977 49.1273 116.728 47.3642 117.945 44.6871C117.958 44.6569 118.754 43.6309 118.933 43.3895C119.47 42.9283 119.542 42.1652 119.333 41.4582C119.253 41.579 119.219 41.5703 119.163 41.7212C118.963 40.2684 118.226 38.9579 118.022 37.4405C117.809 35.8541 117.532 34.2418 117.447 32.6468C117.349 30.8707 117.315 29.2153 117.026 27.4694C116.877 26.5727 116.766 25.6545 116.826 24.7449C116.873 24.0681 117.388 23.0852 117.2 22.4731C117.073 22.0549 116.643 21.2014 115.489 20.171C114.054 18.895 113.228 17.8475 112.866 18.451C112.802 18.5545 113.032 19.1623 113.249 19.8434C113.518 20.6754 113.53 21.1065 113.752 21.9946C114.114 23.4301 114.514 24.8527 114.893 26.2839C115.638 29.1291 116.294 32.0303 116.294 34.9919L116.289 34.9876Z" fill="#5B3E28"/>
<path d="M69.4977 69.3193C69.7489 69.0606 69.6637 68.6338 69.3316 68.5002C69.3316 68.5002 69.3274 68.5002 69.3231 68.5002C68.5525 68.1812 68.0501 67.9743 67.735 67.513C67.3901 67.0086 67.2667 66.1939 67.6328 65.5386C68.1821 64.5514 69.4764 64.6075 69.6169 64.6118C70.8261 64.6807 71.7713 65.7369 72.031 66.7974C72.2524 67.6984 71.9458 68.4614 71.8436 68.7028C71.1369 70.3927 69.1443 71.1514 67.6456 71.2204C66.5088 71.2721 65.5764 70.9315 64.9675 70.6211C65.4103 70.7289 66.3342 70.8884 67.4157 70.5737C68.3779 70.2935 69.0634 69.759 69.4934 69.3149L69.4977 69.3193Z" fill="#0E0C0E"/>
<path d="M47.3877 40.4278C46.3871 41.7168 46.2807 43.411 47.0726 44.5706C47.8943 45.7776 49.3249 45.8811 49.4101 45.8854C50.4149 45.9415 51.5389 45.4974 52.152 44.4887C52.8715 43.2989 52.4373 42.0444 52.3521 41.8246C51.7901 40.3071 50.2999 39.8717 50.1424 39.8286C51.5261 40.0312 52.6459 41.0227 52.9609 42.316C53.3484 43.9153 52.3989 45.5233 50.9897 46.1527C49.6485 46.7476 48.0561 46.3812 47.0982 45.3078C45.8932 43.9584 46.3233 42.2039 46.3445 42.122C46.583 41.2253 47.128 40.6649 47.3877 40.4278Z" fill="#FCE38D"/>
<path d="M49.9721 42.3634C50.4847 42.3634 50.9003 41.9427 50.9003 41.4237C50.9003 40.9046 50.4847 40.4839 49.9721 40.4839C49.4595 40.4839 49.0439 40.9046 49.0439 41.4237C49.0439 41.9427 49.4595 42.3634 49.9721 42.3634Z" fill="white"/>
<path d="M35.7388 70.5867C37.3823 74.5527 39.03 78.5188 40.6735 82.4848C41.9039 85.455 43.1472 88.4511 43.7134 91.6239C43.9476 92.9344 44.0625 94.2923 43.8028 95.5985C43.5431 96.9047 42.8576 98.1678 41.7634 98.9093C41.1673 96.9694 39.443 96.4348 37.8421 95.4563C35.9134 94.2837 34.0315 93.0335 32.1965 91.7101C29.28 89.615 26.4912 87.3259 23.8557 84.8816C22.3953 83.528 18.9083 80.1655 20.0707 77.7902C20.275 77.3721 20.7689 77.1263 21.2202 77.2082C21.1819 76.9668 21.1308 76.7513 21.1478 76.5099C21.6204 76.7642 24.9457 80.1871 24.3794 80.6268C25.9079 79.424 27.4364 78.2256 28.9649 77.0229C28.3901 74.1949 27.8111 71.3713 27.2363 68.5433C26.4103 64.504 25.6099 60.1759 27.1554 56.3564C27.9431 58.6197 28.7052 60.8915 29.5652 63.1289C30.0038 64.2497 30.4721 65.3533 30.9532 66.4569C31.2215 67.069 32.1581 68.5821 32.0943 69.2288L32.2859 67.194L32.503 67.9614C33.3886 67.0044 33.6441 65.4999 33.1246 64.3014C33.9932 66.3965 34.8618 68.4916 35.7303 70.5867H35.7388Z" fill="#946930"/>
<path d="M84.3783 38.7209C85.3576 37.7855 85.4726 36.6172 85.4939 36.3456C85.4342 36.0266 85.3959 35.5524 85.5705 35.0567C85.8302 34.3195 86.4433 33.8669 87.6397 33.2763C89.2193 32.496 90.1347 32.0477 91.6036 31.8149C92.9533 31.5993 95.312 31.2286 97.6707 32.5693C98.2838 32.9185 100.234 34.0264 100.975 36.3715C101.907 39.3331 100.166 41.9196 99.8507 42.3895C97.7431 45.5235 94.0901 45.8555 92.6765 45.9848C90.5477 46.1788 87.512 45.8382 87.1032 44.5234C86.8648 43.756 87.6312 43.0146 87.2054 42.092C86.9202 41.4713 86.273 41.1652 85.8217 41.01C85.8217 41.01 83.0542 41.2169 81.9004 39.7124C82.1558 39.7124 83.365 39.6909 84.3783 38.7209Z" fill="#100B0C"/>
<path d="M91.0244 35.9395C90.0238 37.2285 89.9174 38.9227 90.7093 40.0823C91.5311 41.2894 92.9616 41.3928 93.0468 41.3971C94.0516 41.4532 95.1756 41.0092 95.7887 40.0004C96.5083 38.8106 96.074 37.5561 95.9888 37.3363C95.4268 35.8188 93.9366 35.3834 93.7791 35.3403C95.1628 35.5429 96.2826 36.5345 96.5977 37.8277C96.9851 39.4271 96.0357 41.035 94.6264 41.6644C93.2852 42.2593 91.6928 41.8929 90.7349 40.8195C89.53 39.4702 89.96 37.7156 89.9813 37.6337C90.2197 36.7371 90.7647 36.1766 91.0244 35.9395Z" fill="#FCE38D"/>
<path d="M92.306 37.944C92.8186 37.944 93.2341 37.5233 93.2341 37.0042C93.2341 36.4852 92.8186 36.0645 92.306 36.0645C91.7934 36.0645 91.3778 36.4852 91.3778 37.0042C91.3778 37.5233 91.7934 37.944 92.306 37.944Z" fill="white"/>
<path d="M34.6956 19.3345C33.6482 20.7528 25.431 32.4569 26.6146 49.1444C26.6997 50.3471 27.002 51.5197 27.5087 52.6103C28.7732 55.3176 31.3406 61.1502 32.0942 65.3145C32.2986 66.4354 32.6562 67.5217 33.1799 68.5305C33.8228 69.772 34.7935 72.0999 36.0027 76.3849C36.2071 77.1048 36.4583 77.8075 36.7648 78.4843C37.9399 81.0967 40.9757 87.4165 43.5132 88.9469C43.5132 88.9469 38.2508 81.8641 37.0756 76.7858C37.0756 76.7858 35.5131 70.4962 34.0016 67.3708C33.4737 66.2759 33.0522 65.1335 32.7115 63.9609C31.7153 60.5165 29.7652 54.0933 28.2836 51.08C27.8834 50.2695 27.6747 49.3771 27.6577 48.4719C27.5683 43.9842 28.0026 30.9567 35.2874 20.589C35.5046 20.2786 35.7132 19.9639 35.9005 19.6406C36.4753 18.6491 37.8207 16.4031 38.3955 16.0151C38.3955 16.0151 36.2411 17.1446 34.9426 18.9897C34.8617 19.106 34.7808 19.2224 34.6956 19.3345Z" fill="#A17759"/>
<path d="M37.872 59.1926C37.9528 60.2186 37.7229 60.8523 38.4893 61.4946C39.1152 62.0205 39.8901 61.6886 40.4436 62.0205C40.0008 63.5811 39.9965 65.1416 40.3457 66.7237C40.7544 68.5774 41.8188 70.0474 42.5852 71.733C43.4239 73.5737 44.3478 75.3714 45.3569 77.1216C46.8088 79.6435 48.4352 82.0576 50.2192 84.351C51.0281 85.3899 51.9137 86.3555 52.6034 87.4634C53.2932 88.5714 54.315 89.5758 55.3709 90.3302C54.3746 90.619 50.7088 91.5804 47.4432 89.9939C46.5065 89.5413 44.6927 88.6576 44.0668 86.7996C43.9647 86.4978 43.9178 86.2348 43.8923 86.0495C44.3862 87.554 44.1009 89.4465 44.2244 91.0372C44.3521 92.7012 44.7694 94.3479 44.3351 95.9602C44.4202 97.6113 41.9636 99.5512 40.8268 100.62C41.1887 99.6978 42.7257 96.9388 42.8193 95.93C43.0407 93.5806 42.7342 90.9122 42.3851 88.5972C42.2573 87.7523 42.0061 86.9849 41.9295 86.1357C41.8401 85.1183 41.7379 84.0966 41.6144 83.0836C41.3632 81.01 41.0439 78.9408 40.6522 76.8888C40.1541 74.2894 39.5452 71.7114 38.8257 69.1637C38.1019 66.6073 37.1226 64.1975 36.3179 61.6757C35.4792 59.046 34.8831 56.3431 34.4616 53.6143C34.2529 52.2607 33.9847 50.851 33.9379 49.4802C33.8953 48.1783 34.023 46.9755 34.2955 45.7081C33.989 45.9495 33.6824 46.1909 33.3801 46.4367C33.5504 46.303 33.4908 44.958 33.5164 44.6994C33.5802 44.0312 33.6569 43.3673 33.7463 42.6991C33.9209 41.4145 34.1422 40.1341 34.4147 38.8667C34.6872 37.5993 35.0023 36.3405 35.3685 35.099C35.6154 34.2627 36.5819 32.7453 35.9816 31.9003C34.6915 32.0253 33.6186 31.7667 32.3625 32.1892C32.5073 32.1417 32.8351 29.4948 32.916 29.1845C33.1843 28.1154 33.5206 27.0678 33.9251 26.0418C34.3296 25.0158 34.534 24.6278 35.0704 23.6708C35.6069 22.7138 35.1896 21.6749 35.2705 20.5842C35.4238 22.6879 37.1992 24.533 37.493 26.5807C37.4504 26.2789 39.7751 25.3176 40.0689 25.1064C41.2696 24.2269 41.904 22.9638 42.9002 21.8991C42.2531 22.5931 41.5633 23.895 41.0567 24.7356C40.2946 25.9944 40.8055 26.973 40.8991 28.3654C41.078 30.9907 40.2435 33.4178 38.8725 35.6206C37.6208 37.6295 37.1098 39.5177 36.4797 41.7292C36.1604 42.85 35.7516 44.2855 35.7304 45.4452C36.1689 44.3028 37.9699 44.639 38.9321 44.4838C40.0902 44.2941 40.8821 43.7079 41.8784 43.2466C40.8651 44.7813 38.9406 44.8847 37.4504 45.7383C35.6878 46.7514 34.1635 50.7691 35.4664 52.5969C35.9901 53.3298 36.0667 54.6662 36.9736 57.0242C37.327 57.9381 37.6378 58.6882 37.8592 59.2012L37.872 59.1926Z" fill="#28180F"/>
<path d="M17.8395 47.3255C17.2647 47.6618 16.8006 48.2825 16.5154 48.9076C15.6298 50.8346 15.6936 53.1797 16.6729 55.0593C17.022 54.7359 17.3669 54.4083 17.716 54.085C17.716 54.085 17.9672 55.0765 17.9715 55.1886C17.9842 55.5852 17.8821 55.8913 17.7671 56.2793C17.4904 57.2061 17.2519 58.1416 17.0561 59.0899C16.6601 60.9824 16.4259 62.9094 16.3493 64.8407C16.2641 67.0134 16.3791 69.1904 16.6984 71.3372C16.856 72.4106 17.0688 73.4797 17.3286 74.5316C17.5883 75.5834 18.0098 76.4887 18.2142 77.5018C18.3887 78.3553 18.4611 79.2089 18.708 80.0625C18.4228 79.0666 18.7166 78.0924 18.9039 77.1095C19.1253 75.9628 19.2445 75.342 19.4659 74.1996C19.5766 74.3505 19.683 76.5275 19.9002 76.3637C20.2195 74.1824 20.5388 72.0011 20.8582 69.8241L21.0157 69.9319C21.9864 69.8198 22.9785 69.8801 23.9322 70.1043C22.97 69.8801 22.6038 69.199 22.5953 68.2678C22.5825 67.0996 22.5144 65.9357 22.3824 64.776C22.161 62.8146 21.765 60.8747 21.1988 58.9865C20.6325 57.0983 20.6495 55.0075 20.5346 53.0331C20.4494 51.5243 20.36 50.0026 20.5644 48.5024C20.7687 47.0022 21.2797 45.5106 22.2632 44.3726C20.377 46.278 19.0912 48.7869 18.6399 51.4467C18.4057 49.9983 18.5122 48.4895 18.9507 47.0884C18.5548 47.0324 18.1801 47.1358 17.8437 47.3298L17.8395 47.3255Z" fill="#CC953D"/>
<path d="M72.1546 100.129C72.325 100.418 72.5165 100.819 72.657 101.327C72.7677 101.741 72.8146 102.112 72.8274 102.409C72.657 102.655 72.4825 102.896 72.3122 103.142L71.1882 102.965L70.7454 101.379C71.218 100.965 71.6863 100.551 72.1589 100.138L72.1546 100.129Z" fill="#F9F4F2"/>
<path d="M85.7023 98.3838C85.5278 98.6812 85.3362 99.0865 85.1999 99.5908C84.9871 100.406 85.0296 101.104 85.0935 101.539C85.2468 101.492 85.3958 101.449 85.5491 101.401L86.6731 101.225L87.1159 99.6383C86.6433 99.2201 86.1749 98.8019 85.7023 98.3838Z" fill="#F9F4F2"/>
<path d="M58.0105 75.2939C58.4784 75.2939 58.8578 74.9098 58.8578 74.436C58.8578 73.9622 58.4784 73.5781 58.0105 73.5781C57.5425 73.5781 57.1632 73.9622 57.1632 74.436C57.1632 74.9098 57.5425 75.2939 58.0105 75.2939Z" fill="#916140"/>
<path d="M57.4188 78.1694C57.8867 78.1694 58.2661 77.7853 58.2661 77.3115C58.2661 76.8377 57.8867 76.4536 57.4188 76.4536C56.9509 76.4536 56.5715 76.8377 56.5715 77.3115C56.5715 77.7853 56.9509 78.1694 57.4188 78.1694Z" fill="#916140"/>
<path d="M54.6385 78.2724C55.1065 78.2724 55.4858 77.8883 55.4858 77.4145C55.4858 76.9407 55.1065 76.5566 54.6385 76.5566C54.1706 76.5566 53.7913 76.9407 53.7913 77.4145C53.7913 77.8883 54.1706 78.2724 54.6385 78.2724Z" fill="#916140"/>
<path d="M54.8301 75.2123C55.298 75.2123 55.6773 74.8282 55.6773 74.3545C55.6773 73.8807 55.298 73.4966 54.8301 73.4966C54.3621 73.4966 53.9828 73.8807 53.9828 74.3545C53.9828 74.8282 54.3621 75.2123 54.8301 75.2123Z" fill="#916140"/>
<path d="M93.017 76.9023C93.4849 76.9023 93.8642 76.5182 93.8642 76.0444C93.8642 75.5706 93.4849 75.1865 93.017 75.1865C92.549 75.1865 92.1697 75.5706 92.1697 76.0444C92.1697 76.5182 92.549 76.9023 93.017 76.9023Z" fill="#916140"/>
<path d="M94.9927 79.0614C95.4606 79.0614 95.8399 78.6774 95.8399 78.2036C95.8399 77.7298 95.4606 77.3457 94.9927 77.3457C94.5247 77.3457 94.1454 77.7298 94.1454 78.2036C94.1454 78.6774 94.5247 79.0614 94.9927 79.0614Z" fill="#916140"/>
<path d="M93.4641 81.4159C93.932 81.4159 94.3114 81.0318 94.3114 80.5581C94.3114 80.0843 93.932 79.7002 93.4641 79.7002C92.9962 79.7002 92.6168 80.0843 92.6168 80.5581C92.6168 81.0318 92.9962 81.4159 93.4641 81.4159Z" fill="#916140"/>
<path d="M91.1095 79.4804C91.5774 79.4804 91.9568 79.0963 91.9568 78.6225C91.9568 78.1487 91.5774 77.7646 91.1095 77.7646C90.6415 77.7646 90.2622 78.1487 90.2622 78.6225C90.2622 79.0963 90.6415 79.4804 91.1095 79.4804Z" fill="#916140"/>
<path opacity="0.6" d="M109.223 106.51C109.171 106.656 109.128 106.803 109.06 106.945C109.038 106.807 109.107 106.656 109.223 106.51Z" fill="#DDDDDD"/>
</g>
<defs>
<clipPath id="clip0_3_10518">
<rect width="141" height="169" fill="white" transform="translate(0 0.782715)"/>
</clipPath>
</defs>
</svg>
