<svg width="206" height="100" viewBox="0 0 206 100" fill="none" xmlns="http://www.w3.org/2000/svg">
<g clip-path="url(#clip0_3_12)">
<path d="M20.6649 55.2395C20.2829 55.6961 19.725 56.4562 19.2877 57.5072C19.2877 57.5072 18.8152 58.6499 18.6544 60.1039C18.4383 62.0731 18.7021 65.9963 19.6295 70.9602C20.9464 72.9881 22.2607 75.016 23.5776 77.0439C25.1282 78.3857 26.6813 79.7299 28.2319 81.0717L34.7132 84.8316L41.5112 89.4562L44.2379 93.9686C43.9615 94.591 43.5568 95.7338 43.6423 97.1776C43.685 97.9046 43.8383 98.5168 43.9966 98.981C44.8461 97.4862 45.8362 95.8971 46.9872 94.2594C48.5378 92.0504 50.1035 90.1424 51.5837 88.5175L60.1359 78.7249L64.3026 74.942L69.0172 65.0372L66.386 56.5787L65.152 50.8393L62.1815 46.1228L46.9797 42.7787C42.1947 43.0465 33.429 44.3117 25.5026 50.5868C23.5876 52.1045 21.9893 53.6988 20.6649 55.2446V55.2395Z" fill="white"/>
<path opacity="0.6" d="M67.0243 58.6167C67.0243 58.405 67.0092 58.2953 66.9263 58.0938C66.9011 58.0326 66.8785 57.9204 66.8308 57.8693C66.7905 57.826 66.7528 57.8336 66.7302 57.7826C66.7378 57.7316 66.7378 57.6831 66.7252 57.6321C66.7151 57.5377 66.685 57.451 66.6347 57.3719C66.5945 57.3056 66.5543 57.2393 66.5141 57.1679C66.4337 57.025 66.3357 56.8873 66.2452 56.7495C65.7149 55.9435 65.2173 55.1119 64.7072 54.2854C64.4483 53.8645 64.2774 53.4003 64.0211 52.9743C63.9181 52.8009 63.7974 52.635 63.6868 52.4667C63.6868 52.4667 63.5612 52.2881 63.5511 52.2856C63.4757 52.2677 63.4582 52.3851 63.4355 52.4335C63.325 52.6504 63.1013 52.8085 62.9279 52.9692C62.8274 53.0636 62.8299 53.1172 62.7872 53.2498C62.7595 53.3289 62.7319 53.3544 62.6866 53.4309C62.6389 53.5151 62.6238 53.6197 62.5911 53.7115C62.5509 53.8161 62.4881 54.0686 62.3976 54.1273C62.4378 54.2548 62.6263 54.3135 62.7268 54.3798C62.9731 54.538 63.2068 54.7446 63.4079 54.9563C63.5084 55.0634 63.4883 55.1578 63.5185 55.2956C63.5386 55.3823 63.5914 55.441 63.6115 55.5226C63.6441 55.6476 63.6542 55.7802 63.6592 55.9129C63.6642 56.0583 63.707 56.1935 63.7346 56.3363C63.81 56.7266 63.7547 57.1577 63.7572 57.553C63.7572 57.9892 63.6818 58.3795 63.5537 58.7978C63.4054 59.2748 63.2496 59.7519 63.0787 60.2212C62.8852 60.7518 62.6339 61.2645 62.3197 61.7313C62.1363 62.0017 61.9402 62.2619 61.7191 62.5016C61.6387 62.5884 61.42 62.8001 61.4175 62.9251C61.6512 62.8383 61.7819 62.5476 61.9779 62.3996C62.1287 62.2848 62.3071 62.1828 62.4429 62.0501C62.4806 62.1726 62.3951 62.3435 62.3524 62.4608C62.277 62.6751 62.174 62.8486 62.0709 63.0475C61.9 63.3817 61.7191 63.7082 61.5231 64.0296C61.312 64.3816 61.0682 64.7107 60.8822 65.078C60.7365 65.3662 60.548 65.6136 60.3746 65.8815C60.2012 66.1493 60.0931 66.4656 59.9373 66.7488C59.7287 67.1314 59.4849 67.486 59.2462 67.8482C59.1733 67.9604 59.1029 68.0803 59.0125 68.1798C58.9748 68.2231 58.922 68.2538 58.9044 68.3099C59.1557 68.2767 59.412 67.9834 59.6005 67.8329C59.7714 67.6977 59.9348 67.5574 60.0981 67.4171C60.2891 67.2513 60.5078 67.1416 60.7088 66.9885C60.8093 66.912 61.1235 66.6824 61.1385 66.5243C61.0657 66.9936 60.9852 67.4604 60.8923 67.9272C60.8043 68.3711 60.6711 68.7843 60.5555 69.218C60.4977 69.4348 60.4374 69.6286 60.3243 69.8251C60.0881 70.2357 59.9498 70.7076 59.7538 71.1413C59.4799 71.756 59.1582 72.3453 58.917 72.9779C58.6933 73.5697 58.5676 74.1921 58.3063 74.7686C58.0524 75.3246 57.7358 75.8042 57.3739 76.294C57.0774 76.697 56.7582 77.072 56.4742 77.4852C56.3762 77.628 56.2656 77.7403 56.15 77.8653C56.1048 77.9163 56.0721 77.9852 56.0143 78.003C55.9062 77.8449 57.4619 77.3194 57.678 77.1612C57.5574 77.8449 56.9919 78.3244 56.6024 78.855C56.434 79.0871 56.3159 79.3549 56.155 79.5947C55.9942 79.8345 55.8585 80.0768 55.7127 80.3217C55.469 80.7375 55.1975 81.1278 54.8432 81.4543C54.6849 81.5997 54.5617 81.7808 54.3456 81.8369C54.1295 81.893 53.9737 81.8241 53.8178 81.666C53.8656 81.842 53.7701 82.1022 53.6997 82.2501C53.4283 82.8139 53.1644 83.3776 52.8855 83.9362C52.5487 84.6096 52.2698 85.2856 52.0134 85.9947C51.7621 86.6911 51.4781 87.3722 51.2243 88.0686C50.973 88.7624 50.7343 89.423 50.405 90.0786C50.1311 90.6219 49.8094 91.1882 49.435 91.6729C49.1937 91.9815 48.9223 92.2978 48.6383 92.5657C48.3971 92.7927 48.1332 92.9763 47.8844 93.1932C47.6356 93.41 47.3893 93.5962 47.1405 93.7977C46.9244 93.9737 46.663 94.1854 46.5047 94.4201C46.2886 94.4048 46.6705 93.9661 46.6504 93.9865C47.1807 93.3768 47.8768 92.9228 48.4348 92.3361C48.8067 91.9458 49.1435 91.53 49.4777 91.104C49.7818 90.7138 50.0909 90.372 50.4478 90.0327C50.7443 89.7496 51.0584 89.4945 51.3701 89.2292C51.6817 88.9639 51.9833 88.6272 52.2899 88.3313C52.5688 88.0609 52.79 87.7395 53.0715 87.4691C53.3605 87.1936 53.6369 86.9207 53.8907 86.6069C54.2928 86.107 54.6824 85.6733 55.1774 85.2703C55.6273 84.903 56.2028 84.7346 56.6929 84.4285C57.2156 84.1046 57.6503 83.699 58.1077 83.2909C58.3264 83.0944 58.5274 82.8827 58.7059 82.6481C58.8843 82.4134 59.03 82.143 59.2286 81.9211C59.4271 81.6991 59.6608 81.5435 59.8368 81.2987C60.0127 81.0538 60.2514 80.8497 60.4877 80.6508C61.0933 80.1329 61.6412 79.559 62.2267 79.0157C62.9279 78.3627 63.4682 77.5796 64.0638 76.8347C64.5589 76.2149 65.0892 75.6231 65.6169 75.0313C65.8934 74.7226 66.1221 74.4089 66.3432 74.0569C66.4739 73.8554 66.5995 73.6487 66.7202 73.4396C66.8333 73.1896 66.9288 72.932 67.0067 72.6667C67.263 71.9142 67.5043 71.2076 67.6525 70.4245C67.7254 70.0393 67.7556 69.644 67.8335 69.2588C67.8787 69.0343 67.9441 68.8481 67.9591 68.6211C67.9692 68.4578 68.0069 68.315 68.0069 68.1492C68.0069 67.8558 68.0069 67.565 68.0069 67.2717C68.0069 67.0472 68.0572 66.7692 68.0572 66.5396C68.0572 66.1697 68.0572 65.7999 68.0572 65.43C68.0572 64.4632 68.125 63.4684 68.0119 62.5067C67.939 61.8894 67.9164 61.2696 67.8536 60.6523C67.8209 60.3283 67.7707 59.9916 67.6928 59.6779C67.6475 59.5044 67.6676 59.2799 67.5621 59.1192C67.5093 59.0402 67.454 58.9866 67.4037 58.8999C67.3133 58.7417 67.2253 58.5963 67.0368 58.6142L67.0243 58.6167Z" fill="#DDDDDD"/>
<path opacity="0.6" d="M19.7526 56.4179C19.9662 56.3669 20.4161 56.8949 21.4691 59.683C21.4942 59.7646 21.5168 59.8463 21.5319 59.9304C21.552 60.0274 21.6048 60.1013 21.6852 60.1524C21.7732 60.2952 21.7958 60.4253 21.8636 60.5783C21.9943 60.8717 22.1728 61.1599 22.3612 61.4099C22.5095 61.6038 22.5422 61.8589 22.7256 62.0043C22.8915 62.1369 23.0674 62.3588 23.2534 62.5195C23.5248 62.7542 23.6706 63.0654 23.952 63.2822C24.0576 63.3638 24.2838 63.5603 24.3089 63.6954C24.2134 63.7312 24.0877 63.6521 24.0023 63.596C23.8993 63.5271 23.8691 63.5143 23.7535 63.4863C23.6027 63.4506 23.4745 63.4225 23.3238 63.4098C23.2408 63.4021 23.0951 63.3026 23.0423 63.3613C23.0599 63.4659 23.1378 63.5169 23.1981 63.5934C23.2986 63.7286 23.3615 63.8868 23.4369 64.0347C23.6027 64.3587 23.7887 64.6597 23.9747 64.9709C24.1732 65.3076 24.4697 65.5371 24.6633 65.8739C24.7763 66.0703 24.9246 66.2616 25.0679 66.435C25.1558 66.5447 25.2413 66.6314 25.3292 66.736C25.4725 66.9095 25.6911 67.0268 25.8444 67.2003C25.7665 67.389 25.6635 67.4095 25.5202 67.5217C25.4348 67.5906 25.3719 67.6798 25.2865 67.7462C25.2011 67.815 25.0855 67.8533 25.005 67.9298C24.9296 68.0038 24.907 68.1033 24.7839 68.0854C24.6607 68.3124 25.0578 68.7282 25.1709 68.8966C25.4549 69.3175 25.6961 69.7664 25.9349 70.2128C26.0957 70.5113 26.2214 70.825 26.435 71.0928C26.6009 71.2995 26.7441 71.4347 26.8522 71.677C26.9577 71.9091 27.1135 72.1132 27.2417 72.3325C27.3699 72.5494 27.5483 72.6718 27.6916 72.8631C27.7418 72.932 27.7695 73.0187 27.8097 73.0952C27.88 73.2228 27.9931 73.3095 28.0685 73.4243C28.1112 73.4906 28.1263 73.5671 28.164 73.636C28.252 73.8018 28.3952 73.9268 28.4857 74.0901C28.3701 74.0671 28.2495 73.9804 28.1364 73.9396C27.9077 73.8579 27.6714 73.8248 27.4327 73.7814C27.6664 73.8146 28.0183 73.8809 28.2168 74.0135C28.3198 74.0824 28.4128 74.2202 28.4983 74.3247C28.7948 74.6895 28.9959 75.1027 29.2698 75.4777C29.4181 75.6818 29.5538 75.9318 29.6669 76.1588C29.795 76.419 29.9483 76.6562 30.069 76.9215C30.1544 77.1077 30.27 77.2658 30.368 77.4444C30.466 77.6204 30.5062 77.8041 30.5917 77.9826C30.6972 78.2045 30.931 78.3908 30.9083 78.6662C30.8003 78.7122 30.7048 78.6229 30.6043 78.5948C30.4736 78.554 30.3454 78.5668 30.2172 78.5362C30.084 78.503 29.8076 78.2709 29.6895 78.4341C29.7749 78.7861 29.9483 79.1586 30.0916 79.4927C30.2022 79.7503 30.3002 80.0156 30.4359 80.2605C30.6621 80.6686 30.8505 81.0972 31.0089 81.5334C31.1019 81.791 31.1697 82.0461 31.2954 82.291C31.3984 82.4925 31.5215 82.6838 31.5718 82.9108C31.3054 82.9185 31.0089 82.768 30.7601 82.6787C30.5062 82.5843 30.2524 82.4899 29.9961 82.4007C29.6468 82.2808 29.2773 82.0971 28.9657 81.8905C28.3374 81.4721 27.7494 81.0054 27.1537 80.5386C26.9049 80.3421 26.6737 80.1355 26.4149 79.9519C26.156 79.7682 25.9248 79.5284 25.6484 79.3728C25.1407 79.0846 24.6029 78.7938 24.143 78.4265C23.8666 78.2045 23.648 77.901 23.3765 77.6689C23.1328 77.4597 22.9242 77.1766 22.7633 76.9011C22.5623 76.5542 22.3939 76.2302 22.1527 75.9088C21.8536 75.5134 21.7254 75.0007 21.4816 74.5696C21.1952 74.062 20.9715 73.5697 20.7729 73.0187C20.6498 72.6769 20.4814 72.3555 20.3558 72.0137C20.2502 71.7254 20.1648 71.4449 20.024 71.1694C19.8406 70.8123 19.725 70.4271 19.5792 70.0521C19.4511 69.7256 19.2927 69.4374 19.2148 69.093C19.0741 68.4833 18.9736 67.8431 18.8906 67.2258C18.8479 66.9018 18.7549 66.6059 18.6871 66.2896C18.579 65.8024 18.4961 65.3178 18.3704 64.8331C18.2573 64.3918 18.2422 63.9378 18.1543 63.4914C18.0462 62.9379 18.1241 62.2823 18.1995 61.7288C18.2322 61.4915 18.3252 61.2773 18.3403 61.0349C18.3553 60.785 18.4307 60.6013 18.5237 60.3717C18.6217 60.137 18.7122 59.9763 18.7574 59.9024C18.9836 59.5095 19.0716 59.0912 19.1947 58.5275C19.4963 57.1347 19.6496 56.4384 19.7526 56.4128V56.4179Z" fill="#DDDDDD"/>
<path d="M76.6018 47.5988C76.622 47.5685 76.6372 47.5382 76.6498 47.5079C76.6423 47.5154 76.6347 47.523 76.6271 47.5331C76.617 47.5559 76.6094 47.5761 76.6018 47.6013V47.5988Z" fill="#51332E"/>
<path d="M66.1553 5.20684C66.1249 5.18411 66.0971 5.15633 66.0668 5.13361C66.0921 5.15886 66.1173 5.18411 66.1426 5.20937C66.1451 5.20937 66.1502 5.20937 66.1553 5.20937V5.20684Z" fill="#51332E"/>
<path d="M65.8708 4.96014C65.9337 5.01881 66.0015 5.07493 66.0669 5.13105C66.0091 5.07493 65.9437 5.01881 65.8708 4.96014Z" fill="#51332E"/>
<path d="M82.9827 25.4177C82.3695 23.9893 81.7563 22.5583 81.1431 21.1298C80.731 20.1681 80.3113 19.1963 79.688 18.3596C78.8914 17.2933 77.7379 16.8776 76.5592 16.398C76.5894 16.3189 76.622 16.2424 76.6522 16.1633C76.3833 16.1378 76.1119 16.1123 75.843 16.0868C76.0013 15.4542 76.1596 14.8216 76.3179 14.189C76.039 14.189 75.4183 13.7349 75.1669 13.61C74.5588 13.3064 73.9506 13.0054 73.3424 12.7019C72.3397 11.5591 71.337 10.4189 70.3342 9.2761C68.9998 8.51085 67.8362 7.44461 66.9465 6.1794L66.7958 6.95995C66.4012 6.13094 65.9262 5.22794 65.0718 4.9244C64.6873 4.78665 64.2676 4.79175 63.8655 4.72033C63.3352 4.62595 62.8401 4.39637 62.3526 4.16935C61.3423 3.7 60.332 3.2332 59.3192 2.76385C59.269 2.56488 59.2187 2.36592 59.1684 2.16695C57.9044 1.65169 56.502 1.24611 55.2907 0.64411C55.0495 0.524222 54.7429 0.603297 54.5066 0.480858C54.0492 0.243631 54.4262 0.0982338 53.7728 0.0268107C52.6243 -0.0981798 51.2521 0.24108 50.0961 0.338011C47.6458 0.544628 45.1955 0.751245 42.7478 0.957862C42.8784 0.804812 43.0116 0.651763 43.1423 0.498713C41.9134 0.807363 40.687 1.11601 39.4581 1.42466C39.5335 1.31753 39.6089 1.21039 39.6868 1.10326C38.1965 1.19509 36.7037 1.28692 35.2134 1.37875C31.303 1.87871 27.3926 2.37612 23.4822 2.87608C23.6506 2.85568 23.8366 2.88629 24.005 2.89394C22.8539 3.4041 21.6451 3.82499 20.469 4.28669C20.8937 4.55197 21.4491 4.58258 21.899 4.36832C20.8309 5.08765 19.7653 5.80698 18.6973 6.52631C18.9586 6.52376 19.2225 6.51866 19.4839 6.51611C19.1722 7.06199 18.5037 7.29666 17.8855 7.30687C17.2673 7.31707 16.6566 7.15127 16.0384 7.0977C13.4549 6.87067 12.4421 9.76841 11.4369 11.6458C11.658 11.7223 11.8792 11.8014 12.1003 11.8779C10.3663 12.9722 8.94888 14.5614 8.06678 16.4312C8.25778 16.5358 8.44626 16.6403 8.63726 16.7449C8.44878 17.0179 8.26029 17.2933 8.07432 17.5663C8.205 17.5612 8.33317 17.5561 8.46385 17.551C7.97631 17.9668 7.53651 18.4259 7.05902 18.8468C6.58153 19.2677 6.03367 19.7039 5.55869 20.1681C4.59366 21.117 3.75428 22.2419 3.01542 23.3771C2.69626 25.0402 2.24641 26.6778 1.67342 28.2695C1.38692 29.0654 1.06776 29.8485 0.720948 30.6189C0.555082 30.9887 0.346494 31.3509 0.225864 31.7361C0.12534 32.0575 0.163037 32.5473 0.00219727 32.8381C0.0474333 32.7564 0.105235 32.6621 0.155497 32.583C0.142932 33.0804 0.16555 33.5294 0.230891 34.0115C0.346494 34.9042 0.489741 34.6466 0.959694 35.2154C2.42987 37.0036 3.31448 39.2713 4.25941 41.3757C5.36518 43.8398 6.47347 46.3013 7.57924 48.7654L7.15703 46.485C10.2255 50.2219 13.9047 53.4436 17.9961 55.9766C15.4026 63.0654 17.5337 71.2203 21.7105 77.4801C25.8898 83.7398 31.8836 88.4741 37.7768 93.1013C35.4145 90.15 33.0547 87.1987 30.6924 84.2449C36.8671 86.436 41.8883 91.7341 43.8083 98.0831C44.4165 94.7364 45.0221 91.3897 45.6303 88.0405C44.8261 89.0583 44.0219 90.076 43.2177 91.0938C43.1272 84.3214 38.9479 77.7734 32.8964 74.919C37.6838 77.5694 40.9082 82.9108 41.0589 88.4435C36.9098 85.7932 32.7632 83.1454 28.614 80.4951C21.1425 75.7225 17.408 65.6544 19.9262 57.0658C21.7406 58.5836 23.0198 60.7492 23.4847 63.0909C23.1505 61.5808 22.8163 60.0732 22.4795 58.5631C22.8967 59.0478 23.2963 59.6243 23.7788 60.0299C24.0628 59.7569 24.2789 59.382 24.5076 59.0504C24.4749 59.1651 24.4422 59.2825 24.4121 59.3973C24.5026 59.0708 25.2087 58.5682 25.4022 58.2035C25.6837 57.6704 25.8471 57.0709 25.8672 56.4664C25.9049 55.2624 25.5153 54.0278 25.45 52.8187C25.4148 52.1784 25.2188 50.4719 26.0255 50.1301C27.2192 49.6251 29.956 53.6018 31.5895 56.173C31.5845 56.2036 31.577 56.247 31.5719 56.3006C31.2427 59.9559 36.6233 63.5245 40.7096 64.8433C44.0144 65.9095 46.8843 65.6442 48.4701 65.3611C51.9282 64.7438 54.3458 63.1495 55.532 62.244C56.2407 61.8256 56.203 61.3002 57.0801 60.0579C57.1429 59.9687 57.2007 59.8921 57.256 59.8182C57.9219 59.1626 58.2235 58.6218 58.2235 58.6218C58.7186 57.7979 58.8141 56.8592 58.8644 56.2802C58.8066 56.1271 58.1883 54.4079 59.2087 52.9488C59.8043 52.0994 60.6411 51.7882 60.9628 51.6887C61.2493 52.181 61.8399 53.3391 61.8399 54.9282C61.8399 56.4664 61.292 57.5964 61.0106 58.0938C61.385 57.701 61.9228 57.0403 62.3274 56.0914C62.7723 55.0456 62.8552 54.1094 62.8627 53.5431C63.0562 53.8696 63.2874 54.3441 63.4156 54.9486C63.8202 56.872 62.8326 58.5478 62.9859 58.6142C63.0864 58.6575 63.5413 57.9331 63.8881 57.0811C64.3279 55.9945 64.4586 55.0201 64.4963 54.3594L65.0466 56.173C65.9589 58.729 66.2228 61.5298 66.2102 64.2362C66.2102 66.2998 65.8634 68.3583 65.21 70.3097C65.0944 70.6541 64.9712 70.9959 64.8355 71.3326C64.4133 72.3708 63.9308 73.4243 63.1367 74.2303C64.1268 71.0698 64.8958 67.7232 64.7199 64.3969C64.6797 63.6189 64.5842 62.8434 64.4309 62.0705C64.1595 62.6317 64.1017 63.2541 64.0791 63.8867C64.059 64.476 64.0715 65.0754 63.9735 65.6442C63.9585 65.8585 63.9383 66.0753 63.9157 66.287C63.6393 67.7844 63.398 69.3812 62.9909 71.0367C62.7949 71.756 62.5863 72.4702 62.3651 73.1794C61.9454 74.4012 61.3926 75.646 60.6361 76.901C60.2893 77.475 59.8998 78.0514 59.4575 78.6279C58.98 79.2121 58.4899 79.786 57.9873 80.3497C57.462 80.9033 57.1027 81.3012 56.874 81.5716C54.2327 84.403 51.4105 87.0686 48.9853 90.1015C46.912 92.7799 44.8688 95.6266 44.0068 98.9733C43.9591 99.2488 43.8133 99.685 43.8611 99.9962C48.0756 92.4356 51.609 90.0684 54.7755 86.8186C54.8057 86.7855 54.8358 86.7574 54.8635 86.7294C56.022 85.5203 57.1931 84.3239 58.3643 83.1352C59.7565 81.7348 61.0357 80.2197 62.4732 78.8652C61.6665 81.3726 60.1611 83.5587 58.9573 85.8748C58.5854 86.6299 58.0778 87.362 57.8868 88.1884C59.9199 85.5483 63.5187 80.6609 65.974 76.1281C66.2102 75.6919 66.4364 75.2608 66.6475 74.8349C66.7555 74.5798 66.8611 74.3247 66.9641 74.0671C67.9116 71.7075 68.6605 69.269 68.9721 66.7283C69.1857 64.9963 69.0927 63.2082 68.8088 61.4915C68.5097 59.6753 67.6351 58.0147 67.2959 56.2598C67.3512 56.5403 69.5124 56.7317 69.8014 56.7393C70.671 56.7572 71.5003 56.5352 72.2593 56.1144C71.8848 55.5736 71.5104 55.0328 71.1384 54.492C71.9577 53.1579 72.7795 51.8213 73.5988 50.4872L73.3173 50.9132C75.8103 48.6149 77.5519 45.5769 78.7708 42.3909C79.9896 39.2049 80.7159 35.8506 81.4372 32.5116L81.9674 33.2411C82.0378 32.0193 82.1107 30.7949 82.181 29.573C82.1283 29.2924 82.651 29.1827 82.7113 29.4608C82.4123 28.1777 82.5379 26.7952 83.0581 25.5886C83.033 25.5325 83.0104 25.4764 82.9852 25.4203L82.9827 25.4177ZM72.0658 51.9336C72.0431 51.9999 72.023 52.0713 72.0004 52.1402H71.9451C71.9904 52.0738 72.0306 52.005 72.0658 51.9336Z" fill="#51332E"/>
<path d="M31.3381 56.1246C31.3381 56.1246 31.7578 60.1957 30.3002 63.5832C30.3002 63.5832 28.448 67.6824 31.7854 70.3862C31.7854 70.3862 35.0097 73.8885 38.4326 71.2408C38.4326 71.2408 40.4808 68.8787 39.4152 66.9146C39.4152 66.9146 40.7346 66.6875 42.2199 64.0678L31.3381 56.1246Z" fill="#3A2420"/>
<path d="M29.7925 51.7346C30.2323 56.4664 29.8352 59.8054 29.3653 62.0221C29.2145 62.7414 28.9657 63.7771 29.0511 65.1928C29.2371 68.3277 30.8455 70.5112 31.5667 71.3785C31.6874 71.4882 34.2005 73.6845 37.0101 72.7024C38.2818 72.2586 39.0458 71.3632 39.3926 70.8888C39.7117 70.4296 40.1138 69.7307 40.3802 68.8124C40.7547 67.5191 40.6768 66.4044 40.5813 65.7642C40.8879 65.5779 41.2297 65.3229 41.5564 64.9734C42.6747 63.772 42.8255 62.2823 42.8531 61.7032C42.0992 60.9584 41.006 59.8845 39.6866 58.5861C36.0677 55.0328 35.1253 54.1324 33.5647 53.2498C32.0769 52.408 30.7173 51.9718 29.7925 51.7346Z" fill="#51332E"/>
<path d="M76.1771 48.0553C76.1973 48.025 76.2125 47.9947 76.2252 47.9619C76.2176 47.9695 76.21 47.9771 76.2024 47.9872C76.1923 48.0099 76.1847 48.0326 76.1771 48.0553Z" fill="#3A2420"/>
<path d="M65.6447 5.59021C65.6699 5.61546 65.6952 5.64072 65.718 5.66597C65.723 5.66597 65.7255 5.66597 65.7306 5.66597C65.7003 5.64324 65.6725 5.61546 65.6447 5.59274V5.59021Z" fill="#3A2420"/>
<path d="M65.6446 5.59022C65.5843 5.5341 65.5214 5.47798 65.446 5.41931C65.5089 5.47798 65.5767 5.5341 65.6446 5.59022Z" fill="#3A2420"/>
<path d="M52.2748 60.012C52.6493 60.0681 52.5865 60.9303 53.0438 61.1778C53.4133 61.3793 53.9285 61.0732 54.1069 60.9686C54.7678 60.5783 54.7327 60.0886 55.5544 58.9279C56.1676 58.0606 56.3561 58.0964 56.4064 57.7163C56.5295 56.8158 55.4891 56.5506 55.562 55.5634C55.6022 55.0379 56.0244 53.936 56.052 53.7472C56.0747 53.5891 56.0897 53.4207 56.0696 53.2625C56.0546 53.1452 55.9616 53.084 55.8711 53.0253C55.6198 52.8595 55.3232 52.7473 55.0468 52.635C54.8885 52.5713 54.7226 52.5101 54.5593 52.4616C54.406 52.4157 54.2527 52.3927 54.0918 52.3723C53.8681 52.3442 53.6445 52.3085 53.4208 52.2856C53.1167 52.2575 52.8152 52.2677 52.5111 52.2626C52.202 52.2575 51.8954 52.2346 51.5837 52.2524C51.4179 52.2626 51.252 52.2881 51.0836 52.3034C50.8951 52.3187 50.7066 52.3238 50.5207 52.3442C50.3096 52.3647 50.0633 52.3876 49.8748 52.4973C49.7592 52.5636 49.6763 52.7243 49.621 52.8366C49.5054 53.0712 49.4526 53.3314 49.3948 53.584C49.3295 53.8569 49.3144 54.1247 49.3094 54.4053C49.3043 54.6706 49.2943 54.9359 49.2918 55.2012C49.2918 55.3466 49.2867 55.4945 49.2993 55.6425C49.3119 55.8006 49.3395 55.9613 49.3646 56.1169C49.4576 56.7087 49.6436 57.275 49.8421 57.8362C49.9577 58.1627 50.0884 58.4815 50.2819 58.7723C50.3422 58.8642 50.4026 58.9611 50.4729 59.0453C50.5534 59.1422 50.6539 59.206 50.7418 59.2927C50.777 59.3284 50.8097 59.3641 50.8474 59.3973C50.9077 59.4534 50.9806 59.4917 51.0434 59.5427C51.1087 59.5937 51.1665 59.66 51.2319 59.7136C51.2746 59.7493 51.3274 59.7799 51.3701 59.8182C51.4103 59.8539 51.448 59.9049 51.4832 59.9457C51.4832 59.9457 51.5586 60.0273 51.6893 60.0911C51.8954 60.1931 52.0863 59.9891 52.2799 60.0197L52.2748 60.012Z" fill="#3A2725"/>
<path d="M42.6849 58.7009C43.1573 57.9995 43.7052 57.0888 44.0922 56.1399C44.1425 56.0149 44.2405 55.7649 44.3511 55.4588C44.4365 55.2242 44.6325 54.663 44.8688 53.7906C45.0346 53.1784 45.2382 52.3417 45.4317 51.3087C45.7106 51.4183 46.1379 51.5612 46.6782 51.6556C46.9019 51.6938 47.03 51.704 47.1431 51.7193C47.8292 51.8188 48.7716 52.3953 48.9073 52.4795C49.8824 53.084 49.8397 53.1912 50.7721 53.7779C51.6743 54.3467 51.8225 54.311 52.0688 54.612C52.3754 54.9844 52.6569 55.6553 52.4332 56.9485L51.0812 59.6192L48.6334 60.7135L44.3938 60.9559L41.9988 60.4355L41.5967 59.1933C41.9586 59.0275 42.3205 58.8616 42.6849 58.6958V58.7009Z" fill="#1C0E11"/>
<path d="M41.0487 61.2313C41.0261 61.1497 40.9733 60.9278 41.0688 60.688C41.2271 60.2824 41.6569 60.1906 41.7097 60.1804C42.1495 60.0911 42.4711 60.3768 42.5063 60.41C42.5666 60.3232 42.8054 59.9967 43.2351 59.9125C43.6196 59.8386 44.1072 59.9687 44.3308 60.3462C44.4364 60.5273 44.4515 60.711 44.449 60.8181C44.459 60.7492 44.5193 60.3207 44.8963 60.0681C45.2255 59.8462 45.6804 59.8309 46.0197 60.0681C46.3665 60.3105 46.4293 60.7008 46.4393 60.7722C46.4444 60.6625 46.472 60.3615 46.6957 60.1217C47.0148 59.7799 47.5753 59.7365 47.9573 59.9814C48.2387 60.1625 48.3443 60.4482 48.377 60.5554C48.3669 60.4635 48.3644 60.3054 48.4373 60.137C48.6232 59.711 49.1208 59.6396 49.1912 59.6269C49.2389 59.6167 49.6561 59.5478 49.9351 59.8335C50.0356 59.9355 50.0834 60.0503 50.1085 60.1319C50.0984 60.012 50.1035 59.8335 50.1763 59.6396C50.3196 59.2672 50.6815 58.9534 51.1012 58.9228C51.2947 58.9075 51.453 58.9585 51.5485 58.9968C51.6616 59.0759 51.8425 59.2238 51.9883 59.4687C52.1994 59.8258 52.2044 60.1753 52.1994 60.3207C51.0459 60.739 49.626 61.142 47.9824 61.3767C45.1652 61.7798 42.7601 61.5425 41.0537 61.2237L41.0487 61.2313Z" fill="#F9F4F2"/>
<path d="M21.5143 10.2301C21.4766 10.3271 19.7878 9.81436 19.6245 9.7965C18.8831 9.70978 18.109 9.98271 17.5134 10.4189C16.6514 11.0515 16.0684 11.9902 15.508 12.9085L14.935 14.1533L15.5482 14.3242C13.9323 15.3394 12.6179 16.8393 11.8137 18.5866L12.4269 18.8366L11.7911 19.6503L12.3012 19.6912C10.5144 20.635 9.13221 22.2394 8.11691 24.0046C7.10161 25.7698 6.42558 27.7135 5.75709 29.6419C5.29468 30.9735 4.82473 32.3356 4.82975 33.7488C4.83729 35.644 5.71437 37.2383 7.0614 38.4856L7.00862 37.9857C8.11439 41.6283 11.0975 47.1661 10.8964 46.5284C10.8612 46.5973 10.9442 46.6916 11.0145 46.6636C11.0849 46.6355 11.0824 46.508 11.0095 46.4825C11.7936 46.7529 12.2233 48.0971 13.0502 48.4696C13.3467 48.6022 13.6759 48.6099 13.9725 48.7706C14.3896 48.995 14.6862 49.4261 15.1587 49.546C15.3572 49.1506 15.229 48.5895 15.4627 48.2323C15.6387 47.9619 15.9427 47.939 16.1765 47.7375C16.5132 47.4441 17.4808 46.2503 17.3627 45.9672C17.5436 45.8754 16.6087 43.6128 16.6917 42.9649C16.8827 41.4344 17.6492 43.0236 18.1191 41.7787C18.971 43.1638 19.5164 40.386 19.4988 40.0416C19.4184 38.3734 18.5589 36.9449 18.099 35.315C16.3247 29.0603 15.3798 21.5482 18.6117 15.5486C19.157 14.5359 19.8255 13.6304 20.2728 12.5667C20.5644 11.8729 21.1549 11.1893 21.5168 10.2276L21.5143 10.2301Z" fill="#BD8636"/>
<path d="M29.6769 44.6816C29.6141 44.6816 29.5513 44.7785 29.506 44.8168C29.2874 45.0004 29.0512 45.1586 28.835 45.3422C28.6189 45.5259 28.4656 45.6993 28.3098 45.9187C28.1414 46.1534 27.9755 46.3702 27.8474 46.6278C27.6463 47.0258 27.5609 47.4212 27.5559 47.865C27.5508 48.2145 27.5609 48.5435 27.6564 48.8828C27.772 49.2909 27.9504 49.6786 28.1163 50.0664C28.2821 50.4541 28.443 50.8495 28.6742 51.1862C28.9481 51.5841 29.315 51.8392 29.7448 52.0407C29.9383 52.13 30.1041 52.1784 30.3152 52.1733C30.3932 52.1733 30.4585 52.1631 30.5339 52.1529C30.7902 52.1147 31.0139 52.2422 31.1848 52.4361C31.3054 52.5738 31.3708 52.7498 31.4813 52.8901C31.5919 53.0304 31.7326 53.0916 31.9061 53.1197C32.0795 53.1478 32.2855 53.1707 32.4715 53.1656C32.5569 53.1656 32.6122 53.1376 32.6901 53.1171C32.8183 53.0814 32.9892 53.1069 33.1023 53.1707C33.2104 53.2319 33.2983 53.3187 33.4164 53.3595C33.5672 53.413 33.7281 53.4232 33.8788 53.3697C34.0497 53.2549 34.188 53.1069 34.2935 52.9284C34.4543 52.6835 34.6202 52.4412 34.7936 52.204C35.0625 51.8494 35.3239 51.4974 35.5626 51.1199C35.7662 50.7984 35.9547 50.4796 36.0879 50.1199C36.211 49.7883 36.2839 49.4491 36.3141 49.097C36.3367 48.8343 36.3794 48.5512 36.2965 48.2961C36.2035 48.0895 36.0778 47.9058 35.917 47.7502C35.7184 47.5028 35.4923 47.2834 35.2384 47.0921C34.8766 46.8268 34.5021 46.5845 34.1101 46.3651C33.811 46.1866 33.5044 46.0182 33.1953 45.8575C32.5117 45.4953 31.798 45.2172 31.0868 44.9188C30.4711 44.6612 29.8604 44.3678 29.2321 44.1459C29.3728 44.1944 28.7873 44.0209 28.7772 43.9903C28.6968 44.1331 28.6817 44.2632 28.6817 44.4239C28.6817 44.526 28.6817 44.6306 28.6817 44.7326V44.8525C28.6868 44.8882 28.6918 44.8907 28.7194 44.9162C28.8174 45.0081 28.9758 44.9775 29.0964 44.9775" fill="#150E0C"/>
<path d="M61.0834 50.0485C61.1713 50.0485 61.209 50.0307 61.2769 50.097C61.3799 50.1965 61.4427 50.4414 61.4528 50.5817C61.4377 50.5919 61.4251 50.5868 61.4176 50.5664C61.4955 50.6199 61.5257 50.7169 61.5784 50.7908C61.6387 50.8725 61.6991 50.9464 61.7544 51.0306C61.8272 51.1428 61.9051 51.2398 62.0057 51.3342C62.0936 51.4158 62.1866 51.4821 62.262 51.5765C62.3701 51.7142 62.4605 51.8622 62.5937 51.9719C62.7671 52.1147 62.9707 52.2244 63.124 52.3927C63.0109 52.3239 62.7722 52.1249 62.737 51.9923C62.9431 52.0841 63.1265 52.2473 63.2949 52.3953C63.4205 52.505 63.609 52.6147 63.6945 52.7652C63.5713 52.6963 63.506 52.5637 63.3979 52.4769C63.4758 52.6045 63.604 52.7192 63.6995 52.8315C63.7699 52.9131 63.8252 53.0075 63.9031 53.0764C64.0287 53.1886 64.1443 53.3034 64.2499 53.4386C64.3353 53.5457 64.3856 53.7166 64.4861 53.8008C64.4987 53.6605 64.3755 53.4819 64.3403 53.3442C64.3981 53.357 64.5087 53.4564 64.4484 53.5177C64.7299 53.7906 65.1169 54.1528 65.4185 54.4028C65.4185 54.4436 65.4185 54.4844 65.4185 54.5252C65.4712 54.4564 65.5014 54.3492 65.4838 54.2906C65.4562 54.362 65.4411 54.436 65.4336 54.5125C66.4639 54.0304 67.4943 53.5508 68.5272 53.0764L68.3915 53.3646C68.972 52.7652 69.55 52.1683 70.1306 51.5688C70.0652 51.3877 69.726 51.4898 69.7687 51.6785C69.8114 51.8673 70.1582 51.8112 70.1431 51.6198C70.0275 51.9412 69.9119 52.2627 69.7988 52.5841C70.5779 51.9566 71.1785 51.102 71.5103 50.1506C71.455 50.2909 71.4022 50.4312 71.3469 50.5715C71.5454 50.0562 72.0908 49.7577 72.425 49.3522C72.9327 48.74 73.3499 48.0181 73.8047 47.3651C74.8703 45.8346 75.8052 44.3143 76.436 42.5389C76.7602 41.6257 77.009 40.687 77.1773 39.733C77.5568 37.5954 78.2152 35.5139 78.8435 33.4401L79.2029 34.1135C79.2657 33.106 79.326 32.0958 79.3889 31.0883C79.404 30.8485 79.5196 30.522 79.7533 30.5755C79.693 30.5602 79.9242 27.3921 79.8488 26.9763C79.2758 23.8516 78.2504 20.8799 75.4559 19.107C74.9784 18.8035 74.4607 18.5382 74.1013 18.0995C73.6891 17.5944 73.5358 16.9286 73.2745 16.3292C72.8623 15.3905 72.1787 15.2578 71.3921 14.7757C70.4497 14.1967 69.6606 13.3932 68.9444 12.5514C68.5096 12.0387 68.1628 11.4928 67.6149 11.1C67.0017 10.6587 66.4589 10.4138 66.0266 9.7557C65.9462 9.63326 65.8708 9.49807 65.7778 9.38583C65.7351 9.33227 65.519 9.04147 65.4612 9.04402C65.4134 9.28125 65.4687 9.52103 65.421 9.74805C65.3984 9.85008 65.3481 9.96742 65.3205 10.072C65.2627 10.2812 65.1546 10.4648 65.0767 10.6663C64.853 11.2428 65.0993 11.8831 64.9284 12.4672C64.8882 12.605 64.9133 12.6815 64.8983 12.8167C64.8807 12.9621 64.7952 13.1075 64.7299 13.2325C64.6771 13.2682 64.6595 13.3141 64.6771 13.3728C64.7399 13.4161 64.7776 13.4748 64.7902 13.5513C64.8204 13.7069 64.7902 13.9186 64.7726 14.0717C64.7324 14.4059 64.7324 14.7324 64.7349 15.0691C64.7349 15.2859 64.6897 15.4925 64.6821 15.7119C64.6746 15.9313 64.6897 16.1175 64.662 16.3266C64.6067 16.7577 64.4761 17.1837 64.3429 17.5944C64.2097 18.0051 64.0061 18.3367 63.8553 18.7244C63.7322 19.0407 63.5914 19.3213 63.5286 19.6606C63.4608 20.0177 63.2522 20.3212 63.1843 20.6732C63.129 20.9564 63.0737 21.2676 62.9807 21.5405C62.8878 21.8135 62.8551 22.0634 62.8325 22.344C62.8048 22.7266 62.6968 23.1016 62.6842 23.4893C62.6742 23.775 62.7244 24.0607 62.7169 24.3413C62.7118 24.5326 62.6314 24.6602 62.541 24.8158C62.5862 25.0887 62.6088 25.7927 62.639 26.1346C62.6566 26.3259 62.6566 26.4917 62.6867 26.6855C62.7269 26.9559 62.7822 27.2289 62.7872 27.5043C62.7948 27.8946 62.8476 28.2772 62.8375 28.6701C62.8275 29.0629 62.7043 29.4583 62.6641 29.8588C62.644 30.0705 62.6214 30.2694 62.5787 30.4761C62.541 30.6623 62.4857 30.8459 62.4555 31.0321C62.4254 31.2183 62.4656 31.4046 62.4404 31.5882C62.4178 31.7566 62.3927 31.9326 62.3625 32.1009C62.3324 32.2693 62.2595 32.4198 62.2017 32.5805C62.1188 32.805 62.0785 33.0294 61.983 33.2514C61.8524 33.5549 61.6865 33.8585 61.6262 34.1875C61.5558 34.5854 61.6287 35.0573 61.6991 35.4502C61.7845 35.9144 61.7342 36.3787 61.8297 36.8404C61.9076 37.223 61.9579 37.5903 61.9579 37.978C61.9579 38.2561 61.9403 38.5265 61.9001 38.8019C61.8624 39.0468 61.8197 39.2917 61.7895 39.5391C61.7518 39.8248 61.6764 40.0774 61.5935 40.3529C61.4854 40.7151 61.3824 41.0569 61.2517 41.4089C61.1738 41.6181 61.1135 41.8374 61.0255 42.0415C60.9049 42.3246 60.7391 42.5823 60.6385 42.8731C60.5656 43.0873 60.5531 43.322 60.4852 43.5388C60.3922 43.85 60.2867 44.1332 60.2364 44.4546C60.2038 44.6765 60.1937 44.8959 60.1987 45.1203C60.2063 45.4315 60.2842 45.7325 60.2993 46.0437C60.3194 46.4442 60.352 46.8192 60.4676 47.2018C60.5531 47.4901 60.7039 47.74 60.8069 48.0181C60.8496 48.1329 60.8722 48.2502 60.9326 48.3548C60.9803 48.4364 61.0331 48.5053 61.0683 48.5971C61.1135 48.7094 61.1386 48.8318 61.1864 48.944C61.2341 49.0563 61.2794 49.0945 61.2743 49.2221C61.2693 49.3675 61.2015 49.4644 61.1713 49.597C61.1512 49.6863 61.1085 49.7552 61.0859 49.8445C61.0733 49.8904 61.0658 50.0026 61.0758 50.0434L61.0834 50.0485Z" fill="#BD8636"/>
<path d="M40.1767 4.70251C41.285 4.17194 43.0919 3.99338 43.8257 3.82758C43.7026 3.92961 43.5769 4.03164 43.4538 4.13623C45.3009 4.09031 47.1455 3.97553 48.9851 3.79442C50.4779 3.64647 52.6568 2.89142 54.0968 3.35057C54.0114 3.32506 53.9787 3.49852 53.9787 3.54444C53.9837 3.70004 54.1496 3.68473 54.2551 3.74085C55.3182 4.31478 56.5823 4.58262 57.683 5.1489C58.1027 5.36572 58.5149 5.59275 58.9295 5.81977C60.0805 6.45238 62.6464 8.65884 63.8829 7.58494C63.8628 7.49821 63.8125 7.43699 63.7296 7.39873C63.9709 8.09766 64.7424 8.59252 65.1671 9.17921C65.7979 10.0516 66.2 11.0974 66.293 12.1764C66.3759 13.1381 66.2276 14.1048 66.0794 15.0589C65.6597 17.7576 65.2425 20.459 64.8228 23.1577C64.3931 25.9254 63.9633 28.693 63.5336 31.4607C63.3225 32.8203 63.0435 34.19 62.8977 35.5598C62.855 35.9629 62.9656 36.3455 62.9807 36.7434C62.9958 37.1184 62.8927 37.4857 62.8023 37.853C62.5962 38.7076 62.3298 39.5442 62.0081 40.3605C61.3647 41.993 60.4977 43.5337 59.4372 44.9239C59.304 45.0974 59.1432 45.2836 58.927 45.2963C58.6707 45.3142 58.4696 45.0821 58.3163 44.8729C57.0899 43.22 55.8661 41.5645 54.6397 39.9115C53.5188 38.4015 52.3879 36.8684 51.6742 35.1211C51.3852 34.412 51.1665 33.6697 50.8323 32.981C50.3347 31.9504 49.5531 31.4326 48.7188 30.7184C47.6834 29.8332 46.6605 28.9328 45.6754 27.9915C44.3459 26.7212 43.0743 25.3642 42.1369 23.775C41.3905 22.5073 40.8628 21.0814 40.7497 19.6019C40.6944 18.8979 40.614 18.3749 40.428 17.6964C40.2144 16.9159 39.9505 16.1532 39.6313 15.4109C39.3448 14.7451 39.0131 14.0717 38.9905 13.3447C38.9628 12.4417 39.3649 11.5515 39.4931 10.6663C39.6565 9.55418 39.6288 8.41141 39.4102 7.3069C39.2946 6.72021 39.1262 6.11057 39.2896 5.53663C39.3901 5.18462 39.7243 4.91168 40.1742 4.69741L40.1767 4.70251Z" fill="#BD8636"/>
<path d="M69.8717 26.1141C70.0577 26.3743 70.0753 26.8666 70.123 27.1549C70.304 28.2619 70.4648 29.3741 70.6885 30.4735C71.1986 30.3408 71.7113 30.2082 72.2215 30.0756C71.9048 30.3459 71.7515 30.8 71.8445 31.2107C71.7364 30.726 68.2935 31.3076 68.8087 33.0218C69.3012 32.9172 69.7913 32.81 70.2864 32.7106C69.1002 33.2743 69.1228 34.6976 69.5852 35.8404C69.9396 36.7205 70.6432 37.4423 71.5002 37.8224C71.0554 37.6464 70.6081 37.4704 70.1632 37.2944C70.4472 37.9193 70.7312 38.5468 71.0152 39.1718C70.6483 38.9524 70.2839 38.7331 69.9169 38.5162C70.1708 38.6514 69.8868 39.6105 69.7008 39.7075C69.4922 39.8172 68.9695 39.6054 68.7308 39.5952C68.301 39.5799 68.4593 39.3682 67.9844 39.6947C67.3938 40.0977 66.9389 40.8859 66.5242 41.4624C65.9261 42.2915 65.4436 43.2072 65.0968 44.174C65.8633 43.7658 66.6298 43.3603 67.3963 42.9521L68.2834 41.6384L68.1402 42.7225C68.7358 42.3909 69.3289 42.0568 69.9245 41.7252C69.0298 42.8832 68.1351 44.0388 67.243 45.1968L68.0874 44.702C67.4667 45.3601 66.8459 46.0157 66.2277 46.6738L68.1 45.9851L67.3988 46.7784L71.3042 45.2989C70.6533 46.0208 70.0024 46.7426 69.3515 47.4671L69.937 47.4339C67.8537 48.745 65.4235 49.4848 62.9732 49.5486C62.2896 49.5664 61.5106 49.4848 61.1009 48.9313C60.7089 48.4007 60.8195 47.6609 60.8823 47.0003C60.9451 46.3396 60.8647 45.5412 60.2917 45.2198C60.1937 45.3116 60.0957 45.4035 59.9977 45.4978C60.5405 43.5261 61.3849 41.6384 62.4932 39.9243L62.644 40.6997C63.036 39.3504 63.4306 38.0035 63.8226 36.6541C64.2122 35.3226 64.5992 33.9885 65.1119 32.7004C65.8306 30.8918 66.7931 29.1828 67.9592 27.6344C68.2181 27.2926 69.0198 25.9942 69.4998 25.9432C69.6732 25.9254 69.7913 25.9968 69.8767 26.1141H69.8717Z" fill="#946930"/>
<path d="M21.5872 10.3398C21.841 9.88579 21.9968 9.61795 22.3361 9.2889C22.1753 9.33736 21.7154 9.71999 21.5746 9.49041C21.4339 9.26084 22.0345 8.93433 22.1476 8.86036C22.9367 8.34509 23.7434 7.85788 24.5426 7.35792L23.6429 7.63341L23.8641 7.43955C23.5952 7.38088 23.3238 7.32476 23.0548 7.26609C24.1832 6.84521 25.3116 6.42432 26.44 6.00343C26.2365 5.99833 26.0304 5.99323 25.8268 5.98813C27.3271 5.756 28.835 5.57234 30.3429 5.39123C31.0993 5.2994 31.8558 5.20758 32.6122 5.11575C33.9492 4.95249 35.2862 4.79179 36.6232 4.62854C36.5251 4.63364 36.4271 4.63874 36.3291 4.64639C37.1157 4.60048 37.9023 4.55456 38.6889 4.5061C39.0734 4.48314 39.4956 4.50865 39.8726 4.43723C40.144 4.38621 40.3878 4.2051 40.6642 4.19745C40.7522 4.30203 40.4531 4.67445 40.4004 4.76883C40.2621 5.01626 40.139 5.2688 39.9983 5.51367C40.0234 5.56979 40.1013 5.54939 40.144 5.59275C40.2094 5.66162 40.144 5.81467 40.1164 5.8963C40.0762 6.01619 39.8852 6.24321 40.0435 6.33504C40.0887 6.36055 40.1792 6.3631 40.2144 6.40391C40.2571 6.45238 40.232 6.5136 40.2194 6.57227C40.1792 6.76103 40.0812 6.91918 40.0485 7.11049C40.0108 7.33496 40.0259 7.55944 40.0058 7.78391C39.9832 8.04664 39.9756 8.27112 40.0108 8.5364C40.0862 9.07973 40.1692 9.63836 40.1918 10.1893C40.2219 10.9316 40.1968 11.6765 40.1968 12.4188C40.1968 12.6789 40.3903 13.0692 40.4732 13.3141C40.521 13.3677 40.5285 13.4212 40.4934 13.4748C40.4883 13.5692 40.4933 13.6585 40.5034 13.7528C40.5361 14.0207 40.624 14.2503 40.6341 14.5232C40.6467 14.8548 40.7145 15.1711 40.7421 15.5002C40.7572 15.6711 40.7798 15.8369 40.815 16.0052C40.8502 16.1787 40.9206 16.3419 40.9558 16.5154C40.9909 16.6837 40.996 16.8546 41.0387 17.0204C41.0789 17.1811 41.1392 17.3367 41.1769 17.4974C41.2297 17.7168 41.2196 17.9489 41.2523 18.1709C41.285 18.3826 41.3352 18.5841 41.4006 18.7907C41.5137 19.1402 41.5891 19.5024 41.6946 19.8544C41.7675 20.1044 41.8152 20.3646 41.8756 20.6171C41.9309 20.8518 41.9987 21.0814 42.0213 21.3237C42.059 21.7369 42.2274 22.191 42.3355 22.5914C42.4259 22.9205 42.5214 23.2521 42.6471 23.5684C42.7778 23.9 42.9738 24.2036 43.0793 24.5479C43.1296 24.7163 43.1472 24.8846 43.1573 25.0581C43.1673 25.2418 43.1924 25.4305 43.1824 25.6142C43.1673 25.8361 43.1824 26.0274 43.2553 26.2391C43.2703 26.2825 43.2829 26.3361 43.3156 26.3718C43.3457 26.4049 43.4086 26.4126 43.4437 26.4457C43.5769 26.5784 43.3935 26.8182 43.3131 26.9279C43.2276 27.0452 43.1397 27.1574 43.0492 27.2697C42.9989 27.3334 42.8909 27.4023 42.8708 27.4839C42.911 27.4967 42.9436 27.5171 42.9738 27.5477C42.9336 27.6319 42.9311 27.7314 42.8984 27.8181C42.8632 27.9099 42.8079 27.9966 42.7526 28.0783C42.5491 28.3793 42.3128 28.6701 42.0791 28.9456C41.5916 29.5195 41.0764 30.0654 40.6341 30.6801C40.3878 31.0219 40.1038 31.3331 39.8651 31.68C39.7394 31.8611 39.6364 32.055 39.5208 32.2412C39.4127 32.4147 39.2871 32.5728 39.174 32.7437C38.8372 33.2488 38.5658 33.8023 38.1989 34.2895C38.0305 34.5115 37.8621 34.7308 37.6912 34.9527C37.5781 35.1007 37.4852 35.2384 37.3067 35.3099C37.1208 35.5496 36.8921 35.7869 36.6935 36.0164C36.6508 36.0471 36.6081 36.0751 36.5654 36.1057C36.49 36.1669 36.4523 36.2205 36.4623 36.32C36.4699 36.4016 36.5101 36.4654 36.5 36.547C36.4598 36.8761 36.0301 37.1694 35.7913 37.3403C35.4998 37.5469 35.1882 37.7459 34.8665 37.9041C34.7484 37.9602 34.7534 37.9423 34.7082 38.0469C34.6076 38.2739 34.4317 38.4499 34.2583 38.6259C33.8839 39.0086 33.4541 39.3274 33.0671 39.6947C32.7127 40.0289 32.3584 40.3707 32.0091 40.71C31.7653 40.9472 31.5668 41.1921 31.4009 41.4905C31.1973 41.8578 31.0717 42.2481 30.8053 42.5823C30.6419 42.7889 30.4509 42.9674 30.3077 43.1919C30.182 43.3909 30.0966 43.6026 29.9936 43.8143C29.9458 43.9138 29.9006 43.9776 29.8855 44.0821C29.8704 44.1969 29.8528 44.3143 29.8327 44.4291C29.8101 44.5515 29.7624 44.6331 29.7171 44.7479C29.6367 44.9494 29.5663 45.1561 29.4909 45.3601C29.4105 45.582 29.2899 45.8295 29.3025 46.0692C29.31 46.1866 29.31 46.2886 29.3025 46.406C29.2899 46.5871 29.32 46.7656 29.3326 46.9467C29.3477 47.1789 29.3326 47.411 29.3376 47.6431C29.3401 47.8752 29.3829 48.0971 29.413 48.3267C29.4558 48.6379 29.4809 48.9389 29.5588 49.2425C29.6342 49.546 29.7347 49.8419 29.8126 50.1429C29.8955 50.4592 30.0187 50.7755 30.1418 51.0791C30.2047 51.2321 30.2524 51.3826 30.3253 51.5306C30.3831 51.6453 30.4585 51.7703 30.4786 51.9004C30.368 51.954 30.0664 51.4387 30.0363 51.3877C29.9307 51.199 29.8151 51.0612 29.6593 50.9184C29.3728 50.6531 29.1743 50.3419 28.933 50.0358C28.7747 49.8368 28.6164 49.6276 28.4229 49.4618C28.2369 49.3011 28.0509 49.1481 27.8926 48.9568C27.6966 48.7196 27.5609 48.4237 27.3749 48.1762C27.2342 47.9875 27.0984 47.8038 26.9828 47.5972C26.8698 47.3931 26.7793 47.1738 26.6637 46.9722C26.5456 46.7682 26.4149 46.5743 26.3018 46.3677C26.1309 46.0616 25.9826 45.7427 25.8268 45.429C25.666 45.0999 25.4875 44.776 25.3292 44.4469C24.9321 43.6128 24.6054 42.743 24.2084 41.9063C23.9219 41.3018 23.6153 40.7176 23.2936 40.1309C23.1353 39.8427 22.987 39.5468 22.796 39.2764C22.2406 38.4933 21.8888 37.4577 21.6123 36.5317C21.5118 36.1925 21.3384 35.8863 21.2228 35.5522C21.1197 35.2537 21.0619 34.9425 20.974 34.639C20.871 34.2793 20.7352 33.9299 20.68 33.5574C20.6372 33.2667 20.6071 32.9784 20.5518 32.6902C20.4161 31.9734 20.3156 31.2413 20.2201 30.5169C20.1246 29.7924 20.1522 29.0629 20.1472 28.3334C20.1472 27.915 20.1472 27.4992 20.1899 27.0835C20.2376 26.6218 20.3331 26.1652 20.3935 25.7035C20.4462 25.2902 20.494 24.877 20.5241 24.4612C20.5543 24.0556 20.6196 23.6704 20.6875 23.2725C20.7327 23.0123 20.7277 22.7547 20.7428 22.4945C20.7579 22.1986 20.8106 21.9078 20.8257 21.6145C20.8358 21.4104 20.8207 21.214 20.8056 21.0099C20.7905 20.7829 20.8483 20.5635 20.8785 20.3391C20.9438 19.8315 20.9866 19.2907 21.1323 18.8009C21.1926 18.5969 21.2781 18.4004 21.3208 18.1938C21.361 18.0025 21.3484 17.8087 21.3761 17.6173C21.4339 17.2067 21.5922 16.8419 21.7505 16.4618C21.7681 16.4185 21.9315 16.1047 21.8511 16.0154C21.7556 15.9108 21.4238 16.0409 21.3334 16.0664C21.1097 16.1277 20.8785 16.1787 20.6498 16.2246C20.5267 16.2501 20.2879 16.2909 20.1899 16.1634C20.122 16.0741 20.1849 15.9159 20.1999 15.8139C20.2578 15.4236 20.3306 15.0461 20.4513 14.6711C20.5593 14.3344 20.6523 14.0283 20.7026 13.6763C20.7202 13.5411 20.8383 13.2682 20.7378 13.1636C20.4337 13.2044 20.3005 13.3983 20.122 13.6355C19.9914 13.8064 19.8707 14.0309 19.642 14.0309C19.5842 13.9212 19.5717 13.8651 19.6094 13.7401C19.6596 13.5692 19.7426 13.4289 19.7777 13.2529C19.8004 13.1432 19.8079 13.0335 19.833 12.9238C19.8607 12.8116 19.916 12.7121 19.9411 12.5999C19.9713 12.4698 19.9763 12.3397 20.024 12.2121C20.0818 12.0591 20.1773 11.8933 20.2628 11.753C20.5945 11.2046 21.2806 10.8857 21.5822 10.3424L21.5872 10.3398Z" fill="#BD8636"/>
<path d="M52.2371 13.0309C52.8754 13.3268 52.976 13.9773 53.4811 14.4007C54.0239 14.8624 54.9613 14.7502 55.6172 14.8165C57.0346 14.9594 58.3716 15.7807 59.1557 16.9873C59.4522 17.4413 59.5377 17.9285 59.9498 18.3367C60.2866 18.6734 60.8194 19.0611 61.2793 19.1555C61.4075 18.8111 61.3647 17.6581 61.709 17.4821C63.707 20.1171 63.4305 23.7061 61.8498 26.512C61.1712 27.7135 60.2414 28.7746 59.7212 30.0551C60.1157 29.7975 60.5128 29.5424 60.9073 29.2848C60.4047 30.7337 59.8996 32.1825 59.397 33.6314L59.113 33.1595C59.0351 33.1595 58.7712 34.0982 58.7536 34.2283C58.7838 34.2079 58.7988 34.1798 58.8315 34.162C58.4093 35.1951 61.121 35.9629 61.3522 36.8812C60.4299 36.9857 58.8114 36.0368 58.2384 35.3379C57.7509 34.7436 57.6177 34.0038 56.8763 33.6314C56.3762 33.3789 55.768 33.3534 55.2478 33.5651C55.5871 33.4248 55.474 31.3816 55.5569 31.0066C55.7555 30.1011 56.1576 29.2491 56.6602 28.4787C57.6302 26.9891 59.1205 25.905 59.6432 24.127C59.8644 23.3745 59.8518 22.5175 59.4422 21.8517C59.0627 21.2344 58.3967 20.8569 57.7308 20.5865C56.3134 20.01 54.7578 19.7983 53.2398 19.9615C52.1039 20.084 51.3801 20.4156 50.9052 21.4563C50.4754 22.3976 51.2243 23.3465 51.5636 24.1551C51.8501 24.8387 52.1994 25.7238 52.2195 26.4789C52.2446 26.4483 52.2522 26.4202 52.2723 26.3794C52.2497 26.5325 52.2748 26.6957 52.2773 26.8488C52.3376 26.8207 52.496 26.7875 52.5462 26.7569C51.8903 27.239 51.8074 27.8665 51.6113 28.6216C51.4505 27.7671 50.7393 27.1472 50.0834 26.586C48.5881 25.3106 47.138 23.9561 45.9719 22.3644C44.8058 20.7727 43.9262 18.9259 43.685 16.9592C43.5417 15.7833 43.6397 14.5691 44.0092 13.4442C44.3912 12.2759 45.0772 11.4953 45.8387 10.5439C45.6276 11.0107 45.419 11.4775 45.2079 11.9443C46.844 11.2683 48.6735 11.0821 50.4076 11.4188C50.1688 11.628 49.9301 11.8372 49.6938 12.0463C50.3548 12.0463 51.0584 11.7657 51.7169 11.679C52.4256 11.5872 53.1494 11.5923 53.8631 11.5617C53.4208 12.1484 52.8051 12.5667 52.2421 13.0284L52.2371 13.0309Z" fill="#C7913A"/>
<path d="M29.6166 40.2278C28.8149 39.8911 27.9881 39.6845 27.1337 39.6105C27.0608 39.8656 26.8874 40.0467 26.7366 40.2559C26.5431 40.5237 26.4752 40.6666 26.4375 41.0033C26.3998 41.34 26.2867 41.5951 26.3496 41.9267C26.4124 42.2583 26.4501 42.6231 26.5431 42.9598C26.7165 43.5847 26.9603 44.1816 27.1161 44.8117C27.2719 45.4417 27.6162 45.9697 27.8549 46.5641C28.0459 47.0436 28.2319 47.5079 28.5209 47.939C28.6591 48.1456 28.8124 48.342 28.9582 48.5435C29.1291 48.7808 29.3301 48.9364 29.5136 49.1557C29.687 49.3623 29.7699 49.6098 29.9685 49.8011C30.167 49.9924 30.4208 50.171 30.6344 50.3572C30.848 50.5434 30.9812 50.7219 31.1747 50.9132C31.2527 50.9898 31.6648 51.3596 31.7352 51.3724C31.5366 51.0765 31.3833 50.7372 31.1572 50.4617C31.0114 50.2857 30.9033 50.2016 30.7953 49.9949C30.5565 49.5486 30.4459 49.0664 30.2776 48.5945C30.1092 48.1226 29.9383 47.7273 29.8126 47.2579C29.6945 46.8243 29.4884 46.3804 29.2949 45.9774C29.2045 45.7912 29.0989 45.6611 29.0411 45.457C28.9557 45.1586 28.9758 44.8652 28.933 44.5617C28.8627 44.0464 29.0436 43.5261 28.9381 43.0031C28.8325 42.4802 28.8174 41.9649 28.9808 41.4675C29.0386 41.2915 29.1643 41.1028 29.3125 40.9956C29.6367 40.7661 29.7624 40.7788 29.6191 40.2202L29.6166 40.2278Z" fill="#28140C"/>
<path d="M32.8208 9.83476L32.1699 10.6612C32.1146 10.8015 32.0241 10.9036 31.906 10.9673C31.7854 11.0566 31.6899 11.1255 31.5793 11.2403C31.3682 11.4571 31.225 11.702 31.0465 11.9417C31.1672 12.0412 31.4939 11.6714 31.5642 11.7708C31.4662 11.9417 31.3732 12.0642 31.2174 12.1815C31.3079 12.1943 31.8306 11.9494 31.8809 12.1024C31.6296 12.4162 31.2551 12.6381 30.941 12.8856C30.5313 13.2095 30.1418 13.5794 29.7623 13.9416C29.4105 14.2758 29.1315 14.6635 28.8099 15.0257C28.6842 15.166 28.5535 15.3088 28.4203 15.444C28.3273 15.5384 28.1439 15.7501 28.0057 15.7705C28.0936 15.7119 28.1489 15.62 28.2218 15.541C28.3173 15.4389 28.4203 15.3445 28.5158 15.2425C28.4203 15.3241 28.365 15.444 28.2721 15.5308C28.2067 15.592 28.1464 15.6583 28.0836 15.7221C27.9705 15.8369 27.8272 15.921 27.7041 16.0282C27.5005 16.2042 27.3246 16.4108 27.1211 16.5842C26.6737 16.9669 26.3395 17.4439 25.9349 17.8673C25.7238 18.0867 25.5152 18.2984 25.3166 18.5305C25.2613 18.5968 25.1357 18.6887 25.1231 18.778C25.2412 18.6581 25.3217 18.4897 25.4448 18.3724C25.3267 18.579 25.1131 18.7448 24.9774 18.9208C24.9623 18.9387 24.9623 18.9846 24.9497 19.005C24.9171 19.0637 24.8291 19.1147 24.7864 19.1759C24.7034 19.2932 24.6306 19.4131 24.53 19.5177C24.4747 19.5764 24.3692 19.6376 24.3315 19.7167C24.3692 19.6401 24.4722 19.584 24.4798 19.4998C24.3265 19.6733 24.2109 19.9207 24.0676 20.1095C23.8163 20.4385 23.575 20.8161 23.2785 21.1018C23.3313 20.9997 23.56 20.6324 23.7108 20.6656C23.6957 20.7906 23.5926 20.9487 23.5424 21.0558C23.4167 21.3237 23.3112 21.5992 23.183 21.867C23.0775 22.0915 22.9644 22.3134 22.8236 22.5175C22.796 22.5583 22.6779 22.6833 22.6854 22.7292C22.9317 22.4001 23.1956 22.1195 23.5072 21.8543C23.8515 21.5609 24.1078 21.1987 24.4923 20.9436C24.7085 20.8008 24.8969 20.6579 25.093 20.487C25.3016 20.3059 25.5353 20.1758 25.769 20.0355C26.0027 19.8952 26.2389 19.7549 26.4727 19.5993C26.4224 19.7014 26.2691 19.8365 26.1686 19.8774C26.254 19.8263 26.342 19.783 26.4274 19.732C26.4802 19.6988 26.5631 19.6299 26.6285 19.6401C26.6335 19.7065 26.5657 19.7447 26.533 19.7957C26.5003 19.8468 26.4928 19.9182 26.4375 19.9513C26.6586 19.9131 26.8421 19.76 27.0683 19.7294C27.2643 19.7039 27.4452 19.6146 27.6337 19.5585C27.8574 19.4922 28.0911 19.4616 28.3198 19.4233C28.5384 19.3902 28.7571 19.3621 28.9732 19.3238C29.129 19.2983 29.2848 19.2397 29.4432 19.2346C29.6191 19.2295 29.7824 19.2116 29.9558 19.1912C30.0589 19.1784 30.2197 19.158 30.3177 19.1912C30.2675 19.3289 30.1519 19.4131 30.0463 19.5049C30.0036 19.5432 29.9156 19.5917 29.9483 19.658C30.0262 19.6274 30.2072 19.5483 30.28 19.584C30.3052 19.7983 29.9508 19.9488 29.9131 20.1197C30.1343 20.1273 30.3052 19.9411 30.5087 19.8876C30.8028 19.8085 31.1018 19.7039 31.3984 19.6401C31.7477 19.5662 32.092 19.4667 32.4388 19.3672C32.6348 19.3111 32.8334 19.2805 33.0319 19.2346C33.2681 19.181 33.4918 19.0866 33.7305 19.0458C33.9291 19.0101 34.1226 18.9489 34.3262 18.9336C34.5297 18.9183 34.7358 18.8978 34.9368 18.8723C35.2535 18.8341 35.5626 18.8341 35.8843 18.8341C36.025 18.8341 37.2816 18.9004 37.2967 18.7958C37.2213 18.7831 37.1358 18.7907 37.1107 18.7014C37.2816 18.556 37.3796 18.3902 37.5831 18.2729C37.6661 18.2244 37.8043 18.1964 37.8747 18.1326C37.935 18.079 37.9878 17.954 38.0456 17.8954C38.2692 17.6683 38.5859 17.5587 38.7618 17.2883C38.9025 17.0664 39.1388 16.9261 39.2946 16.7143C39.3474 16.6429 39.3524 16.5638 39.4052 16.4924C39.4579 16.421 39.6112 16.347 39.6338 16.2577C39.6841 16.0664 39.4026 16.1736 39.3071 16.1506C39.0533 16.0868 39.2267 15.7807 39.3021 15.6353C39.4077 15.4287 39.5509 15.1966 39.5886 14.9645C39.6062 14.8573 39.576 14.7502 39.5962 14.6456C39.6364 14.4314 39.6917 14.2553 39.6891 14.0334C39.6891 13.7834 39.6916 13.5462 39.6514 13.3039C39.6163 13.0871 39.6238 12.8702 39.5786 12.6509C39.5308 12.4162 39.4906 12.1892 39.4328 11.9571C39.3298 11.5362 39.1815 11.1331 39.0206 10.7327C38.9327 10.5107 38.8221 10.299 38.7618 10.0669C38.7065 9.85007 38.7015 9.62815 38.7266 9.40623C38.6035 9.28889 38.2843 9.70722 38.2139 9.75824C38.038 9.87813 37.847 9.96996 37.6435 10.0337C37.5706 10.1179 37.5052 10.1281 37.45 10.0694C37.5153 9.91384 37.5781 9.84497 37.7138 9.74804C37.5505 9.74038 37.2087 9.98526 37.0856 10.0337C36.8518 10.1281 36.6131 10.1944 36.3693 10.2505C36.0476 10.3271 35.7285 10.3883 35.3967 10.3806C35.3239 10.2786 35.3565 10.1893 35.4947 10.1179C35.5877 10.0235 35.6908 9.9419 35.7988 9.86793C36.0074 9.72253 36.2386 9.62305 36.412 9.43428C36.2286 9.38582 35.9873 9.53632 35.8139 9.60519C35.6883 9.65366 35.5626 9.68937 35.4369 9.73528C35.1329 9.85007 34.8514 9.88578 34.5247 9.88578C34.198 9.88578 33.8461 9.9419 33.527 9.88578C33.1877 9.82711 32.9816 9.81691 32.8158 9.83476H32.8208Z" fill="#CC953D"/>
<path d="M33.7205 51.778C32.3936 53.1988 31.9186 54.4921 31.7301 55.4155C31.3908 57.0735 31.8758 58.0632 31.8683 60.6268C31.8683 60.734 31.8683 60.8385 31.8658 60.9431C31.8382 62.3716 31.5743 63.7822 31.1295 65.1392C30.843 66.0091 30.6218 67.3049 31.2451 68.4349C31.2802 68.4961 31.3154 68.5599 31.3481 68.6211C31.5692 69.0445 32.7755 71.1209 35.2585 71.4449C36.1532 71.5622 37.0202 71.0801 37.4072 70.2536C37.5128 70.0266 37.6334 69.6006 37.8721 68.7461C37.8922 68.6772 37.9601 68.4272 38.0606 68.088C38.1159 67.9043 38.1586 67.7564 38.1888 67.662C38.332 67.4197 38.5406 67.083 38.812 66.6952C39.6238 65.5244 40.1088 65.1698 40.2571 64.374C40.3174 64.05 40.232 63.3945 40.3576 63.0909C41.1065 61.2977 40.8075 60.9584 41.2372 60.4202C41.6016 59.9611 41.3277 59.8106 42.0414 59.308C42.4334 59.0326 42.9813 58.5351 43.6674 57.1194C44.7455 54.8926 45.2506 52.2805 45.4215 51.2959C45.1476 51.4158 44.7329 51.6071 44.2529 51.8902C43.4613 52.3545 43.1371 52.6759 42.6822 52.9667C41.8881 53.4692 41.1467 53.5789 40.2697 53.709C39.483 53.8263 37.7515 54.0584 35.8466 53.2141C34.9067 52.7983 34.208 52.2448 33.7255 51.7806L33.7205 51.778Z" fill="#935763"/>
<path d="M36.206 57.2317C35.6782 59.4152 35.5726 61.1293 35.5475 61.6089C35.4696 63.0935 35.5098 65.2489 36.0954 67.8048C36.015 66.9937 35.927 65.8458 35.9119 64.4658C35.8994 63.3715 35.9195 60.8768 36.4321 57.7087C36.5829 56.7751 36.8192 55.5328 37.1911 54.0789C36.8744 54.8977 36.5126 55.9614 36.2034 57.2317H36.206Z" fill="#61323A"/>
<path d="M36.3492 16.3802C34.9293 16.2042 33.5119 16.0307 32.092 15.8547L33.1274 15.2093C31.5366 14.5487 29.2999 14.4313 28.3148 14.666C29.0863 14.8803 29.8679 15.0053 30.2373 15.6863C28.9481 15.5614 27.6563 15.4364 26.3671 15.3114L27.9026 16.1302C27.121 16.2832 26.3394 16.4388 25.5554 16.5919L28.1162 17.3418C27.1135 17.1352 26.0228 17.4107 25.2337 18.0739C25.4121 17.9489 25.6056 17.8214 25.8243 17.8163C26.0429 17.8112 26.2766 17.9897 26.2465 18.2091C26.2238 18.3724 26.0731 18.4821 25.9374 18.5713L23.6002 20.0916C23.8012 20.0916 24.1983 19.7677 24.3792 19.6682C24.628 19.533 24.8718 19.3901 25.1306 19.2881C25.6559 19.0789 26.2088 18.9489 26.739 18.7499C25.7564 19.3315 24.9799 19.9972 24.3868 21.0227C23.7459 22.1297 23.193 23.1399 22.811 24.3694C24.1028 22.4307 25.9022 20.8467 27.9755 19.8187L27.2517 22.1578C28.081 21.6961 29.0813 21.566 29.996 21.7981C30.9108 22.0302 31.7351 22.622 32.2528 23.423C32.2453 23.0965 32.4513 22.798 32.7102 22.6067C32.969 22.4154 33.2832 22.3185 33.5898 22.2216C34.6302 21.8925 35.6706 21.566 36.7136 21.2369C36.0476 21.1017 35.3816 20.9691 34.7182 20.8339C34.977 20.5763 35.3465 20.4768 35.7008 20.3977C36.0552 20.3186 36.4246 20.2421 36.7086 20.0151C36.9925 19.7881 37.1559 19.3544 36.9624 19.0407C37.1986 19.6248 37.4348 20.2064 37.6711 20.7905C38.1536 19.6223 39.282 18.7524 40.5235 18.5994L39.9027 18.6428C39.8072 17.1454 39.958 15.6328 40.3501 14.1865C39.0181 14.9185 37.6887 15.6481 36.3492 16.3802Z" fill="#9D5E26"/>
<path d="M65.5667 19.9233C65.7502 20.5304 65.9261 21.1196 66.0593 21.7369C66.0945 21.9002 66.1498 22.0634 66.1774 22.2292C66.1875 22.2853 66.1825 22.5277 66.2352 22.5251C66.2428 22.4358 66.2051 21.7343 66.2654 21.719C66.3483 21.8874 66.376 22.02 66.4036 22.2012C66.4162 22.2751 66.4312 22.3721 66.474 22.4333C66.5519 22.5455 66.5896 22.5812 66.6122 22.7241C66.6298 22.8414 66.6298 22.9281 66.6951 23.0251C66.7831 23.1552 66.7806 23.2291 66.7806 23.3822C66.7831 23.6092 66.8333 23.8286 66.8308 24.0556C66.8258 24.3694 66.8886 24.6729 66.8761 24.9892C66.9464 24.905 66.9741 24.7418 67.0017 24.6346C67.0319 24.5173 67.047 24.1831 67.1676 24.1347C67.1877 24.3974 67.1349 24.6193 67.0545 24.8668C67.0118 24.9969 66.9716 25.1269 66.9314 25.2596C66.9012 25.3514 66.8283 25.4688 66.8384 25.5657C66.9866 25.5784 67.0872 25.206 67.1073 25.0989C67.062 25.2876 67.0118 25.4815 66.954 25.6652C66.9062 25.8131 66.8484 25.9662 66.7831 26.109C66.7529 26.1702 66.7102 26.2289 66.6976 26.2927C66.7454 26.2417 66.7253 26.2136 66.7479 26.1473C66.768 26.0861 66.8132 26.0325 66.8409 25.9738C66.8409 26.0682 66.7705 26.1651 66.7404 26.2519C66.6625 26.4687 66.5494 26.6345 66.4539 26.8411C66.3835 26.9942 66.2654 27.2161 66.3081 27.3895C66.3835 27.4074 66.4338 27.2951 66.489 27.2594C66.5418 27.4252 66.4312 27.6217 66.3734 27.7722C66.2905 27.9915 66.2051 28.2339 66.1623 28.466C66.1473 28.5527 66.1674 28.642 66.1448 28.7262C66.102 28.8869 65.9713 29.0323 65.9085 29.1853C65.6924 29.7108 65.5793 30.2669 65.3707 30.7949C65.328 30.9046 65.3481 30.9964 65.3104 31.1061C65.2526 31.2744 65.1119 31.4275 65.039 31.5907C64.9963 31.6877 64.9359 31.7948 64.9108 31.8968C64.8882 31.9836 64.9108 31.9606 64.9259 32.0397C64.941 32.1188 64.9334 32.1825 64.9158 32.2616C64.8656 32.5065 64.75 32.7386 64.6771 32.9784C64.6469 33.0804 64.6293 33.1927 64.5766 33.2845C64.4007 33.588 64.1619 33.8508 64.0061 34.1696C63.7623 34.6747 63.4884 35.1517 63.3276 35.6925C63.2848 35.8328 63.2547 35.9807 63.2019 36.1185C63.1717 36.2001 63.1139 36.2766 63.0888 36.3608C63.0637 36.445 63.0184 36.5751 63.031 36.6567C63.031 36.4756 63.026 36.2996 63.0034 36.1185C62.9807 35.9373 62.9028 35.7358 62.9355 35.5624C62.8752 35.6721 62.9255 35.8532 62.8475 35.9373C62.8174 35.871 62.8601 35.7894 62.8274 35.7307C62.8199 35.769 62.8048 35.7996 62.7772 35.8251L62.7395 35.7511C62.5862 35.4476 62.4153 35.1951 62.3449 34.8379C62.2896 34.5574 62.2595 34.2946 62.2519 34.0115C62.2444 33.7283 62.2067 33.4758 62.2042 33.2054C62.2042 33.2233 62.2042 33.2411 62.2042 33.259C62.1916 33.0269 62.2369 32.7871 62.2595 32.5575C62.2796 32.3585 62.3173 32.157 62.3525 31.9606C62.3927 31.731 62.5259 31.5474 62.546 31.3025C62.5636 31.0882 62.4681 30.8612 62.4957 30.652C62.5133 30.527 62.5887 30.3893 62.6189 30.2618C62.7169 29.8383 62.7948 29.3945 62.7596 28.9583C62.7269 28.5655 62.6917 28.1879 62.6942 27.79C62.6968 27.1472 62.644 26.512 62.6465 25.8718C62.6465 25.5861 62.5937 25.3081 62.5937 25.0224C62.5962 24.6244 62.5862 24.2316 62.6314 23.8362C62.7068 23.1832 62.7043 22.5277 62.7646 21.8721C62.7948 21.5558 62.8425 21.242 62.8777 20.9283C62.8878 20.8339 62.8878 20.5202 62.9682 20.4819C63.036 20.5839 63.1039 20.6809 63.1366 20.8007C63.1516 20.8594 63.1441 20.9359 63.1918 20.9614C63.2019 20.89 63.1868 20.6222 63.2949 20.6145C63.3904 20.7191 63.4432 20.811 63.511 20.9334C63.9257 20.8518 64.1669 20.3952 64.4685 20.1401C64.7374 19.9105 65.2174 19.709 65.5667 19.9233Z" fill="#9D5E26"/>
<path d="M65.3732 16.3139C65.7954 17.8418 66.2629 19.5075 65.9638 21.0865C65.8406 21.7369 65.7075 22.4894 65.9186 23.1373C66.1322 23.7929 66.5091 24.8898 66.9992 25.3693C66.6549 24.9892 66.283 24.7673 65.8683 24.4791C65.5994 24.2903 65.054 23.6781 64.7776 23.6654C64.7525 24.076 64.5514 24.4255 64.5967 24.8438C64.3102 24.1424 64.0563 23.1679 63.521 22.6017C63.4205 22.9613 63.5035 23.3338 63.3753 23.6832C63.0586 24.5505 63.4658 25.2953 63.4708 26.155C63.4758 26.8896 63.3652 27.6293 63.3753 28.3818C63.3853 29.1726 63.521 29.7797 63.2773 30.5551C63.0762 31.2005 62.8526 31.8408 62.6917 32.4861C62.37 33.7743 62.071 34.8048 62.2796 36.1465C62.4278 37.0955 62.3776 38.0877 62.3524 39.0162C62.3349 39.7254 62.1313 40.4983 61.9679 41.1844C61.8574 41.6461 61.8825 42.1257 61.7066 42.5746C61.2969 43.6205 60.1459 44.0388 60.5078 45.2479C60.6511 45.7275 60.9526 46.3065 61.2467 46.7019C61.4678 47.0029 61.875 47.2452 61.9152 47.6584C61.973 48.2222 61.6211 48.4109 61.9956 48.9695C62.2494 49.3496 62.659 49.5129 62.3022 49.9465C61.7895 50.5689 60.455 50.773 59.7438 50.7092C58.9874 50.6429 58.0977 50.4949 57.3363 50.7169C57.2885 49.8113 57.3916 48.7833 57.6956 47.911C58.0399 46.9212 58.3139 45.8091 58.3038 44.7505C58.2938 43.7455 58.2711 42.692 58.3641 41.6691C58.4119 41.1334 58.6607 39.3657 59.3292 39.2611C59.6659 39.2075 59.5478 39.4371 59.7991 39.58C60.0203 39.7024 60.1283 39.6259 60.3545 39.608C60.6385 39.5851 60.5279 39.4142 60.8169 39.608C60.935 39.6871 61.018 39.9243 61.0833 40.0468C61.5432 39.8963 61.5281 38.1745 61.5256 37.7281C61.5206 36.7664 60.9753 35.9578 61.1889 34.9528C61.4226 33.8661 61.875 32.8509 62.0107 31.7413C62.1614 30.5373 62.1062 29.471 61.9629 28.2696C61.8398 27.2493 61.8548 26.2162 61.8775 25.1908C61.8951 24.4663 61.7166 23.4052 61.9026 22.7139C61.8599 22.8695 61.8322 22.9639 61.8599 23.1271C61.4703 23.0965 61.3774 21.3033 61.3296 20.9436C61.2014 20.0177 60.7818 19.4131 60.4073 18.5841C60.0806 17.8622 59.9801 16.9159 59.5428 16.2603C59.2488 15.819 58.1832 14.9773 57.6856 15.4517C57.7333 14.9415 57.7057 14.3523 57.6303 13.8345C57.5775 13.4723 57.2559 12.7555 57.4644 12.4417C57.9344 12.9187 58.3616 11.8525 58.4873 11.5413C58.0877 11.4163 58.1128 10.6536 57.9017 10.2735C57.6127 9.75571 57.276 9.54399 56.7959 9.23024C57.0372 9.03383 57.2659 9.28126 57.5474 9.29401C56.9844 8.9522 56.4491 8.67416 55.9214 8.26348C56.4165 8.18185 57.0221 7.90636 57.5273 7.7278C58.3792 7.42681 58.731 7.02888 59.0904 6.16925C59.206 6.87583 59.5654 7.31967 59.6986 7.98034C59.872 7.63342 60.4324 7.81708 60.6536 8.04666C60.8873 8.29154 60.7817 8.48285 60.8446 8.84507C60.92 9.29656 61.0356 9.79907 61.121 10.2225C61.2467 9.78377 61.7292 9.71235 61.9705 10.0567C62.2117 10.4011 62.1062 11.1051 62.1489 11.4979C62.2318 12.2734 62.3751 13.1151 62.6993 13.8192C63.1918 14.8905 63.4105 16.0231 63.8528 17.1046C64.1141 16.8751 64.1544 16.3802 64.2951 16.0741C64.3026 16.3088 64.2901 16.5486 64.3378 16.7781C64.6519 16.2221 64.9209 15.3879 64.9007 14.7349C64.9661 15.2757 64.9887 15.9364 65.1169 16.4389C65.1696 16.444 65.3229 16.3011 65.3757 16.3062L65.3732 16.3139Z" fill="#332315"/>
<path d="M39.6766 57.8974C39.9179 59.3667 40.9533 60.2085 41.2322 60.4228C41.2322 60.4228 41.9585 60.9431 42.5843 59.8667C42.8557 59.3999 42.6798 58.7928 42.2023 58.5479C42.0716 58.4816 41.9384 58.4076 41.8027 58.3234C40.7221 57.6551 40.0988 56.7725 39.7746 56.219C39.6716 56.5863 39.5585 57.1858 39.6741 57.8974H39.6766Z" fill="#F9F4F2"/>
<path d="M53.4233 56.8669C53.2097 58.3387 52.1894 59.2034 51.9154 59.4202C51.9154 59.4202 51.1967 59.9534 50.5533 58.8897C50.2744 58.428 50.4377 57.8183 50.9102 57.5658C51.0384 57.4969 51.1716 57.4204 51.3047 57.3337C52.3728 56.6449 52.9785 55.7496 53.2926 55.1884C53.4032 55.5532 53.5263 56.1501 53.4233 56.8669Z" fill="#F9F4F2"/>
<path d="M40.9834 61.0145C42.1093 61.4252 44.5168 61.9047 47.5074 61.4456C50.3674 61.0068 52.3477 59.9457 53.3102 59.2366C53.4484 59.3386 53.6244 59.4993 53.7752 59.7314C54.1044 60.2339 54.1119 60.7518 54.1044 60.966C53.1142 61.7593 50.8449 63.3587 47.51 63.874C44.0896 64.4045 41.5262 63.5602 40.3501 63.0883C40.4607 62.8485 40.4883 62.6368 40.614 62.3715C40.8603 61.8435 40.9482 61.3563 40.9784 61.0119L40.9834 61.0145Z" fill="#121212"/>
<path d="M22.0999 28.2339C22.4568 28.4278 22.7734 28.6726 23.0499 28.966C23.0298 29.0093 23.0373 29.0502 23.07 29.0859C23.1127 29.2007 23.2283 29.2823 23.2936 29.3818C23.4092 29.5603 23.5399 29.7236 23.658 29.9021C23.7158 29.9914 23.7762 30.1317 23.8516 30.2057C23.9521 30.3026 23.9068 30.2822 24.04 30.1827C24.2285 30.0399 24.3743 30.1776 24.4296 30.3613C24.4648 30.4761 24.5251 30.5832 24.5402 30.7056C24.603 30.7158 24.6608 30.7031 24.7161 30.6648C24.8191 30.7082 24.8744 30.7873 24.887 30.9072C24.9674 31.0934 25.0729 31.2617 25.1709 31.4403C25.3293 31.7234 25.3846 32.0372 25.5353 32.3178C25.6334 32.4989 25.7062 32.7029 25.7867 32.8917C25.8419 33.0192 25.8872 33.1544 25.945 33.282C25.9852 33.3687 26.1435 33.486 26.0757 33.5881C25.9023 33.6059 25.8042 33.5575 25.6509 33.4758C25.568 33.4299 25.4298 33.3202 25.3519 33.4146C25.475 33.5932 25.6736 33.7564 25.8344 33.9069C25.9173 33.986 26.0405 34.0549 26.1008 34.1544C26.141 34.2232 26.1636 34.3278 26.1913 34.4018C26.2214 34.4834 26.2491 34.5727 26.2868 34.6492C26.3219 34.7206 26.43 34.7691 26.3647 34.8609C26.3219 34.9196 26.1561 34.9528 26.0933 34.9834C25.9978 35.0267 25.8344 35.0624 25.7917 35.167C25.9575 35.3048 26.1234 35.3124 26.3144 35.3813C26.5657 35.4706 26.4099 35.6185 26.3395 35.7971C26.3169 35.8558 26.3069 35.9017 26.2641 35.9527C26.2139 36.0139 26.1511 36.019 26.0933 36.0598C26.0329 36.1032 25.9274 36.1772 25.9023 36.2358C25.9777 36.2639 26.0656 36.2511 26.1435 36.2358C26.2717 36.2078 26.3823 36.2027 26.5104 36.2001C26.7844 36.1899 27.0457 36.1185 27.3222 36.1542C27.4302 36.167 27.5308 36.1925 27.6388 36.2001C27.7268 36.2052 27.8776 36.1746 27.9303 36.2715C28.0108 36.4195 27.7519 36.4629 27.7846 36.5904C27.9002 36.5725 28.0309 36.4909 28.1389 36.4475C28.3224 36.3736 28.4908 36.3379 28.6818 36.2843C28.8929 36.2282 29.1115 36.218 29.3251 36.1899C29.4659 36.1721 29.5764 36.1159 29.7046 36.0624C29.8328 36.0088 29.9735 35.9884 30.1042 35.9246C30.3756 35.7971 30.647 35.6287 30.8933 35.4604C31.1396 35.292 31.4286 35.1415 31.6749 34.9553C31.8005 34.8609 32.0971 34.6875 32.1021 34.5217C32.1046 34.3941 32.0317 34.2947 31.9061 34.2947C31.788 34.3227 31.6749 34.3661 31.5693 34.4273C31.5291 34.486 31.4814 34.5038 31.4261 34.4758C31.3884 34.2895 31.4487 34.1135 31.4588 33.9273C31.4688 33.7411 31.5467 33.5651 31.5492 33.384C31.5568 32.9198 31.0843 32.7514 30.7274 32.6315C30.5113 32.5601 30.4058 32.4428 30.3379 32.2259C30.2625 31.9887 30.1846 31.7566 30.059 31.5398C29.9258 31.3076 29.7473 31.1138 29.6543 30.8638C29.5689 30.6393 29.4483 30.4353 29.3678 30.2031C29.202 30.1802 29.119 30.5985 29.0713 30.726C28.9557 30.7056 29.0562 30.448 29.021 30.3664C28.9683 30.249 28.8376 30.2312 28.7295 30.1725C28.5461 30.073 28.4707 29.92 28.3475 29.7618C28.2369 29.6241 28.0736 29.5399 27.9404 29.4277C27.8298 29.3358 27.7218 29.2491 27.6036 29.17C27.2995 28.9609 27.0231 28.7288 26.7391 28.4915C26.5532 28.3359 26.3873 28.1829 26.234 27.9941C26.1184 27.8513 26.0153 27.688 25.8746 27.5707C25.5756 27.3156 25.2262 27.1141 24.9146 26.8794C24.7462 26.7544 24.5703 26.6192 24.4447 26.4483C24.3868 26.3692 24.221 26.0223 24.1305 26.007C24.216 26.2009 24.3617 26.3845 24.4271 26.5835C24.3316 26.6524 24.2411 26.5427 24.1556 26.4968C24.0325 26.4305 23.9848 26.41 23.8315 26.4075C23.5877 26.4024 23.2509 26.3412 23.0373 26.4636C23.0423 26.5988 23.0926 26.6779 23.1906 26.7748C23.2534 26.8386 23.359 26.8769 23.3791 26.9661C23.2484 27.086 23.07 27.1396 22.9443 27.262C22.8765 27.3283 22.8337 27.4278 22.7684 27.4993C22.698 27.5783 22.6176 27.6498 22.5447 27.7263C22.4166 27.8589 22.2783 27.9176 22.1301 28.0196C21.9567 28.137 21.9341 28.2517 22.1075 28.2441L22.0999 28.2339Z" fill="#946930"/>
<path d="M75.9358 21.5481C75.9207 22.5302 76.1243 23.4613 76.3128 24.4331C76.6043 25.9483 76.8958 28.9302 78.8535 29.1037C76.7224 29.624 77.1496 31.7438 77.0918 33.4452C77.034 35.1823 76.363 36.8735 75.9207 38.5443C75.398 40.5135 74.9105 42.4981 74.345 44.4545C74.2219 43.0133 73.0055 41.2354 72.4175 39.9141C72.2993 40.0799 72.1862 40.2508 72.0581 40.4064C72.0983 40.0544 72.2566 38.1106 72.5054 37.9857C72.2943 38.0749 72.0832 38.1668 71.8746 38.256C73.4403 34.9553 74.066 31.203 73.6539 27.563C73.1211 27.3028 72.8522 26.5937 73.0759 26.0376C72.714 26.3054 72.3521 26.5733 71.9877 26.8411C69.7887 23.8821 68.6201 20.1528 68.7282 16.449C69.2233 17.4898 70.0023 18.4769 70.2838 19.6172C70.1707 19.3315 70.9272 18.1096 71.0327 17.7449C71.3242 18.0305 71.6132 18.3188 71.9098 18.5968C71.8696 18.4871 71.8847 18.2958 71.8595 18.1964C72.6487 18.5917 73.4152 19.0279 74.1842 19.4641C74.4983 19.6427 76.926 20.6247 75.9459 21.2624C75.9408 21.3594 75.9358 21.4563 75.9358 21.5507V21.5481Z" fill="#CC953D"/>
<path d="M55.3459 54.0788C55.3157 54.4028 55.2504 54.6502 55.2001 54.8083C55.0041 55.418 54.6598 55.8822 54.2426 56.4358C54.0415 56.7011 54.0214 56.6551 53.9988 56.7546C53.9109 57.1296 53.7953 57.905 54.0918 58.6091C54.323 59.1575 55.0141 59.331 55.4615 58.9432C55.469 58.9381 55.474 58.933 55.4816 58.9254C56.2707 58.2163 56.62 57.5836 56.62 57.5836C57.0975 56.7878 57.1779 55.8746 57.2231 55.3389C57.3161 54.2446 57.1478 53.2932 56.9316 52.5687C56.7859 52.7779 56.6049 53.0049 56.3838 53.237C56.0194 53.6146 55.6525 53.8875 55.3484 54.0788H55.3459Z" fill="#121212"/>
<path d="M37.073 5.58C37.3896 5.79172 37.8244 6.12333 38.2542 6.61819C39.1589 7.65893 39.468 8.75578 39.6439 9.40369C39.9002 10.3526 39.9379 11.174 39.958 11.6892C39.9782 12.1611 39.9606 12.4519 39.958 12.7529C39.943 14.3752 40.325 15.5384 40.6894 16.9082C41.775 20.9921 41.0186 20.584 41.9585 23.5047C42.3279 24.6576 42.7225 25.5785 42.2726 26.1269C41.8002 26.7085 40.8326 26.3208 39.8676 27.0401C39.6992 27.1651 39.556 27.3079 39.4328 27.4533C38.9553 28.0273 38.3522 28.4788 37.6761 28.7849C36.7714 29.193 35.6707 30.0628 35.5727 31.8816C35.535 32.606 35.442 33.3253 35.251 34.0217C35.2183 34.1416 35.1831 34.2615 35.1429 34.3865C34.8112 35.4476 34.0422 37.8939 32.0191 39.1004C31.2451 39.5621 30.9586 39.4397 30.1745 40.0365C30.1745 40.0365 30.1644 40.0442 30.1544 40.0519C29.991 40.1768 28.4128 41.6232 27.9705 43.0108C27.3523 44.9494 28.8702 47.0386 29.8352 48.365C30.4585 49.2246 31.6623 50.6327 33.7205 51.778C33.7205 51.778 35.9346 54.413 40.1817 53.6835C40.4029 53.6452 40.624 53.612 40.8452 53.5814C41.3151 53.5177 42.2048 53.3519 42.6747 52.9667C42.6747 52.9667 42.7803 52.88 42.9512 52.7473C44.9114 51.2372 47.6683 51.2959 49.5079 52.9539C49.6109 53.0483 49.724 53.1274 49.8472 53.1912C50.6715 53.6146 53.9134 55.117 55.9741 53.6682C55.9741 53.6682 58.6054 51.8494 58.6054 47.0641C58.6054 47.0641 58.6908 44.4597 57.1729 41.4829C56.7859 40.7253 56.4843 39.9269 56.2832 39.0978C55.9364 37.6796 55.1272 35.3456 53.3429 33.6824C52.5714 32.9631 52.021 32.0346 51.7018 31.0219C51.5611 30.5781 51.3676 30.1164 51.1012 29.6496C49.7215 27.2416 47.2536 26.3208 45.6905 25.9662C44.7782 25.7596 44.0318 25.104 43.7051 24.2163C43.4965 23.6475 43.2779 22.9996 43.0643 22.2777C42.4259 20.1121 42.1545 17.7066 41.6645 12.985C41.3227 9.69959 41.3553 8.86802 41.6092 7.73545C41.9308 6.29423 42.4888 5.17952 42.926 4.44489C42.5667 4.68211 42.1319 5.01882 41.7022 5.49072C41.0563 6.1973 40.6869 6.91408 40.4783 7.41915C40.0259 6.93959 39.2569 6.26873 38.1386 5.85549C37.7541 5.71265 37.3896 5.62592 37.0655 5.57235L37.073 5.58Z" fill="white"/>
<path d="M22.2104 26.086C22.3336 26.1422 22.9594 26.4049 23.6856 26.1294C23.7736 26.0962 23.854 26.058 23.9269 26.0172C24.4019 25.7544 24.7135 25.257 24.7613 24.7111C24.7939 24.3515 24.8794 23.9051 25.0855 23.4357C25.6509 22.1399 26.9829 20.9742 28.5887 20.9308C28.8375 20.9232 29.2773 20.941 29.8126 21.1196C30.1996 21.2497 30.5464 20.8364 30.3479 20.4768C30.1921 20.1936 29.9257 19.9003 29.4734 19.6707C29.4734 19.6707 30.8531 20.0865 31.2979 21.3517C31.4336 21.7394 31.6899 22.071 32.0392 22.2777C32.8133 22.7343 34.0899 23.6296 34.4795 24.7443C34.6076 25.1167 35.0298 25.2902 35.3867 25.1397L35.3968 25.1346C36.3166 24.7418 36.6634 23.826 36.7363 23.6143C36.6986 24.0326 36.6031 24.6219 36.3467 25.2825C35.5878 27.239 34.0321 28.2236 33.5446 28.5221C31.9161 29.5195 28.8878 30.4429 26.6737 28.8435C26.0505 28.3945 25.6283 27.8436 25.3443 27.3538C25.1156 26.961 24.7035 26.7237 24.2561 26.7237C24.2486 26.7237 24.241 26.7237 24.2335 26.7237C23.2961 26.7186 22.5849 26.3284 22.218 26.086H22.2104Z" fill="#0D0909"/>
<path d="M37.0734 46.0004C37.0683 45.906 37.0557 45.8116 37.0329 45.7172C36.9849 45.8142 36.9874 45.934 37.0734 46.0004Z" fill="#DDDDDD"/>
<path d="M53.0865 51.8698C53.26 51.9923 53.4409 52.0994 53.6269 52.1836C53.5515 52.0764 53.3027 51.9183 53.0865 51.8698Z" fill="#DDDDDD"/>
<path d="M51.2696 49.3853C50.8901 48.3395 50.8951 47.0487 51.644 46.2325L51.5108 46.0641C51.6139 46.1968 52.2874 45.1178 52.3226 45.0616C52.6091 44.6408 52.9257 44.2454 53.2725 43.8755C53.1594 43.8857 53.0488 43.8985 52.9358 43.9087C53.0488 43.8959 53.4208 43.0516 53.4912 42.9241C53.657 42.6333 53.848 42.3705 53.9561 42.0517C53.9209 42.1563 53.7952 41.7201 53.8078 41.7481C53.7525 41.6308 53.745 41.5619 53.6369 41.465C53.4535 41.3043 53.1544 41.2456 52.9232 41.2074C52.2245 41.09 51.83 41.8884 51.458 42.3501C50.9554 42.9725 50.4352 43.5822 49.8974 44.1765C49.6536 44.4469 49.4048 44.7122 49.1535 44.9775C49.048 44.878 48.9198 44.804 48.7916 44.7351C48.6434 44.6561 48.5303 44.5719 48.3996 44.4699C48.2387 44.3449 48.0402 44.3168 47.8618 44.2275C47.7311 44.1638 47.6281 44.0617 47.4898 44.0107C47.3265 43.9495 47.1481 43.9112 46.9822 43.8653C46.658 43.776 46.3112 43.7276 46.0071 43.572C45.7281 43.4291 45.5246 43.2837 45.2104 43.2378C44.655 43.1562 44.1072 43.2046 43.5543 43.1485C42.9763 43.0899 42.4234 42.9164 41.8755 42.7251C41.1769 42.4828 40.5888 42.0134 39.8726 41.817C39.473 41.7073 39.0709 41.618 38.6789 41.4803C38.41 41.3859 38.1511 41.2686 37.8797 41.1818C37.7214 41.1308 37.4876 41.0722 37.3142 41.062C37.176 41.016 37.0478 41.0569 36.9272 41.1767C36.8568 40.7814 36.7865 40.386 36.7161 39.9906C36.6307 39.5085 36.4899 39.3172 36.2411 38.9218V38.9703C36.025 40.2584 35.7109 41.5339 35.3967 42.8144C35.6154 42.7047 35.8365 42.5976 36.0552 42.4879C36.0677 42.5236 36.0828 42.5567 36.0979 42.5925C36.2939 43.549 36.3366 44.5413 36.2185 45.5106C36.3391 45.3065 36.4598 45.1025 36.5804 44.9009C36.8066 45.1203 36.9674 45.4086 37.0378 45.7198C37.0705 45.6509 37.1283 45.5922 37.2037 45.5744C37.3821 45.531 37.5655 45.6636 37.6435 45.832C37.7214 46.0004 37.7188 46.1942 37.7138 46.3804C37.6636 47.8599 37.4273 49.3317 37.0127 50.75C37.1283 50.75 37.548 50.0689 37.6334 49.9618C37.837 49.7016 38.0355 49.3725 38.2818 49.1608C38.3295 49.37 38.3069 49.6123 38.3119 49.8317C38.3572 49.7552 38.3999 49.6812 38.4451 49.6047L38.5306 49.8342C38.5984 49.722 38.7869 49.773 38.8447 49.8904C38.9025 50.0077 38.8749 50.148 38.8447 50.2755C38.7844 50.5357 38.7241 50.7985 38.6638 51.0586C39.0131 50.6071 39.5082 50.2781 40.0535 50.1327C39.9354 50.2857 39.8173 50.4388 39.6992 50.5944C40.1289 50.4617 40.5612 50.3291 40.9909 50.1965C40.8904 50.5306 40.7899 50.8622 40.6893 51.1964C41.0311 50.9719 41.3754 50.7449 41.7172 50.5204C41.6996 50.5969 41.682 50.6735 41.6644 50.75C41.8755 50.75 42.3153 50.4133 42.5063 50.3112L43.5769 49.7424C43.5518 49.8547 43.5241 49.9694 43.499 50.0817C43.5342 49.9235 43.7855 49.8802 43.8684 50.0179C44.3158 49.8189 44.9189 49.8368 45.4039 49.7909C46.0699 49.7297 46.746 49.7552 47.4069 49.8674C48.2262 50.0077 49.0178 50.2832 49.7768 50.6224C50.4629 50.9285 51.1741 51.5101 51.8903 51.6912C52.1994 51.7703 52.511 51.8392 52.8252 51.903C52.8905 51.8519 52.9885 51.8519 53.0941 51.8749C52.2622 51.2857 51.6063 50.2985 51.2771 49.3904L51.2696 49.3853Z" fill="#DDDDDD"/>
<path d="M38.0758 36.7511C38.5709 36.1491 38.6739 35.6465 38.8373 35.3073C39.3851 34.1722 41.089 33.912 42.7929 33.6543C43.7856 33.5038 45.9645 33.1978 48.5103 34.0956C49.7693 34.5395 50.6791 34.8609 51.3325 35.7792C51.8954 36.5674 52.1618 37.6489 52.4508 38.8121C52.6016 39.4192 52.6393 39.733 52.6519 39.8452C52.7323 40.5722 52.8781 41.8782 52.1769 42.5414C51.8326 42.8654 51.6818 42.6639 51.2294 43.0261C50.6087 43.5235 50.6841 44.0668 50.1915 44.679C49.8121 45.1509 49.3597 45.332 48.7088 45.5948C47.4145 46.1151 46.1806 46.0514 44.7456 45.9774C43.8685 45.9315 43.7353 45.8524 43.1523 45.9085C42.5944 45.9621 42.2375 46.082 41.7625 45.9162C41.4434 45.8039 41.2675 45.633 41.0312 45.429C40.0662 44.5948 39.8903 44.7224 38.8021 43.8934C38.3296 43.5337 37.9024 43.2072 37.5104 42.6384C36.9424 41.8119 36.8142 40.9931 36.7338 40.4421C36.5981 39.5263 36.4448 38.478 37.0228 37.7051C37.347 37.2714 37.5908 37.3377 38.0758 36.7511Z" fill="#1F1C24"/>
<path d="M48.6685 40.4472C48.5001 40.3171 48.5177 40.0595 48.6986 39.9523C48.6986 39.9523 48.7011 39.9523 48.7036 39.9498C49.1284 39.6998 49.4048 39.5365 49.5531 39.2381C49.7139 38.9141 49.7215 38.4269 49.4551 38.0724C49.053 37.5392 48.3016 37.677 48.2211 37.6948C47.52 37.8351 47.0525 38.5315 46.9847 39.1769C46.9269 39.7228 47.1681 40.1436 47.2486 40.2788C47.7989 41.2124 49.0228 41.4905 49.9049 41.4063C50.5734 41.3425 51.0911 41.0645 51.4228 40.8349C51.1715 40.9344 50.6463 41.1053 49.9878 41.0109C49.4023 40.9267 48.96 40.6691 48.671 40.4446L48.6685 40.4472Z" fill="#0E0C0E"/>
<path d="M20.9287 14.4594C20.8835 13.5411 20.8785 12.5335 20.7805 11.6484C19.5415 13.1457 18.9635 14.8905 18.0462 16.574C17.3425 17.8673 16.5006 19.4105 16.3222 20.9155C15.9427 24.1117 15.6411 27.1472 16.4881 30.2847C16.8324 31.5576 17.4456 32.7003 17.8577 33.9273C18.3176 35.292 18.6242 36.6975 19.0841 38.0622C19.8632 40.3834 20.597 42.7404 21.4565 45.0438C22.1074 46.7834 22.9618 48.4364 23.8892 50.0383C24.3591 50.852 25.0251 51.6173 25.392 52.4845C25.4146 51.6173 25.2438 50.7347 25.2412 49.8521C25.2412 48.8828 25.3242 47.939 25.191 46.9748C25.0377 45.8805 24.5652 44.8805 24.2159 43.8449C23.9068 42.9266 23.7937 41.9726 23.5725 41.0466C23.6153 41.1181 23.6605 41.192 23.6982 41.2711C23.178 39.636 22.4542 38.08 21.9491 36.4271C21.4439 34.7742 21.1197 32.8483 20.7654 31.0678C20.5015 29.7414 20.4412 28.4736 20.7176 27.1548C21.0293 25.6754 20.9338 24.1219 21.1398 22.6169C21.4339 20.4717 22.2255 18.5458 22.7633 16.5485C22.517 16.7679 22.3311 17.0612 22.0496 17.1454C22.0245 17.0051 22.042 16.8674 22.1024 16.7373C21.2303 17.2347 21.3509 15.8445 21.2228 15.2884C21.0946 14.7323 20.9011 14.1762 20.9287 14.467V14.4594Z" fill="#9D5E26"/>
<path d="M68.6378 20.3697C68.6378 21.6757 68.6704 23.0123 68.4417 24.2903C68.213 25.5555 67.7732 26.4279 67.0495 27.4686C66.6826 27.9992 66.4187 28.5604 66.107 29.1267C65.9236 29.4583 65.6848 29.7542 65.5165 30.0985C64.8254 31.5015 64.3856 33.0065 64.0388 34.5446C63.8528 35.3685 63.5412 36.0726 63.2924 36.8659C63.0059 37.7816 62.9355 38.1107 62.5711 39.3147C62.2067 40.5187 62.0258 41.1232 61.9026 41.414C61.1939 43.0797 60.2188 43.9393 60.2766 43.9929C60.347 44.0567 61.9629 42.8476 63.1064 40.7508C63.6794 39.7024 63.7699 38.7509 64.3906 37.1414C64.8304 35.9986 64.8203 34.7946 65.23 33.6416C65.6371 32.4989 65.8683 31.3408 66.4488 30.2643C67.2731 28.7364 68.8966 27.6931 69.6154 26.109C69.6229 26.0912 70.0928 25.4841 70.1984 25.3412C70.5151 25.0683 70.5578 24.6168 70.4346 24.1985C70.3869 24.2699 70.3668 24.2648 70.3341 24.3541C70.216 23.4945 69.7812 22.719 69.6606 21.8211C69.5349 20.8824 69.3716 19.9284 69.3213 18.9846C69.2635 17.9337 69.2434 16.9541 69.0725 15.9211C68.9846 15.3905 68.9192 14.8472 68.9544 14.3089C68.9821 13.9084 69.2861 13.3269 69.1756 12.9646C69.1002 12.7172 68.8463 12.2122 68.1653 11.6025C67.3184 10.8475 66.8308 10.2276 66.6172 10.5847C66.5795 10.6459 66.7152 11.0056 66.8434 11.4086C67.0017 11.901 67.0093 12.156 67.1399 12.6815C67.3536 13.5309 67.5898 14.3727 67.8135 15.2196C68.2533 16.9031 68.6403 18.6198 68.6403 20.3722L68.6378 20.3697Z" fill="#5B3E28"/>
<path d="M41.0186 40.6845C41.1668 40.5314 41.1166 40.2789 40.9205 40.1998C40.9205 40.1998 40.918 40.1998 40.9155 40.1998C40.4606 40.011 40.1641 39.8886 39.9781 39.6157C39.7746 39.3172 39.7017 38.8351 39.9178 38.4474C40.242 37.8632 41.006 37.8964 41.0889 37.899C41.8026 37.9398 42.3606 38.5647 42.5139 39.1922C42.6445 39.7253 42.4636 40.1768 42.4033 40.3197C41.9861 41.3196 40.81 41.7686 39.9254 41.8094C39.2544 41.84 38.704 41.6385 38.3446 41.4548C38.606 41.5186 39.1513 41.613 39.7896 41.4267C40.3576 41.2609 40.7622 40.9446 41.016 40.6819L41.0186 40.6845Z" fill="#0E0C0E"/>
<path d="M27.968 23.5888C27.3774 24.3515 27.3145 25.354 27.782 26.0402C28.267 26.7544 29.1114 26.8156 29.1617 26.8182C29.7548 26.8513 30.4182 26.5886 30.7801 25.9917C31.2049 25.2877 30.9485 24.5454 30.8983 24.4153C30.5665 23.5174 29.6869 23.2598 29.5939 23.2343C30.4107 23.3541 31.0717 23.9408 31.2576 24.7061C31.4863 25.6524 30.9259 26.6039 30.0941 26.9763C29.3024 27.3283 28.3625 27.1115 27.7971 26.4764C27.0859 25.6779 27.3397 24.6398 27.3522 24.5913C27.493 24.0607 27.8147 23.7291 27.968 23.5888Z" fill="#FCE38D"/>
<path d="M29.4934 24.7341C29.796 24.7341 30.0413 24.4851 30.0413 24.178C30.0413 23.8709 29.796 23.6219 29.4934 23.6219C29.1908 23.6219 28.9456 23.8709 28.9456 24.178C28.9456 24.4851 29.1908 24.7341 29.4934 24.7341Z" fill="white"/>
<path d="M21.0922 41.4344C22.0622 43.7811 23.0348 46.1279 24.0049 48.4747C24.7312 50.2322 25.465 52.005 25.7992 53.8824C25.9375 54.6579 26.0053 55.4614 25.852 56.2343C25.6987 57.0072 25.2941 57.7546 24.6482 58.1933C24.2964 57.0454 23.2786 56.7291 22.3336 56.1501C21.1952 55.4563 20.0844 54.7165 19.0013 53.9334C17.2798 52.6937 15.6337 51.3392 14.0781 49.8929C13.2161 49.0919 11.1578 47.1023 11.8439 45.6968C11.9645 45.4494 12.2561 45.304 12.5224 45.3524C12.4998 45.2096 12.4697 45.0821 12.4797 44.9392C12.7587 45.0897 14.7214 47.1151 14.3872 47.3752C15.2894 46.6636 16.1916 45.9544 17.0938 45.2428C16.7545 43.5694 16.4128 41.8986 16.0735 40.2253C15.5859 37.8352 15.1135 35.2741 16.0257 33.0141C16.4907 34.3533 16.9405 35.6976 17.4482 37.0214C17.707 37.6847 17.9834 38.3377 18.2674 38.9907C18.4258 39.3529 18.9786 40.2482 18.9409 40.6309L19.054 39.4269L19.1822 39.8809C19.7049 39.3146 19.8557 38.4244 19.5491 37.7153C20.0618 38.955 20.5745 40.1947 21.0871 41.4344H21.0922Z" fill="#946930"/>
<path d="M49.802 22.5787C50.38 22.0252 50.4479 21.3339 50.4604 21.1732C50.4252 20.9844 50.4026 20.7039 50.5057 20.4105C50.659 19.9743 51.0208 19.7065 51.727 19.357C52.6594 18.8953 53.1997 18.63 54.0667 18.4923C54.8634 18.3647 56.2557 18.1454 57.6479 18.9387C58.0098 19.1453 59.1608 19.8009 59.5981 21.1885C60.1485 22.9409 59.1206 24.4714 58.9346 24.7495C57.6907 26.6039 55.5344 26.8003 54.7 26.8768C53.4435 26.9916 51.6516 26.7901 51.4104 26.0121C51.2696 25.5581 51.722 25.1193 51.4707 24.5735C51.3023 24.2061 50.9203 24.025 50.6539 23.9332C50.6539 23.9332 49.0204 24.0556 48.3394 23.1654C48.4901 23.1654 49.2039 23.1526 49.802 22.5787Z" fill="#100B0C"/>
<path d="M53.7249 20.9334C53.1343 21.6961 53.0715 22.6986 53.5389 23.3848C54.024 24.099 54.8684 24.1602 54.9186 24.1628C55.5117 24.1959 56.1752 23.9332 56.5371 23.3363C56.9618 22.6323 56.7055 21.89 56.6552 21.7599C56.3235 20.862 55.4439 20.6044 55.3509 20.5789C56.1677 20.6987 56.8286 21.2854 57.0146 22.0507C57.2433 22.997 56.6829 23.9485 55.851 24.3209C55.0594 24.6729 54.1195 24.4561 53.554 23.821C52.8428 23.0225 53.0966 21.9844 53.1092 21.9359C53.2499 21.4053 53.5716 21.0737 53.7249 20.9334Z" fill="#FCE38D"/>
<path d="M54.4813 22.1195C54.7839 22.1195 55.0292 21.8706 55.0292 21.5635C55.0292 21.2564 54.7839 21.0074 54.4813 21.0074C54.1788 21.0074 53.9335 21.2564 53.9335 21.5635C53.9335 21.8706 54.1788 22.1195 54.4813 22.1195Z" fill="white"/>
<path d="M20.4764 11.1076C19.8581 11.9469 15.0078 18.8723 15.7065 28.7466C15.7567 29.4583 15.9352 30.1521 16.2342 30.7975C16.9806 32.3994 18.496 35.8506 18.9408 38.3147C19.0615 38.9779 19.2726 39.6208 19.5817 40.2177C19.9612 40.9523 20.5342 42.3297 21.2479 44.8653C21.3685 45.2912 21.5168 45.707 21.6977 46.1075C22.3913 47.6533 24.1832 51.3928 25.681 52.2984C25.681 52.2984 22.5748 48.1074 21.8812 45.1025C21.8812 45.1025 20.9589 41.3808 20.0667 39.5315C19.7551 38.8836 19.5063 38.2076 19.3052 37.5138C18.7172 35.4757 17.5662 31.6749 16.6916 29.8919C16.4554 29.4124 16.3322 28.8843 16.3222 28.3487C16.2694 25.6932 16.5257 17.9847 20.8257 11.8499C20.9538 11.6663 21.077 11.48 21.1876 11.2887C21.5268 10.702 22.321 9.37307 22.6602 9.14349C22.6602 9.14349 21.3886 9.81181 20.6221 10.9036C20.5744 10.9724 20.5266 11.0413 20.4764 11.1076Z" fill="#A17759"/>
<path d="M22.3512 34.6925C22.399 35.2996 22.2633 35.6746 22.7156 36.0547C23.085 36.3659 23.5424 36.1695 23.8691 36.3659C23.6078 37.2893 23.6053 38.2127 23.8113 39.1488C24.0526 40.2457 24.6809 41.1155 25.1332 42.1129C25.6283 43.2021 26.1737 44.2658 26.7693 45.3014C27.6262 46.7937 28.5862 48.2221 29.6392 49.5792C30.1167 50.1939 30.6395 50.7653 31.0466 51.4209C31.4537 52.0764 32.0569 52.6708 32.6801 53.1171C32.092 53.2881 29.9283 53.8569 28.0007 52.9182C27.4478 52.6503 26.3772 52.1274 26.0078 51.028C25.9475 50.8495 25.9198 50.6939 25.9048 50.5842C26.1963 51.4744 26.0279 52.5942 26.1008 53.5355C26.1762 54.5201 26.4225 55.4945 26.1661 56.4485C26.2164 57.4255 24.7663 58.5734 24.0953 59.206C24.3089 58.6601 25.2162 57.0276 25.2715 56.4307C25.4021 55.0405 25.2212 53.4615 25.0151 52.0917C24.9397 51.5918 24.7914 51.1377 24.7462 50.6352C24.6934 50.0332 24.6331 49.4287 24.5602 48.8292C24.412 47.6023 24.2235 46.3779 23.9923 45.1637C23.6982 43.6255 23.3389 42.1001 22.9142 40.5926C22.4869 39.08 21.9089 37.654 21.4339 36.1618C20.9388 34.6058 20.587 33.0064 20.3382 31.3918C20.2151 30.5908 20.0567 29.7567 20.0291 28.9455C20.004 28.1752 20.0794 27.4635 20.2402 26.7136C20.0593 26.8564 19.8783 26.9993 19.6999 27.1447C19.8004 27.0656 19.7652 26.2697 19.7803 26.1167C19.818 25.7213 19.8632 25.3285 19.916 24.9331C20.019 24.1729 20.1497 23.4153 20.3106 22.6654C20.4714 21.9155 20.6574 21.1706 20.8735 20.436C21.0193 19.9411 21.5897 19.0432 21.2354 18.5433C20.4739 18.6172 19.8406 18.4642 19.0992 18.7142C19.1847 18.6861 19.3782 17.1199 19.4259 16.9362C19.5843 16.3036 19.7828 15.6838 20.0216 15.0767C20.2603 14.4696 20.3809 14.24 20.6976 13.6737C21.0142 13.1075 20.7679 12.4927 20.8157 11.8474C20.9062 13.0922 21.9541 14.1839 22.1275 15.3955C22.1024 15.217 23.4746 14.6482 23.648 14.5232C24.3567 14.0028 24.7311 13.2554 25.3192 12.6254C24.9372 13.036 24.5301 13.8064 24.231 14.3038C23.7812 15.0486 24.0827 15.6277 24.138 16.4516C24.2436 18.005 23.751 19.4412 22.9418 20.7446C22.2029 21.9333 21.9014 23.0506 21.5294 24.3591C21.3409 25.0224 21.0997 25.8718 21.0871 26.558C21.346 25.882 22.409 26.081 22.977 25.9891C23.6605 25.8769 24.128 25.53 24.7161 25.257C24.1179 26.1651 22.982 26.2264 22.1024 26.7314C21.062 27.3309 20.1623 29.7082 20.9313 30.7898C21.2404 31.2234 21.2857 32.0142 21.8209 33.4095C22.0295 33.9503 22.213 34.3941 22.3437 34.6976L22.3512 34.6925Z" fill="#28180F"/>
<path d="M10.527 27.6701C10.1877 27.8691 9.9138 28.2364 9.74543 28.6063C9.2227 29.7465 9.26039 31.1341 9.83841 32.2463C10.0445 32.055 10.248 31.8611 10.4541 31.6698C10.4541 31.6698 10.6024 32.2565 10.6049 32.3228C10.6125 32.5575 10.5521 32.7386 10.4843 32.9682C10.3209 33.5166 10.1802 34.0701 10.0646 34.6313C9.83087 35.7511 9.69265 36.8913 9.64741 38.0341C9.59715 39.3197 9.66501 40.6079 9.85349 41.8782C9.94648 42.5134 10.0721 43.146 10.2254 43.7684C10.3787 44.3908 10.6275 44.9264 10.7482 45.5259C10.8512 46.0309 10.8939 46.536 11.0397 47.0411C10.8713 46.4518 11.0447 45.8753 11.1553 45.2938C11.286 44.6152 11.3563 44.2479 11.487 43.5719C11.5524 43.6612 11.6152 44.9494 11.7434 44.8525C11.9318 43.5617 12.1203 42.271 12.3088 40.9829L12.4018 41.0466C12.9748 40.9803 13.5603 41.016 14.1233 41.1487C13.5553 41.016 13.3392 40.613 13.3342 40.062C13.3266 39.3707 13.2864 38.682 13.2085 37.9958C13.0778 36.8352 12.8441 35.6873 12.5099 34.5701C12.1756 33.4528 12.1857 32.2157 12.1178 31.0474C12.0675 30.1546 12.0148 29.2542 12.1354 28.3665C12.256 27.4788 12.5576 26.5962 13.1381 25.9228C12.0248 27.0503 11.2659 28.5348 10.9995 30.1087C10.8612 29.2516 10.9241 28.3588 11.1829 27.5298C10.9492 27.4966 10.7281 27.5579 10.5295 27.6727L10.527 27.6701Z" fill="#CC953D"/>
<path d="M42.5868 58.9152C42.6874 59.0861 42.8005 59.3233 42.8834 59.6243C42.9487 59.8692 42.9764 60.0885 42.9839 60.2645C42.8834 60.4099 42.7804 60.5528 42.6798 60.6982L42.0164 60.5936L41.755 59.6549C42.034 59.41 42.3104 59.1651 42.5894 58.9203L42.5868 58.9152Z" fill="#F9F4F2"/>
<path d="M50.5835 57.8821C50.4805 58.0581 50.3674 58.2979 50.287 58.5963C50.1613 59.0784 50.1865 59.4916 50.2242 59.7493C50.3146 59.7212 50.4026 59.6957 50.4931 59.6677L51.1565 59.5631L51.4179 58.6244C51.1389 58.3769 50.8625 58.1295 50.5835 57.8821Z" fill="#F9F4F2"/>
<path d="M34.2381 44.2199C34.5144 44.2199 34.7383 43.9926 34.7383 43.7123C34.7383 43.4319 34.5144 43.2047 34.2381 43.2047C33.9619 43.2047 33.738 43.4319 33.738 43.7123C33.738 43.9926 33.9619 44.2199 34.2381 44.2199Z" fill="#916140"/>
<path d="M33.8889 45.9213C34.1651 45.9213 34.389 45.694 34.389 45.4137C34.389 45.1333 34.1651 44.9061 33.8889 44.9061C33.6127 44.9061 33.3888 45.1333 33.3888 45.4137C33.3888 45.694 33.6127 45.9213 33.8889 45.9213Z" fill="#916140"/>
<path d="M32.2478 45.9825C32.524 45.9825 32.7479 45.7552 32.7479 45.4749C32.7479 45.1946 32.524 44.9673 32.2478 44.9673C31.9716 44.9673 31.7477 45.1946 31.7477 45.4749C31.7477 45.7552 31.9716 45.9825 32.2478 45.9825Z" fill="#916140"/>
<path d="M32.3608 44.1714C32.637 44.1714 32.8609 43.9442 32.8609 43.6638C32.8609 43.3835 32.637 43.1562 32.3608 43.1562C32.0846 43.1562 31.8607 43.3835 31.8607 43.6638C31.8607 43.9442 32.0846 44.1714 32.3608 44.1714Z" fill="#916140"/>
<path d="M54.901 45.1714C55.1772 45.1714 55.4011 44.9441 55.4011 44.6637C55.4011 44.3834 55.1772 44.1561 54.901 44.1561C54.6248 44.1561 54.4009 44.3834 54.4009 44.6637C54.4009 44.9441 54.6248 45.1714 54.901 45.1714Z" fill="#916140"/>
<path d="M56.0671 46.4493C56.3433 46.4493 56.5672 46.222 56.5672 45.9417C56.5672 45.6614 56.3433 45.4341 56.0671 45.4341C55.7909 45.4341 55.567 45.6614 55.567 45.9417C55.567 46.222 55.7909 46.4493 56.0671 46.4493Z" fill="#916140"/>
<path d="M55.1649 47.8421C55.4411 47.8421 55.665 47.6148 55.665 47.3345C55.665 47.0541 55.4411 46.8268 55.1649 46.8268C54.8887 46.8268 54.6648 47.0541 54.6648 47.3345C54.6648 47.6148 54.8887 47.8421 55.1649 47.8421Z" fill="#916140"/>
<path d="M53.7751 46.6967C54.0513 46.6967 54.2752 46.4695 54.2752 46.1891C54.2752 45.9088 54.0513 45.6815 53.7751 45.6815C53.4989 45.6815 53.275 45.9088 53.275 46.1891C53.275 46.4695 53.4989 46.6967 53.7751 46.6967Z" fill="#916140"/>
<path opacity="0.6" d="M64.4665 62.6904C64.4362 62.7772 64.4109 62.8639 64.3705 62.9481C64.3578 62.8664 64.3983 62.7772 64.4665 62.6904Z" fill="#DDDDDD"/>
<path d="M89.964 38.8274V35.7027C91.1075 35.7027 92.0273 35.3481 92.0273 33.0932V20.6554H90.3133C89.1699 20.6554 88.6296 20.913 88.1546 23.4919L87.9962 24.3285H85.0433L85.4253 16.9184H106.314L106.726 24.3285H103.424L103.266 23.4919C102.788 20.913 102.281 20.6554 101.14 20.6554H99.7099V33.1263C99.7099 35.3507 100.6 35.7052 101.74 35.7052V38.83H89.9615L89.964 38.8274Z" fill="#C7913A"/>
<path d="M107.679 38.8275V35.7027C108.79 35.7027 109.679 35.4119 109.679 33.4146V28.5476C109.679 26.6141 109.044 26.4534 107.712 26.4534V23.2317L115.522 21.9435L115.967 24.2648H116.158C117.397 23.0072 118.666 21.7828 120.604 21.7828C122.825 21.7828 124.381 23.0072 124.381 25.5198C124.381 27.4865 123.303 28.9991 121.747 28.9991C118.669 28.9991 119.526 25.9713 117.875 25.9713C117.143 25.9713 116.701 26.8411 116.701 28.7109V33.4146C116.701 35.4119 117.621 35.7027 118.764 35.7027V38.8275H107.684H107.679Z" fill="#C7913A"/>
<path d="M139.711 39.3759L139.141 36.9271H139.012C137.075 38.7968 135.14 39.3759 133.33 39.3759C130.282 39.3759 127.394 38.2152 127.394 34.3176V28.8078C127.394 26.5835 126.475 26.132 125.331 26.132V22.9103L134.411 21.9767V32.0626C134.411 34.0599 134.888 35.3481 136.316 35.3481C137.364 35.3481 138.475 34.2538 138.475 33.2207V28.4838C138.475 26.2595 137.555 25.9713 136.411 25.9713V22.7802L145.459 21.9741V33.3814C145.459 35.1848 146.062 35.4756 147.396 35.4756V38.6336L139.714 39.3759H139.711Z" fill="#C7913A"/>
<path d="M148.979 38.8274V35.7027C150.09 35.7027 150.98 35.4119 150.98 33.4146V26.4866H148.979V22.8134H151.01C151.485 19.0101 153.327 15.3701 158.567 15.3701C159.741 15.3701 163.616 15.6609 163.616 18.7218C163.616 19.4947 163.299 20.8492 161.839 20.8492C160.188 20.8492 159.776 19.2065 158.823 19.2065C158.316 19.2065 158.029 19.6248 158.029 20.4309V22.8159H160.791V26.4891H158.029V33.4171C158.029 35.4144 158.919 35.7052 160.06 35.7052V38.83H148.979V38.8274Z" fill="#C7913A"/>
<path d="M176.028 38.8274V35.7027C177.139 35.7027 178.029 35.4119 178.029 33.4146V22.3287C178.029 20.5253 177.139 19.6529 175.837 19.4284C174.344 19.1708 173.837 19.2039 172.884 19.2039C172.377 19.2039 172.09 19.6223 172.09 20.4283V22.8134H174.852V26.4866H172.09V33.4146C172.09 35.4119 172.98 35.7027 174.121 35.7027V38.8274H163.04V35.7027C164.151 35.7027 165.041 35.4119 165.041 33.4146V26.4866H163.04V22.8134H165.071C165.546 19.0101 168.182 15.3701 173.42 15.3701C177.42 15.3701 184.181 16.8215 185.07 17.176V33.4171C185.07 35.4144 185.96 35.7052 187.101 35.7052V38.83H176.021L176.028 38.8274Z" fill="#C7913A"/>
<path d="M205.077 37.2153C203.014 38.6004 201.3 39.3733 198.505 39.3733C190.948 39.3733 188.694 34.4426 188.694 30.7362C188.694 25.8692 192.6 21.7777 197.488 21.7777C203.519 21.7777 205.997 24.8081 205.997 29.9633V30.9301H195.902C195.902 33.1212 197.236 34.991 199.584 34.991C200.885 34.991 202.187 34.2819 203.361 33.7028L205.075 37.2153H205.077ZM200.094 28.29C200.094 28.29 200.094 25.6167 198.126 25.6167C196.379 25.6167 196.125 28.29 196.125 28.29H200.094Z" fill="#C7913A"/>
<path d="M85.36 64.3204V61.1957C86.5336 61.1957 87.3906 60.8411 87.3906 58.5862V48.1456C87.3906 45.8907 86.5336 45.5361 85.36 45.5361V42.4114H97.6793C104.251 42.4114 108.822 45.7938 108.822 53.0458C108.822 59.8769 105.329 64.323 98.3779 64.323H85.3625L85.36 64.3204ZM95.0757 46.1789V57.7138C95.0757 60.1294 96.3146 60.7748 97.4883 60.7748C100.758 60.7748 100.567 55.941 100.567 53.2014C100.567 48.689 99.7425 46.1764 97.1063 46.1764H95.0757V46.1789Z" fill="#51332E"/>
<path d="M119.297 64.8689C113.266 64.8689 110.089 60.8411 110.089 56.1042C110.089 51.3673 113.803 47.2758 119.297 47.2758C124.791 47.2758 128.503 51.2704 128.503 56.1042C128.503 60.938 125.075 64.8689 119.297 64.8689ZM121.169 56.1042C121.169 53.8161 120.883 51.3673 119.297 51.3673C117.711 51.3673 117.425 53.8161 117.425 56.1042C117.425 58.3923 117.711 60.7773 119.297 60.7773C120.883 60.7773 121.169 58.3617 121.169 56.1042Z" fill="#51332E"/>
<path d="M142.124 61.0018C145.077 61.0018 146.982 62.8052 146.982 65.1596C146.982 69.4144 142.918 71.9601 136.854 71.9601C131.363 71.9601 128.505 70.2511 128.505 67.9655C128.505 66.4835 129.076 65.4836 130.41 64.3893C129.553 64.0347 128.792 63.3894 128.792 62.165C128.792 60.0376 130.729 58.8463 132.411 57.9433C130.568 56.9434 129.649 55.14 129.649 53.4309C129.649 49.4032 133.172 47.309 137.299 47.309C139.711 47.309 141.679 48.0181 142.951 48.5971C143.172 48.6941 143.586 48.8216 143.745 48.8216C144.157 48.8216 144.315 48.4339 144.315 47.5972H148.158C148.158 50.046 146.889 51.9157 144.888 52.2372C145.109 52.9463 145.109 53.5916 145.109 54.1069C145.109 55.816 143.395 58.9076 138.316 58.9076H135.904C135.268 58.9076 134.665 59.229 134.665 59.9713C134.665 60.938 135.459 61.0018 136.253 61.0018H142.126H142.124ZM136.409 66.0932C135.298 65.9325 134.567 65.7387 133.614 65.5448C133.232 65.9631 133.074 66.3509 133.074 66.9299C133.074 68.3482 136.122 68.7333 137.105 68.7333C138.565 68.7333 139.93 68.0574 139.93 67.3482C139.93 66.7029 139.58 66.4453 139.105 66.3815C139.105 66.3815 137.454 66.2539 136.406 66.0907L136.409 66.0932ZM138.6 53.0101C138.6 52.0764 138.472 50.6888 137.266 50.6888C136.281 50.6888 136.155 51.977 136.155 53.0101C136.155 53.9768 136.251 55.492 137.329 55.492C138.598 55.492 138.598 53.783 138.598 53.0101H138.6Z" fill="#51332E"/>
<path d="M150.947 56.7649L151.221 55.4232C152.04 55.4078 152.314 54.8365 152.468 54.0814L153.501 48.9925C153.621 48.3599 153.669 47.6508 152.817 47.6202L153.091 46.2784H158.909C162.357 46.2784 163.694 48.2528 162.965 51.7678C162.266 55.1145 160.306 56.7649 157.069 56.7649H150.947ZM157.207 47.9288L156.054 53.6197C156.024 53.7575 156.009 53.8825 155.994 54.0202C155.948 54.7293 156.252 55.2216 156.996 55.2216C158.637 55.2216 159.047 52.755 159.306 51.4592C159.535 50.3343 160.02 47.9288 158.258 47.9288H157.21H157.207Z" fill="#9D5E26"/>
<path d="M169.15 54.5737C168.861 56.2241 168.132 56.9179 166.431 56.9179C164.729 56.9179 164.061 55.6833 164.365 54.1732L165.018 50.9822C165.033 50.9362 165.033 50.9056 165.033 50.8597C165.033 50.6429 164.913 50.5052 164.699 50.5052C164.44 50.5052 164.32 50.6914 164.244 50.9362C164.169 51.1837 164.108 51.4617 164.076 51.6607H163.239L163.299 51.3214C163.588 49.7323 164.362 48.7145 166.064 48.7145C167.295 48.7145 168.205 49.4542 168.205 50.75C168.205 50.9822 168.175 51.227 168.129 51.4592L167.476 54.6502C167.461 54.6962 167.461 54.7268 167.461 54.7727C167.461 54.9895 167.582 55.1272 167.795 55.1272C168.054 55.1272 168.16 54.941 168.25 54.6962C168.325 54.4487 168.371 54.1707 168.418 53.9717H169.255L169.15 54.5737ZM167.737 48.1584C167.069 48.1584 166.506 47.6023 166.506 46.9238C166.506 46.2453 167.069 45.6739 167.737 45.6739C168.406 45.6739 168.969 46.23 168.969 46.9085C168.969 47.587 168.406 48.1584 167.737 48.1584Z" fill="#9D5E26"/>
<path d="M172.643 58.9076C172.811 58.8617 173.646 58.9076 173.796 58.8617C174.495 58.6602 174.45 58.1832 173.613 58.1832H171.424C170.286 58.1832 169.328 57.4281 169.328 56.3185C169.328 55.1145 170.24 54.4998 170.816 54.2829C169.904 53.7575 169.708 53.1733 169.708 52.1096C169.708 51.9719 169.738 51.5867 169.768 51.4464C170.301 49.4568 172.047 48.717 173.854 48.717C174.812 48.717 175.631 48.8395 176.468 49.2272C176.543 49.2731 176.712 49.3343 176.802 49.3343C177.061 49.3343 177.182 49.1022 177.182 48.8573H179.142C179.112 50.0282 178.245 51.1709 177.136 51.3393C177.197 51.5867 177.212 51.5714 177.212 51.8163C177.212 53.5126 175.161 54.7013 173.475 54.7013H172.731C172.397 54.7013 171.927 54.7472 171.912 55.1018C171.897 55.4257 172.246 55.4716 172.49 55.4716H175.938C177.001 55.4716 178.383 56.0583 178.018 57.3847C177.35 59.8514 175.45 59.9152 174.447 59.9152C174.143 59.9152 173.339 59.9305 173.095 59.8539L172.64 58.9127L172.643 58.9076ZM174.42 50.4414C174.42 50.2399 174.314 50.0409 174.085 50.0409C173.266 50.0409 172.565 51.7678 172.565 52.9234C172.565 53.1708 172.701 53.3697 172.96 53.3697C173.812 53.3697 174.417 51.1964 174.417 50.4388L174.42 50.4414Z" fill="#9D5E26"/>
<path d="M184.678 54.5737C184.389 56.2241 183.66 56.9179 181.959 56.9179C180.258 56.9179 179.589 55.6833 179.893 54.1732L180.547 50.9822C180.562 50.9362 180.562 50.9056 180.562 50.8597C180.562 50.6429 180.441 50.5052 180.228 50.5052C179.969 50.5052 179.848 50.6914 179.773 50.9362C179.697 51.1837 179.637 51.4617 179.604 51.6607H178.767L178.828 51.3214C179.117 49.7323 179.891 48.7145 181.592 48.7145C182.824 48.7145 183.733 49.4542 183.733 50.75C183.733 50.9822 183.703 51.227 183.658 51.4592L183.005 54.6502C182.99 54.6962 182.99 54.7268 182.99 54.7727C182.99 54.9895 183.11 55.1272 183.324 55.1272C183.583 55.1272 183.688 54.941 183.779 54.6962C183.854 54.4487 183.899 54.1707 183.947 53.9717H184.784L184.678 54.5737ZM183.266 48.1584C182.597 48.1584 182.035 47.6023 182.035 46.9238C182.035 46.2453 182.597 45.6739 183.266 45.6739C183.934 45.6739 184.497 46.23 184.497 46.9085C184.497 47.587 183.934 48.1584 183.266 48.1584Z" fill="#9D5E26"/>
<path d="M190.36 54.5737C190.071 56.2241 189.207 56.9179 187.503 56.9179C185.799 56.9179 184.95 55.7624 185.269 54.1732L185.922 50.9643H184.859L185.284 48.8675H186.362L186.666 47.3727H189.873L189.569 48.8675H191.057L190.662 50.9643H189.142L188.383 54.6502C188.322 54.9436 188.581 55.1604 188.853 55.1604C189.491 55.1604 189.536 54.4666 189.627 53.9717H190.463L190.358 54.5737H190.36Z" fill="#9D5E26"/>
<path d="M200.448 53.9718C200.403 54.4488 200.358 54.7268 200.204 55.191C199.78 56.441 199.003 56.918 197.729 56.918C196.892 56.918 196.467 56.6093 196.073 55.8543C195.419 56.6246 194.796 56.918 193.899 56.918C192.044 56.918 191.135 55.793 191.135 54.0355C191.135 51.7525 193.215 48.6992 196.178 48.6992C197.03 48.6992 197.272 48.8854 197.729 49.0078L198.807 48.4977H199.976L198.699 54.436C198.654 54.6681 198.654 55.1298 198.973 55.1298C199.473 55.1298 199.551 54.3595 199.626 53.9743H200.446L200.448 53.9718ZM195.919 50.6098C195.145 50.6098 194.203 52.5535 194.203 54.1248C194.203 54.4794 194.294 55.0048 194.751 55.0048C195.359 55.0048 195.57 54.0636 195.678 53.5713C195.814 52.8928 196.241 51.3827 196.332 50.671C196.181 50.6251 196.088 50.6098 195.922 50.6098H195.919Z" fill="#9D5E26"/>
<path d="M205.829 54.5737C205.54 56.2241 204.826 56.9179 203.109 56.9179C201.393 56.9179 200.74 55.6833 201.059 54.1732L202.26 48.3752H201.182L201.637 46.2784H205.891L204.16 54.6528C204.115 54.8849 204.205 55.1298 204.479 55.1298C204.738 55.1298 204.843 54.9436 204.934 54.6987C205.009 54.4513 205.07 54.1732 205.117 53.9743H205.937L205.831 54.5763L205.829 54.5737Z" fill="#9D5E26"/>
</g>
<defs>
<clipPath id="clip0_3_12">
<rect width="206" height="100" fill="white" transform="translate(-0.00292969 0.00134277)"/>
</clipPath>
</defs>
</svg>
